<svg xmlns="http://www.w3.org/2000/svg" width="1280" height="540" viewBox="0 0 1280 540">
<rect width="100%" height="100%" fill="#081018" />
<rect x="372.56" y="44" width="650.51" height="442" fill="#17324d" opacity="0.18" />
<line x1="1068.46" y1="44" x2="1068.46" y2="486" stroke="#fde047" stroke-width="2" stroke-dasharray="6 4" />
<text x="70" y="24" fill="#e5e7eb" font-size="16" font-family="monospace">Top Family Inspection Snippet</text>
<text x="70" y="42" fill="#93c5fd" font-size="12" font-family="monospace">HTL|REVERSAL_DOWN|HH_ONLY|DEEP_DOM</text>
<line x1="70.00" y1="397.22" x2="70.00" y2="455.52" stroke="#22c55e" stroke-width="1" />
<rect x="65.84" y="410.23" width="8.32" height="25.40" fill="#22c55e" opacity="0.85" />
<line x1="85.13" y1="315.65" x2="85.13" y2="383.08" stroke="#22c55e" stroke-width="1" />
<rect x="80.97" y="321.03" width="8.32" height="60.43" fill="#22c55e" opacity="0.85" />
<line x1="100.26" y1="315.90" x2="100.26" y2="347.42" stroke="#ef4444" stroke-width="1" />
<rect x="96.10" y="319.28" width="8.32" height="26.02" fill="#ef4444" opacity="0.85" />
<line x1="115.38" y1="337.67" x2="115.38" y2="366.07" stroke="#22c55e" stroke-width="1" />
<rect x="111.22" y="344.80" width="8.32" height="1.75" fill="#22c55e" opacity="0.85" />
<line x1="130.51" y1="327.91" x2="130.51" y2="347.80" stroke="#22c55e" stroke-width="1" />
<rect x="126.35" y="332.29" width="8.32" height="7.88" fill="#22c55e" opacity="0.85" />
<line x1="145.64" y1="306.14" x2="145.64" y2="337.54" stroke="#22c55e" stroke-width="1" />
<rect x="141.48" y="311.77" width="8.32" height="19.77" fill="#22c55e" opacity="0.85" />
<line x1="160.77" y1="293.63" x2="160.77" y2="317.90" stroke="#22c55e" stroke-width="1" />
<rect x="156.61" y="306.02" width="8.32" height="8.76" fill="#22c55e" opacity="0.85" />
<line x1="175.90" y1="280.62" x2="175.90" y2="306.52" stroke="#22c55e" stroke-width="1" />
<rect x="171.74" y="282.24" width="8.32" height="17.89" fill="#22c55e" opacity="0.85" />
<line x1="191.03" y1="251.47" x2="191.03" y2="276.86" stroke="#22c55e" stroke-width="1" />
<rect x="186.87" y="264.10" width="8.32" height="11.01" fill="#22c55e" opacity="0.85" />
<line x1="206.15" y1="271.36" x2="206.15" y2="317.65" stroke="#ef4444" stroke-width="1" />
<rect x="201.99" y="279.49" width="8.32" height="12.14" fill="#ef4444" opacity="0.85" />
<line x1="221.28" y1="227.07" x2="221.28" y2="294.63" stroke="#22c55e" stroke-width="1" />
<rect x="217.12" y="237.21" width="8.32" height="55.30" fill="#22c55e" opacity="0.85" />
<line x1="236.41" y1="215.44" x2="236.41" y2="253.18" stroke="#ef4444" stroke-width="1" />
<rect x="232.25" y="220.20" width="8.32" height="30.09" fill="#ef4444" opacity="0.85" />
<line x1="251.54" y1="267.10" x2="251.54" y2="299.82" stroke="#ef4444" stroke-width="1" />
<rect x="247.38" y="270.98" width="8.32" height="10.53" fill="#ef4444" opacity="0.85" />
<line x1="266.67" y1="275.88" x2="266.67" y2="303.84" stroke="#ef4444" stroke-width="1" />
<rect x="262.51" y="292.05" width="8.32" height="2.38" fill="#ef4444" opacity="0.85" />
<line x1="281.79" y1="288.16" x2="281.79" y2="309.36" stroke="#22c55e" stroke-width="1" />
<rect x="277.63" y="295.56" width="8.32" height="5.02" fill="#22c55e" opacity="0.85" />
<line x1="296.92" y1="309.98" x2="296.92" y2="334.68" stroke="#22c55e" stroke-width="1" />
<rect x="292.76" y="322.90" width="8.32" height="1.00" fill="#22c55e" opacity="0.85" />
<line x1="312.05" y1="311.36" x2="312.05" y2="338.07" stroke="#22c55e" stroke-width="1" />
<rect x="307.89" y="323.15" width="8.32" height="4.26" fill="#22c55e" opacity="0.85" />
<line x1="327.18" y1="291.67" x2="327.18" y2="323.65" stroke="#22c55e" stroke-width="1" />
<rect x="323.02" y="296.94" width="8.32" height="26.71" fill="#22c55e" opacity="0.85" />
<line x1="342.31" y1="300.58" x2="342.31" y2="319.51" stroke="#ef4444" stroke-width="1" />
<rect x="338.15" y="303.21" width="8.32" height="1.25" fill="#ef4444" opacity="0.85" />
<line x1="357.44" y1="269.86" x2="357.44" y2="310.98" stroke="#22c55e" stroke-width="1" />
<rect x="353.28" y="272.74" width="8.32" height="34.48" fill="#22c55e" opacity="0.85" />
<line x1="372.56" y1="229.86" x2="372.56" y2="252.68" stroke="#22c55e" stroke-width="1" />
<rect x="368.40" y="239.01" width="8.32" height="7.90" fill="#22c55e" opacity="0.85" />
<line x1="387.69" y1="230.49" x2="387.69" y2="252.43" stroke="#22c55e" stroke-width="1" />
<rect x="383.53" y="236.25" width="8.32" height="13.42" fill="#22c55e" opacity="0.85" />
<line x1="402.82" y1="240.39" x2="402.82" y2="259.07" stroke="#22c55e" stroke-width="1" />
<rect x="398.66" y="252.05" width="8.32" height="5.39" fill="#22c55e" opacity="0.85" />
<line x1="417.95" y1="276.38" x2="417.95" y2="316.12" stroke="#ef4444" stroke-width="1" />
<rect x="413.79" y="284.28" width="8.32" height="12.66" fill="#ef4444" opacity="0.85" />
<line x1="433.08" y1="282.27" x2="433.08" y2="322.52" stroke="#ef4444" stroke-width="1" />
<rect x="428.92" y="312.74" width="8.32" height="6.77" fill="#ef4444" opacity="0.85" />
<line x1="448.21" y1="291.67" x2="448.21" y2="322.77" stroke="#22c55e" stroke-width="1" />
<rect x="444.04" y="292.55" width="8.32" height="27.33" fill="#22c55e" opacity="0.85" />
<line x1="463.33" y1="250.67" x2="463.33" y2="287.91" stroke="#22c55e" stroke-width="1" />
<rect x="459.17" y="254.18" width="8.32" height="23.82" fill="#22c55e" opacity="0.85" />
<line x1="478.46" y1="213.31" x2="478.46" y2="247.79" stroke="#ef4444" stroke-width="1" />
<rect x="474.30" y="225.72" width="8.32" height="16.05" fill="#ef4444" opacity="0.85" />
<line x1="493.59" y1="226.10" x2="493.59" y2="240.89" stroke="#ef4444" stroke-width="1" />
<rect x="489.43" y="232.87" width="8.32" height="5.27" fill="#ef4444" opacity="0.85" />
<line x1="508.72" y1="213.05" x2="508.72" y2="230.73" stroke="#ef4444" stroke-width="1" />
<rect x="504.56" y="215.69" width="8.32" height="6.77" fill="#ef4444" opacity="0.85" />
<line x1="523.85" y1="203.27" x2="523.85" y2="234.37" stroke="#22c55e" stroke-width="1" />
<rect x="519.69" y="213.93" width="8.32" height="16.18" fill="#22c55e" opacity="0.85" />
<line x1="538.97" y1="163.02" x2="538.97" y2="221.46" stroke="#22c55e" stroke-width="1" />
<rect x="534.81" y="167.16" width="8.32" height="49.28" fill="#22c55e" opacity="0.85" />
<line x1="554.10" y1="131.18" x2="554.10" y2="156.88" stroke="#22c55e" stroke-width="1" />
<rect x="549.94" y="153.25" width="8.32" height="3.64" fill="#22c55e" opacity="0.85" />
<line x1="569.23" y1="113.12" x2="569.23" y2="144.97" stroke="#22c55e" stroke-width="1" />
<rect x="565.07" y="131.43" width="8.32" height="12.29" fill="#22c55e" opacity="0.85" />
<line x1="584.36" y1="116.90" x2="584.36" y2="137.10" stroke="#ef4444" stroke-width="1" />
<rect x="580.20" y="123.30" width="8.32" height="8.41" fill="#ef4444" opacity="0.85" />
<line x1="599.49" y1="101.21" x2="599.49" y2="126.81" stroke="#22c55e" stroke-width="1" />
<rect x="595.33" y="107.48" width="8.32" height="17.07" fill="#22c55e" opacity="0.85" />
<line x1="614.62" y1="93.56" x2="614.62" y2="114.01" stroke="#22c55e" stroke-width="1" />
<rect x="610.46" y="104.35" width="8.32" height="6.53" fill="#22c55e" opacity="0.85" />
<line x1="629.74" y1="79.75" x2="629.74" y2="119.40" stroke="#22c55e" stroke-width="1" />
<rect x="625.58" y="92.68" width="8.32" height="26.48" fill="#22c55e" opacity="0.85" />
<line x1="644.87" y1="78.75" x2="644.87" y2="132.96" stroke="#ef4444" stroke-width="1" />
<rect x="640.71" y="85.02" width="8.32" height="38.77" fill="#ef4444" opacity="0.85" />
<line x1="660.00" y1="88.91" x2="660.00" y2="115.51" stroke="#ef4444" stroke-width="1" />
<rect x="655.84" y="101.96" width="8.32" height="1.00" fill="#ef4444" opacity="0.85" />
<line x1="675.13" y1="88.28" x2="675.13" y2="105.98" stroke="#22c55e" stroke-width="1" />
<rect x="670.97" y="88.66" width="8.32" height="12.55" fill="#22c55e" opacity="0.85" />
<line x1="690.26" y1="74.48" x2="690.26" y2="94.06" stroke="#22c55e" stroke-width="1" />
<rect x="686.10" y="80.76" width="8.32" height="11.67" fill="#22c55e" opacity="0.85" />
<line x1="705.38" y1="93.31" x2="705.38" y2="132.08" stroke="#ef4444" stroke-width="1" />
<rect x="701.22" y="102.34" width="8.32" height="21.83" fill="#ef4444" opacity="0.85" />
<line x1="720.51" y1="116.02" x2="720.51" y2="144.50" stroke="#22c55e" stroke-width="1" />
<rect x="716.35" y="133.59" width="8.32" height="4.89" fill="#22c55e" opacity="0.85" />
<line x1="735.64" y1="96.32" x2="735.64" y2="156.05" stroke="#ef4444" stroke-width="1" />
<rect x="731.48" y="119.41" width="8.32" height="30.99" fill="#ef4444" opacity="0.85" />
<line x1="750.77" y1="97.45" x2="750.77" y2="134.97" stroke="#22c55e" stroke-width="1" />
<rect x="746.61" y="100.58" width="8.32" height="32.37" fill="#22c55e" opacity="0.85" />
<line x1="765.90" y1="116.52" x2="765.90" y2="159.56" stroke="#22c55e" stroke-width="1" />
<rect x="761.74" y="120.66" width="8.32" height="7.53" fill="#22c55e" opacity="0.85" />
<line x1="781.03" y1="112.38" x2="781.03" y2="151.78" stroke="#ef4444" stroke-width="1" />
<rect x="776.87" y="122.54" width="8.32" height="19.95" fill="#ef4444" opacity="0.85" />
<line x1="796.15" y1="84.27" x2="796.15" y2="143.63" stroke="#ef4444" stroke-width="1" />
<rect x="791.99" y="119.03" width="8.32" height="15.81" fill="#ef4444" opacity="0.85" />
<line x1="811.28" y1="111.88" x2="811.28" y2="150.90" stroke="#22c55e" stroke-width="1" />
<rect x="807.12" y="120.91" width="8.32" height="22.71" fill="#22c55e" opacity="0.85" />
<line x1="826.41" y1="114.64" x2="826.41" y2="136.35" stroke="#22c55e" stroke-width="1" />
<rect x="822.25" y="118.28" width="8.32" height="6.02" fill="#22c55e" opacity="0.85" />
<line x1="841.54" y1="133.21" x2="841.54" y2="168.85" stroke="#ef4444" stroke-width="1" />
<rect x="837.38" y="137.60" width="8.32" height="25.85" fill="#ef4444" opacity="0.85" />
<line x1="856.67" y1="139.48" x2="856.67" y2="187.29" stroke="#ef4444" stroke-width="1" />
<rect x="852.51" y="167.34" width="8.32" height="19.20" fill="#ef4444" opacity="0.85" />
<line x1="871.79" y1="167.09" x2="871.79" y2="223.56" stroke="#ef4444" stroke-width="1" />
<rect x="867.63" y="171.73" width="8.32" height="48.81" fill="#ef4444" opacity="0.85" />
<line x1="886.92" y1="203.45" x2="886.92" y2="244.05" stroke="#22c55e" stroke-width="1" />
<rect x="882.76" y="213.38" width="8.32" height="27.27" fill="#22c55e" opacity="0.85" />
<line x1="902.05" y1="205.84" x2="902.05" y2="246.43" stroke="#ef4444" stroke-width="1" />
<rect x="897.89" y="211.12" width="8.32" height="7.92" fill="#ef4444" opacity="0.85" />
<line x1="917.18" y1="213.13" x2="917.18" y2="245.43" stroke="#ef4444" stroke-width="1" />
<rect x="913.02" y="217.53" width="8.32" height="23.00" fill="#ef4444" opacity="0.85" />
<line x1="932.31" y1="209.86" x2="932.31" y2="236.88" stroke="#22c55e" stroke-width="1" />
<rect x="928.15" y="217.03" width="8.32" height="16.34" fill="#22c55e" opacity="0.85" />
<line x1="947.44" y1="190.13" x2="947.44" y2="265.54" stroke="#ef4444" stroke-width="1" />
<rect x="943.28" y="223.44" width="8.32" height="41.35" fill="#ef4444" opacity="0.85" />
<line x1="962.56" y1="220.55" x2="962.56" y2="273.33" stroke="#22c55e" stroke-width="1" />
<rect x="958.40" y="233.74" width="8.32" height="13.07" fill="#22c55e" opacity="0.85" />
<line x1="977.69" y1="193.90" x2="977.69" y2="221.18" stroke="#22c55e" stroke-width="1" />
<rect x="973.53" y="205.97" width="8.32" height="6.28" fill="#22c55e" opacity="0.85" />
<line x1="992.82" y1="167.76" x2="992.82" y2="209.86" stroke="#22c55e" stroke-width="1" />
<rect x="988.66" y="169.40" width="8.32" height="38.46" fill="#22c55e" opacity="0.85" />
<line x1="1007.95" y1="142.88" x2="1007.95" y2="170.66" stroke="#22c55e" stroke-width="1" />
<rect x="1003.79" y="159.60" width="8.32" height="3.77" fill="#22c55e" opacity="0.85" />
<line x1="1023.08" y1="135.97" x2="1023.08" y2="180.46" stroke="#ef4444" stroke-width="1" />
<rect x="1018.92" y="140.49" width="8.32" height="39.08" fill="#ef4444" opacity="0.85" />
<line x1="1038.21" y1="147.53" x2="1038.21" y2="180.33" stroke="#ef4444" stroke-width="1" />
<rect x="1034.04" y="152.94" width="8.32" height="11.94" fill="#ef4444" opacity="0.85" />
<line x1="1053.33" y1="161.10" x2="1053.33" y2="191.01" stroke="#ef4444" stroke-width="1" />
<rect x="1049.17" y="163.62" width="8.32" height="26.39" fill="#ef4444" opacity="0.85" />
<line x1="1068.46" y1="195.91" x2="1068.46" y2="234.24" stroke="#ef4444" stroke-width="1" />
<rect x="1064.30" y="196.67" width="8.32" height="18.22" fill="#ef4444" opacity="0.85" />
<line x1="1083.59" y1="199.31" x2="1083.59" y2="223.06" stroke="#22c55e" stroke-width="1" />
<rect x="1079.43" y="206.22" width="8.32" height="15.46" fill="#22c55e" opacity="0.85" />
<line x1="1098.72" y1="189.25" x2="1098.72" y2="208.86" stroke="#22c55e" stroke-width="1" />
<rect x="1094.56" y="195.91" width="8.32" height="9.30" fill="#22c55e" opacity="0.85" />
<line x1="1113.85" y1="169.77" x2="1113.85" y2="195.91" stroke="#ef4444" stroke-width="1" />
<rect x="1109.69" y="176.94" width="8.32" height="8.17" fill="#ef4444" opacity="0.85" />
<line x1="1128.97" y1="160.85" x2="1128.97" y2="197.80" stroke="#22c55e" stroke-width="1" />
<rect x="1124.81" y="187.12" width="8.32" height="7.16" fill="#22c55e" opacity="0.85" />
<line x1="1144.10" y1="170.78" x2="1144.10" y2="204.59" stroke="#ef4444" stroke-width="1" />
<rect x="1139.94" y="182.72" width="8.32" height="12.69" fill="#ef4444" opacity="0.85" />
<line x1="1159.23" y1="144.14" x2="1159.23" y2="180.58" stroke="#22c55e" stroke-width="1" />
<rect x="1155.07" y="152.81" width="8.32" height="16.09" fill="#22c55e" opacity="0.85" />
<line x1="1174.36" y1="154.91" x2="1174.36" y2="195.86" stroke="#ef4444" stroke-width="1" />
<rect x="1170.20" y="162.35" width="8.32" height="26.71" fill="#ef4444" opacity="0.85" />
<line x1="1189.49" y1="176.59" x2="1189.49" y2="199.52" stroke="#ef4444" stroke-width="1" />
<rect x="1185.33" y="187.30" width="8.32" height="1.64" fill="#ef4444" opacity="0.85" />
<line x1="1204.62" y1="193.22" x2="1204.62" y2="228.88" stroke="#ef4444" stroke-width="1" />
<rect x="1200.46" y="197.50" width="8.32" height="5.04" fill="#ef4444" opacity="0.85" />
<line x1="1219.74" y1="169.91" x2="1219.74" y2="213.50" stroke="#ef4444" stroke-width="1" />
<rect x="1215.58" y="190.32" width="8.32" height="21.67" fill="#ef4444" opacity="0.85" />
<line x1="1234.87" y1="220.43" x2="1234.87" y2="260.50" stroke="#ef4444" stroke-width="1" />
<rect x="1230.71" y="226.48" width="8.32" height="32.64" fill="#ef4444" opacity="0.85" />
<line x1="1250.00" y1="248.41" x2="1250.00" y2="274.99" stroke="#ef4444" stroke-width="1" />
<rect x="1245.84" y="257.73" width="8.32" height="13.99" fill="#ef4444" opacity="0.85" />
<polyline points="236.41,215.44 312.05,338.07 372.56,229.86 448.21,322.77 690.26,74.48 962.56,273.33 1023.08,135.97 1068.46,234.24 1159.23,144.14" fill="none" stroke="#64748b" stroke-width="1.8" opacity="0.9" />
<circle cx="236.41" cy="215.44" r="3.30" fill="#f97316" stroke="#0f172a" stroke-width="1.1" />
<circle cx="312.05" cy="338.07" r="3.30" fill="#38bdf8" stroke="#0f172a" stroke-width="1.1" />
<circle cx="372.56" cy="229.86" r="5.50" fill="#f97316" stroke="#f8fafc" stroke-width="1.8" />
<circle cx="448.21" cy="322.77" r="5.50" fill="#38bdf8" stroke="#f8fafc" stroke-width="1.8" />
<circle cx="690.26" cy="74.48" r="5.50" fill="#f97316" stroke="#f8fafc" stroke-width="1.8" />
<circle cx="962.56" cy="273.33" r="5.50" fill="#38bdf8" stroke="#f8fafc" stroke-width="1.8" />
<circle cx="1023.08" cy="135.97" r="5.50" fill="#f97316" stroke="#f8fafc" stroke-width="1.8" />
<circle cx="1068.46" cy="234.24" r="3.30" fill="#38bdf8" stroke="#0f172a" stroke-width="1.1" />
<circle cx="1159.23" cy="144.14" r="3.30" fill="#f97316" stroke="#0f172a" stroke-width="1.1" />
<text x="70" y="516" fill="#cbd5e1" font-size="12" font-family="monospace">2023-06-01</text>
<text x="1140" y="516" fill="#cbd5e1" font-size="12" font-family="monospace">2023-09-22</text>
<text x="70" y="532" fill="#94a3b8" font-size="12" font-family="monospace">entry=2023-09-06 fwd10=0.07091059277836725</text>
</svg>