<svg xmlns="http://www.w3.org/2000/svg" width="1280" height="540" viewBox="0 0 1280 540">
<rect width="100%" height="100%" fill="#081018" />
<rect x="368.73" y="44" width="657.22" height="442" fill="#17324d" opacity="0.18" />
<line x1="1055.82" y1="44" x2="1055.82" y2="486" stroke="#fde047" stroke-width="2" stroke-dasharray="6 4" />
<text x="70" y="24" fill="#e5e7eb" font-size="16" font-family="monospace">Top Family Inspection Snippet</text>
<text x="70" y="42" fill="#93c5fd" font-size="12" font-family="monospace">LTH|REVERSAL_UP|BOTH_BREAKS|DEEP_DOM</text>
<line x1="70.00" y1="194.46" x2="70.00" y2="266.56" stroke="#ef4444" stroke-width="1" />
<rect x="65.89" y="226.36" width="8.22" height="24.56" fill="#ef4444" opacity="0.85" />
<line x1="84.94" y1="166.93" x2="84.94" y2="232.93" stroke="#22c55e" stroke-width="1" />
<rect x="80.83" y="176.62" width="8.22" height="44.27" fill="#22c55e" opacity="0.85" />
<line x1="99.87" y1="152.69" x2="99.87" y2="210.41" stroke="#22c55e" stroke-width="1" />
<rect x="95.77" y="160.51" width="8.22" height="25.65" fill="#22c55e" opacity="0.85" />
<line x1="114.81" y1="128.45" x2="114.81" y2="159.26" stroke="#22c55e" stroke-width="1" />
<rect x="110.70" y="148.78" width="8.22" height="10.48" fill="#22c55e" opacity="0.85" />
<line x1="129.75" y1="97.95" x2="129.75" y2="147.84" stroke="#22c55e" stroke-width="1" />
<rect x="125.64" y="98.26" width="8.22" height="27.69" fill="#22c55e" opacity="0.85" />
<line x1="144.68" y1="74.48" x2="144.68" y2="100.45" stroke="#ef4444" stroke-width="1" />
<rect x="140.58" y="92.00" width="8.22" height="1.00" fill="#ef4444" opacity="0.85" />
<line x1="159.62" y1="87.31" x2="159.62" y2="147.06" stroke="#ef4444" stroke-width="1" />
<rect x="155.51" y="92.78" width="8.22" height="28.16" fill="#ef4444" opacity="0.85" />
<line x1="174.56" y1="100.76" x2="174.56" y2="147.06" stroke="#ef4444" stroke-width="1" />
<rect x="170.45" y="108.58" width="8.22" height="29.56" fill="#ef4444" opacity="0.85" />
<line x1="189.49" y1="122.82" x2="189.49" y2="162.86" stroke="#22c55e" stroke-width="1" />
<rect x="185.39" y="137.68" width="8.22" height="11.26" fill="#22c55e" opacity="0.85" />
<line x1="204.43" y1="98.88" x2="204.43" y2="132.36" stroke="#22c55e" stroke-width="1" />
<rect x="200.32" y="106.08" width="8.22" height="9.07" fill="#22c55e" opacity="0.85" />
<line x1="219.37" y1="95.29" x2="219.37" y2="150.35" stroke="#ef4444" stroke-width="1" />
<rect x="215.26" y="96.54" width="8.22" height="43.95" fill="#ef4444" opacity="0.85" />
<line x1="234.30" y1="136.27" x2="234.30" y2="223.71" stroke="#ef4444" stroke-width="1" />
<rect x="230.20" y="137.83" width="8.22" height="54.75" fill="#ef4444" opacity="0.85" />
<line x1="249.24" y1="179.91" x2="249.24" y2="256.08" stroke="#ef4444" stroke-width="1" />
<rect x="245.13" y="197.58" width="8.22" height="27.84" fill="#ef4444" opacity="0.85" />
<line x1="264.18" y1="220.42" x2="264.18" y2="317.87" stroke="#22c55e" stroke-width="1" />
<rect x="260.07" y="257.65" width="8.22" height="37.38" fill="#22c55e" opacity="0.85" />
<line x1="279.11" y1="183.35" x2="279.11" y2="232.00" stroke="#22c55e" stroke-width="1" />
<rect x="275.01" y="184.44" width="8.22" height="34.72" fill="#22c55e" opacity="0.85" />
<line x1="294.05" y1="176.47" x2="294.05" y2="213.07" stroke="#22c55e" stroke-width="1" />
<rect x="289.94" y="181.47" width="8.22" height="15.80" fill="#22c55e" opacity="0.85" />
<line x1="308.99" y1="194.46" x2="308.99" y2="249.51" stroke="#ef4444" stroke-width="1" />
<rect x="304.88" y="202.43" width="8.22" height="45.83" fill="#ef4444" opacity="0.85" />
<line x1="323.92" y1="216.04" x2="323.92" y2="306.92" stroke="#ef4444" stroke-width="1" />
<rect x="319.82" y="226.21" width="8.22" height="75.71" fill="#ef4444" opacity="0.85" />
<line x1="338.86" y1="298.94" x2="338.86" y2="363.39" stroke="#ef4444" stroke-width="1" />
<rect x="334.75" y="318.18" width="8.22" height="3.13" fill="#ef4444" opacity="0.85" />
<line x1="353.80" y1="286.12" x2="353.80" y2="370.74" stroke="#ef4444" stroke-width="1" />
<rect x="349.69" y="286.90" width="8.22" height="76.33" fill="#ef4444" opacity="0.85" />
<line x1="368.73" y1="371.05" x2="368.73" y2="455.52" stroke="#22c55e" stroke-width="1" />
<rect x="364.63" y="413.60" width="8.22" height="17.21" fill="#22c55e" opacity="0.85" />
<line x1="383.67" y1="295.66" x2="383.67" y2="420.95" stroke="#22c55e" stroke-width="1" />
<rect x="379.56" y="310.83" width="8.22" height="95.42" fill="#22c55e" opacity="0.85" />
<line x1="398.61" y1="249.51" x2="398.61" y2="294.25" stroke="#22c55e" stroke-width="1" />
<rect x="394.50" y="252.02" width="8.22" height="40.83" fill="#22c55e" opacity="0.85" />
<line x1="413.54" y1="254.05" x2="413.54" y2="322.09" stroke="#ef4444" stroke-width="1" />
<rect x="409.44" y="261.25" width="8.22" height="45.99" fill="#ef4444" opacity="0.85" />
<line x1="428.48" y1="285.02" x2="428.48" y2="332.57" stroke="#ef4444" stroke-width="1" />
<rect x="424.37" y="286.27" width="8.22" height="5.01" fill="#ef4444" opacity="0.85" />
<line x1="443.42" y1="252.17" x2="443.42" y2="297.53" stroke="#ef4444" stroke-width="1" />
<rect x="439.31" y="278.14" width="8.22" height="3.13" fill="#ef4444" opacity="0.85" />
<line x1="458.35" y1="298.63" x2="458.35" y2="356.50" stroke="#ef4444" stroke-width="1" />
<rect x="454.25" y="299.73" width="8.22" height="21.74" fill="#ef4444" opacity="0.85" />
<line x1="473.29" y1="243.73" x2="473.29" y2="324.91" stroke="#22c55e" stroke-width="1" />
<rect x="469.18" y="271.41" width="8.22" height="28.47" fill="#22c55e" opacity="0.85" />
<line x1="488.23" y1="214.79" x2="488.23" y2="250.77" stroke="#ef4444" stroke-width="1" />
<rect x="484.12" y="240.60" width="8.22" height="4.22" fill="#ef4444" opacity="0.85" />
<line x1="503.16" y1="220.89" x2="503.16" y2="279.86" stroke="#ef4444" stroke-width="1" />
<rect x="499.06" y="258.43" width="8.22" height="9.38" fill="#ef4444" opacity="0.85" />
<line x1="518.10" y1="213.07" x2="518.10" y2="289.87" stroke="#ef4444" stroke-width="1" />
<rect x="513.99" y="245.60" width="8.22" height="39.42" fill="#ef4444" opacity="0.85" />
<line x1="533.04" y1="266.72" x2="533.04" y2="329.60" stroke="#22c55e" stroke-width="1" />
<rect x="528.93" y="270.79" width="8.22" height="3.75" fill="#22c55e" opacity="0.85" />
<line x1="547.97" y1="265.47" x2="547.97" y2="317.24" stroke="#ef4444" stroke-width="1" />
<rect x="543.87" y="298.32" width="8.22" height="15.49" fill="#ef4444" opacity="0.85" />
<line x1="562.91" y1="246.07" x2="562.91" y2="304.89" stroke="#22c55e" stroke-width="1" />
<rect x="558.80" y="252.49" width="8.22" height="45.99" fill="#22c55e" opacity="0.85" />
<line x1="577.85" y1="202.75" x2="577.85" y2="250.77" stroke="#ef4444" stroke-width="1" />
<rect x="573.74" y="225.58" width="8.22" height="5.63" fill="#ef4444" opacity="0.85" />
<line x1="592.78" y1="234.34" x2="592.78" y2="265.31" stroke="#ef4444" stroke-width="1" />
<rect x="588.68" y="238.57" width="8.22" height="11.89" fill="#ef4444" opacity="0.85" />
<line x1="607.72" y1="233.87" x2="607.72" y2="265.63" stroke="#ef4444" stroke-width="1" />
<rect x="603.61" y="242.95" width="8.22" height="1.00" fill="#ef4444" opacity="0.85" />
<line x1="622.66" y1="225.90" x2="622.66" y2="276.89" stroke="#22c55e" stroke-width="1" />
<rect x="618.55" y="226.52" width="8.22" height="10.48" fill="#22c55e" opacity="0.85" />
<line x1="637.59" y1="224.17" x2="637.59" y2="257.49" stroke="#ef4444" stroke-width="1" />
<rect x="633.49" y="225.43" width="8.22" height="9.38" fill="#ef4444" opacity="0.85" />
<line x1="652.53" y1="232.62" x2="652.53" y2="273.29" stroke="#ef4444" stroke-width="1" />
<rect x="648.42" y="237.63" width="8.22" height="28.94" fill="#ef4444" opacity="0.85" />
<line x1="667.47" y1="280.17" x2="667.47" y2="321.00" stroke="#ef4444" stroke-width="1" />
<rect x="663.36" y="287.84" width="8.22" height="10.95" fill="#ef4444" opacity="0.85" />
<line x1="682.41" y1="324.28" x2="682.41" y2="382.00" stroke="#ef4444" stroke-width="1" />
<rect x="678.30" y="336.48" width="8.22" height="4.07" fill="#ef4444" opacity="0.85" />
<line x1="697.34" y1="314.90" x2="697.34" y2="372.30" stroke="#ef4444" stroke-width="1" />
<rect x="693.23" y="345.24" width="8.22" height="24.87" fill="#ef4444" opacity="0.85" />
<line x1="712.28" y1="376.99" x2="712.28" y2="430.02" stroke="#ef4444" stroke-width="1" />
<rect x="708.17" y="402.65" width="8.22" height="7.66" fill="#ef4444" opacity="0.85" />
<line x1="727.22" y1="346.49" x2="727.22" y2="418.45" stroke="#22c55e" stroke-width="1" />
<rect x="723.11" y="354.31" width="8.22" height="53.49" fill="#22c55e" opacity="0.85" />
<line x1="742.15" y1="285.18" x2="742.15" y2="324.28" stroke="#22c55e" stroke-width="1" />
<rect x="738.04" y="290.18" width="8.22" height="33.47" fill="#22c55e" opacity="0.85" />
<line x1="757.09" y1="254.21" x2="757.09" y2="289.09" stroke="#22c55e" stroke-width="1" />
<rect x="752.98" y="256.40" width="8.22" height="22.84" fill="#22c55e" opacity="0.85" />
<line x1="772.03" y1="222.14" x2="772.03" y2="270.94" stroke="#22c55e" stroke-width="1" />
<rect x="767.92" y="244.20" width="8.22" height="12.36" fill="#22c55e" opacity="0.85" />
<line x1="786.96" y1="234.81" x2="786.96" y2="288.31" stroke="#ef4444" stroke-width="1" />
<rect x="782.85" y="250.77" width="8.22" height="30.35" fill="#ef4444" opacity="0.85" />
<line x1="801.90" y1="174.28" x2="801.90" y2="275.32" stroke="#22c55e" stroke-width="1" />
<rect x="797.79" y="183.98" width="8.22" height="90.10" fill="#22c55e" opacity="0.85" />
<line x1="816.84" y1="169.27" x2="816.84" y2="206.34" stroke="#ef4444" stroke-width="1" />
<rect x="812.73" y="170.84" width="8.22" height="27.69" fill="#ef4444" opacity="0.85" />
<line x1="831.77" y1="180.85" x2="831.77" y2="216.51" stroke="#22c55e" stroke-width="1" />
<rect x="827.66" y="191.64" width="8.22" height="10.64" fill="#22c55e" opacity="0.85" />
<line x1="846.71" y1="155.35" x2="846.71" y2="208.06" stroke="#22c55e" stroke-width="1" />
<rect x="842.60" y="167.86" width="8.22" height="9.54" fill="#22c55e" opacity="0.85" />
<line x1="861.65" y1="130.32" x2="861.65" y2="165.36" stroke="#22c55e" stroke-width="1" />
<rect x="857.54" y="143.15" width="8.22" height="10.79" fill="#22c55e" opacity="0.85" />
<line x1="876.58" y1="143.93" x2="876.58" y2="171.77" stroke="#ef4444" stroke-width="1" />
<rect x="872.47" y="155.19" width="8.22" height="4.54" fill="#ef4444" opacity="0.85" />
<line x1="891.52" y1="143.46" x2="891.52" y2="186.48" stroke="#ef4444" stroke-width="1" />
<rect x="887.41" y="163.49" width="8.22" height="20.80" fill="#ef4444" opacity="0.85" />
<line x1="906.46" y1="190.86" x2="906.46" y2="243.10" stroke="#ef4444" stroke-width="1" />
<rect x="902.35" y="196.49" width="8.22" height="26.43" fill="#ef4444" opacity="0.85" />
<line x1="921.39" y1="185.85" x2="921.39" y2="237.94" stroke="#22c55e" stroke-width="1" />
<rect x="917.28" y="224.64" width="8.22" height="4.22" fill="#22c55e" opacity="0.85" />
<line x1="936.33" y1="201.49" x2="936.33" y2="260.46" stroke="#ef4444" stroke-width="1" />
<rect x="932.22" y="203.53" width="8.22" height="55.37" fill="#ef4444" opacity="0.85" />
<line x1="951.27" y1="231.37" x2="951.27" y2="280.33" stroke="#ef4444" stroke-width="1" />
<rect x="947.16" y="234.03" width="8.22" height="5.16" fill="#ef4444" opacity="0.85" />
<line x1="966.20" y1="225.27" x2="966.20" y2="298.79" stroke="#ef4444" stroke-width="1" />
<rect x="962.09" y="225.58" width="8.22" height="58.03" fill="#ef4444" opacity="0.85" />
<line x1="981.14" y1="241.38" x2="981.14" y2="292.69" stroke="#22c55e" stroke-width="1" />
<rect x="977.03" y="252.49" width="8.22" height="31.44" fill="#22c55e" opacity="0.85" />
<line x1="996.08" y1="232.00" x2="996.08" y2="280.17" stroke="#ef4444" stroke-width="1" />
<rect x="991.97" y="248.89" width="8.22" height="1.09" fill="#ef4444" opacity="0.85" />
<line x1="1011.01" y1="236.84" x2="1011.01" y2="274.23" stroke="#22c55e" stroke-width="1" />
<rect x="1006.91" y="245.45" width="8.22" height="13.45" fill="#22c55e" opacity="0.85" />
<line x1="1025.95" y1="300.04" x2="1025.95" y2="374.65" stroke="#ef4444" stroke-width="1" />
<rect x="1021.84" y="324.13" width="8.22" height="4.07" fill="#ef4444" opacity="0.85" />
<line x1="1040.89" y1="295.35" x2="1040.89" y2="349.62" stroke="#ef4444" stroke-width="1" />
<rect x="1036.78" y="303.48" width="8.22" height="19.55" fill="#ef4444" opacity="0.85" />
<line x1="1055.82" y1="244.35" x2="1055.82" y2="301.91" stroke="#22c55e" stroke-width="1" />
<rect x="1051.72" y="270.16" width="8.22" height="31.60" fill="#22c55e" opacity="0.85" />
<line x1="1070.76" y1="195.86" x2="1070.76" y2="259.84" stroke="#22c55e" stroke-width="1" />
<rect x="1066.65" y="209.00" width="8.22" height="41.14" fill="#22c55e" opacity="0.85" />
<line x1="1085.70" y1="205.41" x2="1085.70" y2="244.95" stroke="#22c55e" stroke-width="1" />
<rect x="1081.59" y="225.96" width="8.22" height="1.00" fill="#22c55e" opacity="0.85" />
<line x1="1100.63" y1="153.32" x2="1100.63" y2="218.43" stroke="#22c55e" stroke-width="1" />
<rect x="1096.53" y="172.78" width="8.22" height="44.24" fill="#22c55e" opacity="0.85" />
<line x1="1115.57" y1="185.95" x2="1115.57" y2="260.48" stroke="#ef4444" stroke-width="1" />
<rect x="1111.46" y="188.94" width="8.22" height="64.64" fill="#ef4444" opacity="0.85" />
<line x1="1130.51" y1="232.08" x2="1130.51" y2="271.15" stroke="#ef4444" stroke-width="1" />
<rect x="1126.40" y="238.20" width="8.22" height="22.75" fill="#ef4444" opacity="0.85" />
<line x1="1145.44" y1="232.87" x2="1145.44" y2="295.78" stroke="#ef4444" stroke-width="1" />
<rect x="1141.34" y="240.55" width="8.22" height="52.87" fill="#ef4444" opacity="0.85" />
<line x1="1160.38" y1="218.90" x2="1160.38" y2="309.27" stroke="#22c55e" stroke-width="1" />
<rect x="1156.27" y="238.04" width="8.22" height="36.56" fill="#22c55e" opacity="0.85" />
<line x1="1175.32" y1="237.42" x2="1175.32" y2="290.60" stroke="#ef4444" stroke-width="1" />
<rect x="1171.21" y="240.24" width="8.22" height="29.50" fill="#ef4444" opacity="0.85" />
<line x1="1190.25" y1="225.81" x2="1190.25" y2="275.70" stroke="#22c55e" stroke-width="1" />
<rect x="1186.15" y="257.81" width="8.22" height="1.00" fill="#22c55e" opacity="0.85" />
<line x1="1205.19" y1="270.68" x2="1205.19" y2="324.65" stroke="#22c55e" stroke-width="1" />
<rect x="1201.08" y="275.85" width="8.22" height="17.42" fill="#22c55e" opacity="0.85" />
<line x1="1220.13" y1="196.15" x2="1220.13" y2="252.32" stroke="#22c55e" stroke-width="1" />
<rect x="1216.02" y="222.67" width="8.22" height="27.14" fill="#22c55e" opacity="0.85" />
<line x1="1235.06" y1="209.33" x2="1235.06" y2="250.28" stroke="#ef4444" stroke-width="1" />
<rect x="1230.96" y="220.63" width="8.22" height="28.40" fill="#ef4444" opacity="0.85" />
<line x1="1250.00" y1="218.12" x2="1250.00" y2="269.89" stroke="#ef4444" stroke-width="1" />
<rect x="1245.89" y="245.10" width="8.22" height="23.85" fill="#ef4444" opacity="0.85" />
<polyline points="70.00,266.56 144.68,74.48 264.18,317.87 294.05,176.47 368.73,455.52 577.85,202.75 712.28,430.02 861.65,130.32 1025.95,374.65 1100.63,153.32 1205.19,324.65" fill="none" stroke="#64748b" stroke-width="1.8" opacity="0.9" />
<circle cx="70.00" cy="266.56" r="3.30" fill="#38bdf8" stroke="#0f172a" stroke-width="1.1" />
<circle cx="144.68" cy="74.48" r="3.30" fill="#f97316" stroke="#0f172a" stroke-width="1.1" />
<circle cx="264.18" cy="317.87" r="3.30" fill="#38bdf8" stroke="#0f172a" stroke-width="1.1" />
<circle cx="294.05" cy="176.47" r="3.30" fill="#f97316" stroke="#0f172a" stroke-width="1.1" />
<circle cx="368.73" cy="455.52" r="5.50" fill="#38bdf8" stroke="#f8fafc" stroke-width="1.8" />
<circle cx="577.85" cy="202.75" r="5.50" fill="#f97316" stroke="#f8fafc" stroke-width="1.8" />
<circle cx="712.28" cy="430.02" r="5.50" fill="#38bdf8" stroke="#f8fafc" stroke-width="1.8" />
<circle cx="861.65" cy="130.32" r="5.50" fill="#f97316" stroke="#f8fafc" stroke-width="1.8" />
<circle cx="1025.95" cy="374.65" r="5.50" fill="#38bdf8" stroke="#f8fafc" stroke-width="1.8" />
<circle cx="1100.63" cy="153.32" r="3.30" fill="#f97316" stroke="#0f172a" stroke-width="1.1" />
<circle cx="1205.19" cy="324.65" r="3.30" fill="#38bdf8" stroke="#0f172a" stroke-width="1.1" />
<text x="70" y="516" fill="#cbd5e1" font-size="12" font-family="monospace">2021-06-18</text>
<text x="1140" y="516" fill="#cbd5e1" font-size="12" font-family="monospace">2021-10-11</text>
<text x="70" y="532" fill="#94a3b8" font-size="12" font-family="monospace">entry=2021-09-22 fwd10=-0.09551945196103084</text>
</svg>