<svg xmlns="http://www.w3.org/2000/svg" width="1280" height="540" viewBox="0 0 1280 540">
<rect width="100%" height="100%" fill="#081018" />
<rect x="551.63" y="44" width="337.14" height="442" fill="#17324d" opacity="0.18" />
<line x1="985.10" y1="44" x2="985.10" y2="486" stroke="#fde047" stroke-width="2" stroke-dasharray="6 4" />
<text x="70" y="24" fill="#e5e7eb" font-size="16" font-family="monospace">Top Family Inspection Snippet</text>
<text x="70" y="42" fill="#93c5fd" font-size="12" font-family="monospace">LTH|CONTINUATION_DOWN|LL_ONLY|DEEP_DOM</text>
<line x1="70.00" y1="94.18" x2="70.00" y2="113.65" stroke="#ef4444" stroke-width="1" />
<rect x="63.38" y="94.86" width="13.24" height="1.76" fill="#ef4444" opacity="0.85" />
<line x1="94.08" y1="78.63" x2="94.08" y2="99.59" stroke="#22c55e" stroke-width="1" />
<rect x="87.46" y="79.13" width="13.24" height="16.54" fill="#22c55e" opacity="0.85" />
<line x1="118.16" y1="74.48" x2="118.16" y2="110.59" stroke="#ef4444" stroke-width="1" />
<rect x="111.54" y="86.25" width="13.24" height="18.89" fill="#ef4444" opacity="0.85" />
<line x1="142.24" y1="114.60" x2="142.24" y2="139.21" stroke="#ef4444" stroke-width="1" />
<rect x="135.62" y="123.80" width="13.24" height="1.67" fill="#ef4444" opacity="0.85" />
<line x1="166.33" y1="106.67" x2="166.33" y2="138.94" stroke="#22c55e" stroke-width="1" />
<rect x="159.70" y="115.32" width="13.24" height="14.33" fill="#22c55e" opacity="0.85" />
<line x1="190.41" y1="106.94" x2="190.41" y2="128.08" stroke="#ef4444" stroke-width="1" />
<rect x="183.79" y="118.93" width="13.24" height="1.80" fill="#ef4444" opacity="0.85" />
<line x1="214.49" y1="132.32" x2="214.49" y2="157.60" stroke="#ef4444" stroke-width="1" />
<rect x="207.87" y="136.33" width="13.24" height="18.89" fill="#ef4444" opacity="0.85" />
<line x1="238.57" y1="128.94" x2="238.57" y2="169.96" stroke="#ef4444" stroke-width="1" />
<rect x="231.95" y="140.97" width="13.24" height="21.59" fill="#ef4444" opacity="0.85" />
<line x1="262.65" y1="136.33" x2="262.65" y2="164.59" stroke="#22c55e" stroke-width="1" />
<rect x="256.03" y="139.93" width="13.24" height="23.80" fill="#22c55e" opacity="0.85" />
<line x1="286.73" y1="133.53" x2="286.73" y2="165.31" stroke="#ef4444" stroke-width="1" />
<rect x="280.11" y="138.85" width="13.24" height="25.96" fill="#ef4444" opacity="0.85" />
<line x1="310.82" y1="155.98" x2="310.82" y2="174.64" stroke="#22c55e" stroke-width="1" />
<rect x="304.19" y="164.01" width="13.24" height="5.23" fill="#22c55e" opacity="0.85" />
<line x1="334.90" y1="128.71" x2="334.90" y2="165.31" stroke="#22c55e" stroke-width="1" />
<rect x="328.28" y="132.14" width="13.24" height="32.37" fill="#22c55e" opacity="0.85" />
<line x1="358.98" y1="120.73" x2="358.98" y2="139.17" stroke="#ef4444" stroke-width="1" />
<rect x="352.36" y="123.66" width="13.24" height="9.96" fill="#ef4444" opacity="0.85" />
<line x1="383.06" y1="109.73" x2="383.06" y2="167.93" stroke="#ef4444" stroke-width="1" />
<rect x="376.44" y="116.36" width="13.24" height="47.24" fill="#ef4444" opacity="0.85" />
<line x1="407.14" y1="163.51" x2="407.14" y2="220.49" stroke="#ef4444" stroke-width="1" />
<rect x="400.52" y="168.78" width="13.24" height="49.00" fill="#ef4444" opacity="0.85" />
<line x1="431.22" y1="205.84" x2="431.22" y2="250.24" stroke="#22c55e" stroke-width="1" />
<rect x="424.60" y="206.65" width="13.24" height="21.82" fill="#22c55e" opacity="0.85" />
<line x1="455.31" y1="217.78" x2="455.31" y2="262.72" stroke="#ef4444" stroke-width="1" />
<rect x="448.68" y="218.73" width="13.24" height="43.86" fill="#ef4444" opacity="0.85" />
<line x1="479.39" y1="231.85" x2="479.39" y2="267.50" stroke="#22c55e" stroke-width="1" />
<rect x="472.77" y="257.31" width="13.24" height="1.00" fill="#22c55e" opacity="0.85" />
<line x1="503.47" y1="201.55" x2="503.47" y2="255.83" stroke="#22c55e" stroke-width="1" />
<rect x="496.85" y="209.80" width="13.24" height="24.88" fill="#22c55e" opacity="0.85" />
<line x1="527.55" y1="218.55" x2="527.55" y2="284.63" stroke="#ef4444" stroke-width="1" />
<rect x="520.93" y="228.83" width="13.24" height="52.24" fill="#ef4444" opacity="0.85" />
<line x1="551.63" y1="263.40" x2="551.63" y2="312.53" stroke="#22c55e" stroke-width="1" />
<rect x="545.01" y="269.89" width="13.24" height="10.86" fill="#22c55e" opacity="0.85" />
<line x1="575.71" y1="249.83" x2="575.71" y2="274.94" stroke="#22c55e" stroke-width="1" />
<rect x="569.09" y="261.33" width="13.24" height="6.18" fill="#22c55e" opacity="0.85" />
<line x1="599.80" y1="201.46" x2="599.80" y2="273.36" stroke="#22c55e" stroke-width="1" />
<rect x="593.17" y="204.17" width="13.24" height="54.00" fill="#22c55e" opacity="0.85" />
<line x1="623.88" y1="222.47" x2="623.88" y2="292.61" stroke="#ef4444" stroke-width="1" />
<rect x="617.26" y="224.50" width="13.24" height="48.41" fill="#ef4444" opacity="0.85" />
<line x1="647.96" y1="268.45" x2="647.96" y2="309.33" stroke="#22c55e" stroke-width="1" />
<rect x="641.34" y="284.05" width="13.24" height="1.08" fill="#22c55e" opacity="0.85" />
<line x1="672.04" y1="306.27" x2="672.04" y2="350.94" stroke="#ef4444" stroke-width="1" />
<rect x="665.42" y="312.17" width="13.24" height="31.24" fill="#ef4444" opacity="0.85" />
<line x1="696.12" y1="307.76" x2="696.12" y2="358.51" stroke="#ef4444" stroke-width="1" />
<rect x="689.50" y="314.92" width="13.24" height="24.34" fill="#ef4444" opacity="0.85" />
<line x1="720.20" y1="316.95" x2="720.20" y2="371.40" stroke="#ef4444" stroke-width="1" />
<rect x="713.58" y="343.86" width="13.24" height="23.98" fill="#ef4444" opacity="0.85" />
<line x1="744.29" y1="354.09" x2="744.29" y2="402.10" stroke="#22c55e" stroke-width="1" />
<rect x="737.66" y="369.69" width="13.24" height="13.39" fill="#22c55e" opacity="0.85" />
<line x1="768.37" y1="320.83" x2="768.37" y2="354.95" stroke="#22c55e" stroke-width="1" />
<rect x="761.74" y="327.41" width="13.24" height="22.58" fill="#22c55e" opacity="0.85" />
<line x1="792.45" y1="317.27" x2="792.45" y2="345.98" stroke="#22c55e" stroke-width="1" />
<rect x="785.83" y="334.76" width="13.24" height="1.00" fill="#22c55e" opacity="0.85" />
<line x1="816.53" y1="296.53" x2="816.53" y2="323.53" stroke="#22c55e" stroke-width="1" />
<rect x="809.91" y="297.66" width="13.24" height="8.07" fill="#22c55e" opacity="0.85" />
<line x1="840.61" y1="318.03" x2="840.61" y2="377.76" stroke="#ef4444" stroke-width="1" />
<rect x="833.99" y="319.39" width="13.24" height="52.47" fill="#ef4444" opacity="0.85" />
<line x1="864.69" y1="361.58" x2="864.69" y2="393.27" stroke="#22c55e" stroke-width="1" />
<rect x="858.07" y="382.67" width="13.24" height="3.79" fill="#22c55e" opacity="0.85" />
<line x1="888.78" y1="348.55" x2="888.78" y2="422.88" stroke="#ef4444" stroke-width="1" />
<rect x="882.15" y="365.59" width="13.24" height="16.32" fill="#ef4444" opacity="0.85" />
<line x1="912.86" y1="345.39" x2="912.86" y2="378.53" stroke="#22c55e" stroke-width="1" />
<rect x="906.23" y="349.05" width="13.24" height="18.44" fill="#22c55e" opacity="0.85" />
<line x1="936.94" y1="357.02" x2="936.94" y2="393.94" stroke="#22c55e" stroke-width="1" />
<rect x="930.32" y="362.70" width="13.24" height="6.00" fill="#22c55e" opacity="0.85" />
<line x1="961.02" y1="337.64" x2="961.02" y2="371.72" stroke="#22c55e" stroke-width="1" />
<rect x="954.40" y="347.02" width="13.24" height="22.81" fill="#22c55e" opacity="0.85" />
<line x1="985.10" y1="303.43" x2="985.10" y2="342.15" stroke="#22c55e" stroke-width="1" />
<rect x="978.48" y="311.23" width="13.24" height="29.93" fill="#22c55e" opacity="0.85" />
<line x1="1009.18" y1="265.83" x2="1009.18" y2="300.45" stroke="#22c55e" stroke-width="1" />
<rect x="1002.56" y="266.37" width="13.24" height="33.13" fill="#22c55e" opacity="0.85" />
<line x1="1033.27" y1="260.97" x2="1033.27" y2="289.95" stroke="#ef4444" stroke-width="1" />
<rect x="1026.64" y="274.08" width="13.24" height="2.79" fill="#ef4444" opacity="0.85" />
<line x1="1057.35" y1="261.96" x2="1057.35" y2="303.92" stroke="#ef4444" stroke-width="1" />
<rect x="1050.72" y="266.78" width="13.24" height="25.15" fill="#ef4444" opacity="0.85" />
<line x1="1081.43" y1="256.55" x2="1081.43" y2="303.43" stroke="#22c55e" stroke-width="1" />
<rect x="1074.81" y="256.77" width="13.24" height="35.93" fill="#22c55e" opacity="0.85" />
<line x1="1105.51" y1="271.87" x2="1105.51" y2="292.29" stroke="#ef4444" stroke-width="1" />
<rect x="1098.89" y="279.27" width="13.24" height="8.38" fill="#ef4444" opacity="0.85" />
<line x1="1129.59" y1="260.29" x2="1129.59" y2="287.61" stroke="#ef4444" stroke-width="1" />
<rect x="1122.97" y="268.54" width="13.24" height="13.48" fill="#ef4444" opacity="0.85" />
<line x1="1153.67" y1="262.05" x2="1153.67" y2="300.86" stroke="#22c55e" stroke-width="1" />
<rect x="1147.05" y="264.21" width="13.24" height="34.44" fill="#22c55e" opacity="0.85" />
<line x1="1177.76" y1="263.85" x2="1177.76" y2="288.37" stroke="#ef4444" stroke-width="1" />
<rect x="1171.13" y="272.37" width="13.24" height="12.22" fill="#ef4444" opacity="0.85" />
<line x1="1201.84" y1="282.24" x2="1201.84" y2="328.67" stroke="#ef4444" stroke-width="1" />
<rect x="1195.21" y="293.06" width="13.24" height="35.61" fill="#ef4444" opacity="0.85" />
<line x1="1225.92" y1="354.18" x2="1225.92" y2="381.37" stroke="#ef4444" stroke-width="1" />
<rect x="1219.30" y="358.24" width="13.24" height="22.90" fill="#ef4444" opacity="0.85" />
<line x1="1250.00" y1="417.16" x2="1250.00" y2="455.52" stroke="#ef4444" stroke-width="1" />
<rect x="1243.38" y="425.99" width="13.24" height="21.86" fill="#ef4444" opacity="0.85" />
<polyline points="551.63,312.53 599.80,201.46 744.29,402.10 816.53,296.53 888.78,422.88 1081.43,256.55" fill="none" stroke="#64748b" stroke-width="1.8" opacity="0.9" />
<circle cx="551.63" cy="312.53" r="5.50" fill="#38bdf8" stroke="#f8fafc" stroke-width="1.8" />
<circle cx="599.80" cy="201.46" r="5.50" fill="#f97316" stroke="#f8fafc" stroke-width="1.8" />
<circle cx="744.29" cy="402.10" r="5.50" fill="#38bdf8" stroke="#f8fafc" stroke-width="1.8" />
<circle cx="816.53" cy="296.53" r="5.50" fill="#f97316" stroke="#f8fafc" stroke-width="1.8" />
<circle cx="888.78" cy="422.88" r="5.50" fill="#38bdf8" stroke="#f8fafc" stroke-width="1.8" />
<circle cx="1081.43" cy="256.55" r="3.30" fill="#f97316" stroke="#0f172a" stroke-width="1.1" />
<text x="70" y="516" fill="#cbd5e1" font-size="12" font-family="monospace">2022-04-01</text>
<text x="1140" y="516" fill="#cbd5e1" font-size="12" font-family="monospace">2022-06-13</text>
<text x="70" y="532" fill="#94a3b8" font-size="12" font-family="monospace">entry=2022-05-26 fwd10=-1.4962510533905462</text>
</svg>