<svg xmlns="http://www.w3.org/2000/svg" width="1280" height="540" viewBox="0 0 1280 540">
<rect width="100%" height="100%" fill="#081018" />
<rect x="372.56" y="44" width="650.51" height="442" fill="#17324d" opacity="0.18" />
<line x1="1053.33" y1="44" x2="1053.33" y2="486" stroke="#fde047" stroke-width="2" stroke-dasharray="6 4" />
<text x="70" y="24" fill="#e5e7eb" font-size="16" font-family="monospace">Top Family Inspection Snippet</text>
<text x="70" y="42" fill="#93c5fd" font-size="12" font-family="monospace">HTL|REVERSAL_UP|BOTH_BREAKS|DEEP_DOM</text>
<line x1="70.00" y1="281.00" x2="70.00" y2="353.40" stroke="#ef4444" stroke-width="1" />
<rect x="65.84" y="299.08" width="8.32" height="12.03" fill="#ef4444" opacity="0.85" />
<line x1="85.13" y1="270.18" x2="85.13" y2="356.29" stroke="#ef4444" stroke-width="1" />
<rect x="80.97" y="291.69" width="8.32" height="34.42" fill="#ef4444" opacity="0.85" />
<line x1="100.26" y1="289.00" x2="100.26" y2="350.44" stroke="#22c55e" stroke-width="1" />
<rect x="96.10" y="299.62" width="8.32" height="40.20" fill="#22c55e" opacity="0.85" />
<line x1="115.38" y1="239.99" x2="115.38" y2="278.51" stroke="#22c55e" stroke-width="1" />
<rect x="111.22" y="248.46" width="8.32" height="29.58" fill="#22c55e" opacity="0.85" />
<line x1="130.51" y1="240.53" x2="130.51" y2="263.39" stroke="#ef4444" stroke-width="1" />
<rect x="126.35" y="247.79" width="8.32" height="1.75" fill="#ef4444" opacity="0.85" />
<line x1="145.64" y1="249.34" x2="145.64" y2="327.79" stroke="#ef4444" stroke-width="1" />
<rect x="141.48" y="253.30" width="8.32" height="35.83" fill="#ef4444" opacity="0.85" />
<line x1="160.77" y1="249.61" x2="160.77" y2="295.66" stroke="#22c55e" stroke-width="1" />
<rect x="156.61" y="254.92" width="8.32" height="38.12" fill="#22c55e" opacity="0.85" />
<line x1="175.90" y1="202.21" x2="175.90" y2="224.33" stroke="#22c55e" stroke-width="1" />
<rect x="171.74" y="211.09" width="8.32" height="7.46" fill="#22c55e" opacity="0.85" />
<line x1="191.03" y1="134.11" x2="191.03" y2="164.50" stroke="#22c55e" stroke-width="1" />
<rect x="186.87" y="137.20" width="8.32" height="24.00" fill="#22c55e" opacity="0.85" />
<line x1="206.15" y1="92.90" x2="206.15" y2="129.41" stroke="#22c55e" stroke-width="1" />
<rect x="201.99" y="104.74" width="8.32" height="17.21" fill="#22c55e" opacity="0.85" />
<line x1="221.28" y1="77.24" x2="221.28" y2="122.68" stroke="#22c55e" stroke-width="1" />
<rect x="217.12" y="85.58" width="8.32" height="1.21" fill="#22c55e" opacity="0.85" />
<line x1="236.41" y1="100.84" x2="236.41" y2="151.66" stroke="#ef4444" stroke-width="1" />
<rect x="232.25" y="109.78" width="8.32" height="41.14" fill="#ef4444" opacity="0.85" />
<line x1="251.54" y1="96.13" x2="251.54" y2="146.62" stroke="#ef4444" stroke-width="1" />
<rect x="247.38" y="96.33" width="8.32" height="34.28" fill="#ef4444" opacity="0.85" />
<line x1="266.67" y1="85.24" x2="266.67" y2="125.37" stroke="#ef4444" stroke-width="1" />
<rect x="262.51" y="90.01" width="8.32" height="20.37" fill="#ef4444" opacity="0.85" />
<line x1="281.79" y1="144.87" x2="281.79" y2="201.94" stroke="#ef4444" stroke-width="1" />
<rect x="277.63" y="169.54" width="8.32" height="27.09" fill="#ef4444" opacity="0.85" />
<line x1="296.92" y1="147.22" x2="296.92" y2="210.35" stroke="#22c55e" stroke-width="1" />
<rect x="292.76" y="169.54" width="8.32" height="32.20" fill="#22c55e" opacity="0.85" />
<line x1="312.05" y1="177.88" x2="312.05" y2="256.80" stroke="#ef4444" stroke-width="1" />
<rect x="307.89" y="179.56" width="8.32" height="68.03" fill="#ef4444" opacity="0.85" />
<line x1="327.18" y1="259.15" x2="327.18" y2="334.98" stroke="#22c55e" stroke-width="1" />
<rect x="323.02" y="260.56" width="8.32" height="9.61" fill="#22c55e" opacity="0.85" />
<line x1="342.31" y1="162.62" x2="342.31" y2="212.50" stroke="#22c55e" stroke-width="1" />
<rect x="338.15" y="169.88" width="8.32" height="28.97" fill="#22c55e" opacity="0.85" />
<line x1="357.44" y1="173.31" x2="357.44" y2="208.26" stroke="#22c55e" stroke-width="1" />
<rect x="353.28" y="181.04" width="8.32" height="6.72" fill="#22c55e" opacity="0.85" />
<line x1="372.56" y1="158.92" x2="372.56" y2="206.31" stroke="#ef4444" stroke-width="1" />
<rect x="368.40" y="159.05" width="8.32" height="25.28" fill="#ef4444" opacity="0.85" />
<line x1="387.69" y1="204.23" x2="387.69" y2="285.17" stroke="#ef4444" stroke-width="1" />
<rect x="383.53" y="208.13" width="8.32" height="61.44" fill="#ef4444" opacity="0.85" />
<line x1="402.82" y1="236.30" x2="402.82" y2="345.07" stroke="#22c55e" stroke-width="1" />
<rect x="398.66" y="266.48" width="8.32" height="62.59" fill="#22c55e" opacity="0.85" />
<line x1="417.95" y1="242.14" x2="417.95" y2="326.91" stroke="#ef4444" stroke-width="1" />
<rect x="413.79" y="283.69" width="8.32" height="17.75" fill="#ef4444" opacity="0.85" />
<line x1="433.08" y1="310.51" x2="433.08" y2="384.26" stroke="#ef4444" stroke-width="1" />
<rect x="428.92" y="328.60" width="8.32" height="22.25" fill="#ef4444" opacity="0.85" />
<line x1="448.21" y1="284.63" x2="448.21" y2="362.41" stroke="#22c55e" stroke-width="1" />
<rect x="444.04" y="326.91" width="8.32" height="18.82" fill="#22c55e" opacity="0.85" />
<line x1="463.33" y1="231.72" x2="463.33" y2="428.56" stroke="#ef4444" stroke-width="1" />
<rect x="459.17" y="247.93" width="8.32" height="174.45" fill="#ef4444" opacity="0.85" />
<line x1="478.46" y1="346.34" x2="478.46" y2="455.52" stroke="#22c55e" stroke-width="1" />
<rect x="474.30" y="392.80" width="8.32" height="17.48" fill="#22c55e" opacity="0.85" />
<line x1="493.59" y1="281.13" x2="493.59" y2="358.58" stroke="#22c55e" stroke-width="1" />
<rect x="489.43" y="291.35" width="8.32" height="66.42" fill="#22c55e" opacity="0.85" />
<line x1="508.72" y1="257.07" x2="508.72" y2="344.06" stroke="#22c55e" stroke-width="1" />
<rect x="504.56" y="266.28" width="8.32" height="36.17" fill="#22c55e" opacity="0.85" />
<line x1="523.85" y1="217.20" x2="523.85" y2="256.19" stroke="#22c55e" stroke-width="1" />
<rect x="519.69" y="230.11" width="8.32" height="11.83" fill="#22c55e" opacity="0.85" />
<line x1="538.97" y1="196.16" x2="538.97" y2="222.38" stroke="#22c55e" stroke-width="1" />
<rect x="534.81" y="196.63" width="8.32" height="21.11" fill="#22c55e" opacity="0.85" />
<line x1="554.10" y1="195.35" x2="554.10" y2="241.87" stroke="#22c55e" stroke-width="1" />
<rect x="549.94" y="210.62" width="8.32" height="23.80" fill="#22c55e" opacity="0.85" />
<line x1="569.23" y1="166.38" x2="569.23" y2="207.79" stroke="#22c55e" stroke-width="1" />
<rect x="565.07" y="178.15" width="8.32" height="17.08" fill="#22c55e" opacity="0.85" />
<line x1="584.36" y1="163.22" x2="584.36" y2="204.83" stroke="#22c55e" stroke-width="1" />
<rect x="580.20" y="167.93" width="8.32" height="26.22" fill="#22c55e" opacity="0.85" />
<line x1="599.49" y1="158.38" x2="599.49" y2="194.68" stroke="#ef4444" stroke-width="1" />
<rect x="595.33" y="158.45" width="8.32" height="13.38" fill="#ef4444" opacity="0.85" />
<line x1="614.62" y1="131.63" x2="614.62" y2="166.65" stroke="#22c55e" stroke-width="1" />
<rect x="610.46" y="154.75" width="8.32" height="7.39" fill="#22c55e" opacity="0.85" />
<line x1="629.74" y1="132.16" x2="629.74" y2="180.23" stroke="#ef4444" stroke-width="1" />
<rect x="625.58" y="143.12" width="8.32" height="19.70" fill="#ef4444" opacity="0.85" />
<line x1="644.87" y1="152.13" x2="644.87" y2="184.87" stroke="#22c55e" stroke-width="1" />
<rect x="640.71" y="157.64" width="8.32" height="13.71" fill="#22c55e" opacity="0.85" />
<line x1="660.00" y1="129.68" x2="660.00" y2="184.94" stroke="#22c55e" stroke-width="1" />
<rect x="655.84" y="140.43" width="8.32" height="25.28" fill="#22c55e" opacity="0.85" />
<line x1="675.13" y1="152.73" x2="675.13" y2="206.92" stroke="#22c55e" stroke-width="1" />
<rect x="670.97" y="154.08" width="8.32" height="11.83" fill="#22c55e" opacity="0.85" />
<line x1="690.26" y1="167.79" x2="690.26" y2="249.67" stroke="#ef4444" stroke-width="1" />
<rect x="686.10" y="177.61" width="8.32" height="56.87" fill="#ef4444" opacity="0.85" />
<line x1="705.38" y1="202.21" x2="705.38" y2="263.39" stroke="#ef4444" stroke-width="1" />
<rect x="701.22" y="202.55" width="8.32" height="52.64" fill="#ef4444" opacity="0.85" />
<line x1="720.51" y1="235.22" x2="720.51" y2="279.59" stroke="#22c55e" stroke-width="1" />
<rect x="716.35" y="247.05" width="8.32" height="23.46" fill="#22c55e" opacity="0.85" />
<line x1="735.64" y1="234.28" x2="735.64" y2="324.16" stroke="#ef4444" stroke-width="1" />
<rect x="731.48" y="238.24" width="8.32" height="85.04" fill="#ef4444" opacity="0.85" />
<line x1="750.77" y1="239.12" x2="750.77" y2="279.52" stroke="#ef4444" stroke-width="1" />
<rect x="746.61" y="260.16" width="8.32" height="4.64" fill="#ef4444" opacity="0.85" />
<line x1="765.90" y1="207.59" x2="765.90" y2="246.24" stroke="#22c55e" stroke-width="1" />
<rect x="761.74" y="211.42" width="8.32" height="34.28" fill="#22c55e" opacity="0.85" />
<line x1="781.03" y1="175.11" x2="781.03" y2="201.23" stroke="#ef4444" stroke-width="1" />
<rect x="776.87" y="177.13" width="8.32" height="14.40" fill="#ef4444" opacity="0.85" />
<line x1="796.15" y1="170.00" x2="796.15" y2="201.16" stroke="#22c55e" stroke-width="1" />
<rect x="791.99" y="172.02" width="8.32" height="26.32" fill="#22c55e" opacity="0.85" />
<line x1="811.28" y1="157.41" x2="811.28" y2="174.64" stroke="#22c55e" stroke-width="1" />
<rect x="807.12" y="159.77" width="8.32" height="13.06" fill="#22c55e" opacity="0.85" />
<line x1="826.41" y1="149.06" x2="826.41" y2="165.08" stroke="#ef4444" stroke-width="1" />
<rect x="822.25" y="154.85" width="8.32" height="5.18" fill="#ef4444" opacity="0.85" />
<line x1="841.54" y1="167.51" x2="841.54" y2="194.77" stroke="#22c55e" stroke-width="1" />
<rect x="837.38" y="180.36" width="8.32" height="5.18" fill="#22c55e" opacity="0.85" />
<line x1="856.67" y1="171.55" x2="856.67" y2="191.47" stroke="#ef4444" stroke-width="1" />
<rect x="852.51" y="187.30" width="8.32" height="2.76" fill="#ef4444" opacity="0.85" />
<line x1="871.79" y1="186.49" x2="871.79" y2="226.27" stroke="#ef4444" stroke-width="1" />
<rect x="867.63" y="188.58" width="8.32" height="35.94" fill="#ef4444" opacity="0.85" />
<line x1="886.92" y1="167.04" x2="886.92" y2="252.52" stroke="#ef4444" stroke-width="1" />
<rect x="882.76" y="185.82" width="8.32" height="46.71" fill="#ef4444" opacity="0.85" />
<line x1="902.05" y1="180.77" x2="902.05" y2="208.30" stroke="#ef4444" stroke-width="1" />
<rect x="897.89" y="190.80" width="8.32" height="8.95" fill="#ef4444" opacity="0.85" />
<line x1="917.18" y1="159.16" x2="917.18" y2="196.05" stroke="#22c55e" stroke-width="1" />
<rect x="913.02" y="163.20" width="8.32" height="28.20" fill="#22c55e" opacity="0.85" />
<line x1="932.31" y1="132.77" x2="932.31" y2="168.99" stroke="#22c55e" stroke-width="1" />
<rect x="928.15" y="159.16" width="8.32" height="6.60" fill="#22c55e" opacity="0.85" />
<line x1="947.44" y1="163.20" x2="947.44" y2="201.03" stroke="#ef4444" stroke-width="1" />
<rect x="943.28" y="165.82" width="8.32" height="17.23" fill="#ef4444" opacity="0.85" />
<line x1="962.56" y1="133.11" x2="962.56" y2="192.55" stroke="#22c55e" stroke-width="1" />
<rect x="958.40" y="141.46" width="8.32" height="35.27" fill="#22c55e" opacity="0.85" />
<line x1="977.69" y1="126.65" x2="977.69" y2="171.01" stroke="#22c55e" stroke-width="1" />
<rect x="973.53" y="137.96" width="8.32" height="32.71" fill="#22c55e" opacity="0.85" />
<line x1="992.82" y1="122.48" x2="992.82" y2="161.31" stroke="#ef4444" stroke-width="1" />
<rect x="988.66" y="137.28" width="8.32" height="6.93" fill="#ef4444" opacity="0.85" />
<line x1="1007.95" y1="163.00" x2="1007.95" y2="222.84" stroke="#ef4444" stroke-width="1" />
<rect x="1003.79" y="171.14" width="8.32" height="18.11" fill="#ef4444" opacity="0.85" />
<line x1="1023.08" y1="118.91" x2="1023.08" y2="181.17" stroke="#ef4444" stroke-width="1" />
<rect x="1018.92" y="141.79" width="8.32" height="32.44" fill="#ef4444" opacity="0.85" />
<line x1="1038.21" y1="145.29" x2="1038.21" y2="193.76" stroke="#ef4444" stroke-width="1" />
<rect x="1034.04" y="149.20" width="8.32" height="28.54" fill="#ef4444" opacity="0.85" />
<line x1="1053.33" y1="219.47" x2="1053.33" y2="273.39" stroke="#ef4444" stroke-width="1" />
<rect x="1049.17" y="249.96" width="8.32" height="16.63" fill="#ef4444" opacity="0.85" />
<line x1="1068.46" y1="183.39" x2="1068.46" y2="267.94" stroke="#22c55e" stroke-width="1" />
<rect x="1064.30" y="211.26" width="8.32" height="45.84" fill="#22c55e" opacity="0.85" />
<line x1="1083.59" y1="169.66" x2="1083.59" y2="201.16" stroke="#ef4444" stroke-width="1" />
<rect x="1079.43" y="170.40" width="8.32" height="10.70" fill="#ef4444" opacity="0.85" />
<line x1="1098.72" y1="149.87" x2="1098.72" y2="195.31" stroke="#22c55e" stroke-width="1" />
<rect x="1094.56" y="167.91" width="8.32" height="20.13" fill="#22c55e" opacity="0.85" />
<line x1="1113.85" y1="135.00" x2="1113.85" y2="171.95" stroke="#22c55e" stroke-width="1" />
<rect x="1109.69" y="149.47" width="8.32" height="15.15" fill="#22c55e" opacity="0.85" />
<line x1="1128.97" y1="105.18" x2="1128.97" y2="136.81" stroke="#22c55e" stroke-width="1" />
<rect x="1124.81" y="111.30" width="8.32" height="14.94" fill="#22c55e" opacity="0.85" />
<line x1="1144.10" y1="74.48" x2="1144.10" y2="106.73" stroke="#ef4444" stroke-width="1" />
<rect x="1139.94" y="82.16" width="8.32" height="15.08" fill="#ef4444" opacity="0.85" />
<line x1="1159.23" y1="94.21" x2="1159.23" y2="197.87" stroke="#ef4444" stroke-width="1" />
<rect x="1155.07" y="101.07" width="8.32" height="21.67" fill="#ef4444" opacity="0.85" />
<line x1="1174.36" y1="130.62" x2="1174.36" y2="190.93" stroke="#ef4444" stroke-width="1" />
<rect x="1170.20" y="147.79" width="8.32" height="25.85" fill="#ef4444" opacity="0.85" />
<line x1="1189.49" y1="129.07" x2="1189.49" y2="195.24" stroke="#22c55e" stroke-width="1" />
<rect x="1185.33" y="144.89" width="8.32" height="50.08" fill="#22c55e" opacity="0.85" />
<line x1="1204.62" y1="119.04" x2="1204.62" y2="247.07" stroke="#ef4444" stroke-width="1" />
<rect x="1200.46" y="130.35" width="8.32" height="79.29" fill="#ef4444" opacity="0.85" />
<line x1="1219.74" y1="219.20" x2="1219.74" y2="317.68" stroke="#ef4444" stroke-width="1" />
<rect x="1215.58" y="219.74" width="8.32" height="62.40" fill="#ef4444" opacity="0.85" />
<line x1="1234.87" y1="288.47" x2="1234.87" y2="356.12" stroke="#ef4444" stroke-width="1" />
<rect x="1230.71" y="319.43" width="8.32" height="21.41" fill="#ef4444" opacity="0.85" />
<line x1="1250.00" y1="244.04" x2="1250.00" y2="329.12" stroke="#22c55e" stroke-width="1" />
<rect x="1245.84" y="255.89" width="8.32" height="63.68" fill="#22c55e" opacity="0.85" />
<polyline points="221.28,77.24 327.18,334.98 372.56,158.92 478.46,455.52 660.00,129.68 735.64,324.16 1023.08,118.91 1053.33,273.39 1144.10,74.48 1234.87,356.12" fill="none" stroke="#64748b" stroke-width="1.8" opacity="0.9" />
<circle cx="221.28" cy="77.24" r="3.30" fill="#f97316" stroke="#0f172a" stroke-width="1.1" />
<circle cx="327.18" cy="334.98" r="3.30" fill="#38bdf8" stroke="#0f172a" stroke-width="1.1" />
<circle cx="372.56" cy="158.92" r="5.50" fill="#f97316" stroke="#f8fafc" stroke-width="1.8" />
<circle cx="478.46" cy="455.52" r="5.50" fill="#38bdf8" stroke="#f8fafc" stroke-width="1.8" />
<circle cx="660.00" cy="129.68" r="5.50" fill="#f97316" stroke="#f8fafc" stroke-width="1.8" />
<circle cx="735.64" cy="324.16" r="5.50" fill="#38bdf8" stroke="#f8fafc" stroke-width="1.8" />
<circle cx="1023.08" cy="118.91" r="5.50" fill="#f97316" stroke="#f8fafc" stroke-width="1.8" />
<circle cx="1053.33" cy="273.39" r="3.30" fill="#38bdf8" stroke="#0f172a" stroke-width="1.1" />
<circle cx="1144.10" cy="74.48" r="3.30" fill="#f97316" stroke="#0f172a" stroke-width="1.1" />
<circle cx="1234.87" cy="356.12" r="3.30" fill="#38bdf8" stroke="#0f172a" stroke-width="1.1" />
<text x="70" y="516" fill="#cbd5e1" font-size="12" font-family="monospace">2025-10-15</text>
<text x="1140" y="516" fill="#cbd5e1" font-size="12" font-family="monospace">2026-02-06</text>
<text x="70" y="532" fill="#94a3b8" font-size="12" font-family="monospace">entry=2026-01-20 fwd10=1.0203300541615856</text>
</svg>