<svg xmlns="http://www.w3.org/2000/svg" width="1280" height="540" viewBox="0 0 1280 540">
<rect width="100%" height="100%" fill="#081018" />
<rect x="417.06" y="44" width="572.65" height="442" fill="#17324d" opacity="0.18" />
<line x1="1059.12" y1="44" x2="1059.12" y2="486" stroke="#fde047" stroke-width="2" stroke-dasharray="6 4" />
<text x="70" y="24" fill="#e5e7eb" font-size="16" font-family="monospace">Top Family Inspection Snippet</text>
<text x="70" y="42" fill="#93c5fd" font-size="12" font-family="monospace">HTL|REVERSAL_UP|BOTH_BREAKS|DEEP_DOM</text>
<line x1="70.00" y1="218.09" x2="70.00" y2="249.24" stroke="#22c55e" stroke-width="1" />
<rect x="65.23" y="222.14" width="9.54" height="24.68" fill="#22c55e" opacity="0.85" />
<line x1="87.35" y1="198.68" x2="87.35" y2="247.63" stroke="#22c55e" stroke-width="1" />
<rect x="82.58" y="208.79" width="9.54" height="38.03" fill="#22c55e" opacity="0.85" />
<line x1="104.71" y1="214.05" x2="104.71" y2="254.50" stroke="#ef4444" stroke-width="1" />
<rect x="99.93" y="217.28" width="9.54" height="27.51" fill="#ef4444" opacity="0.85" />
<line x1="122.06" y1="242.37" x2="122.06" y2="273.11" stroke="#22c55e" stroke-width="1" />
<rect x="117.29" y="243.58" width="9.54" height="22.25" fill="#22c55e" opacity="0.85" />
<line x1="139.41" y1="230.63" x2="139.41" y2="257.33" stroke="#ef4444" stroke-width="1" />
<rect x="134.64" y="231.44" width="9.54" height="18.20" fill="#ef4444" opacity="0.85" />
<line x1="156.76" y1="177.23" x2="156.76" y2="265.02" stroke="#22c55e" stroke-width="1" />
<rect x="151.99" y="180.07" width="9.54" height="77.67" fill="#22c55e" opacity="0.85" />
<line x1="174.12" y1="131.12" x2="174.12" y2="167.93" stroke="#ef4444" stroke-width="1" />
<rect x="169.35" y="153.77" width="9.54" height="4.85" fill="#ef4444" opacity="0.85" />
<line x1="191.47" y1="145.28" x2="191.47" y2="171.98" stroke="#ef4444" stroke-width="1" />
<rect x="186.70" y="161.86" width="9.54" height="3.24" fill="#ef4444" opacity="0.85" />
<line x1="208.82" y1="116.55" x2="208.82" y2="197.87" stroke="#22c55e" stroke-width="1" />
<rect x="204.05" y="118.17" width="9.54" height="73.63" fill="#22c55e" opacity="0.85" />
<line x1="226.18" y1="114.94" x2="226.18" y2="145.68" stroke="#ef4444" stroke-width="1" />
<rect x="221.40" y="118.17" width="9.54" height="16.99" fill="#ef4444" opacity="0.85" />
<line x1="243.53" y1="152.96" x2="243.53" y2="183.71" stroke="#ef4444" stroke-width="1" />
<rect x="238.76" y="169.55" width="9.54" height="8.50" fill="#ef4444" opacity="0.85" />
<line x1="260.88" y1="104.01" x2="260.88" y2="173.60" stroke="#22c55e" stroke-width="1" />
<rect x="256.11" y="105.63" width="9.54" height="67.96" fill="#22c55e" opacity="0.85" />
<line x1="278.24" y1="123.43" x2="278.24" y2="188.97" stroke="#ef4444" stroke-width="1" />
<rect x="273.46" y="131.52" width="9.54" height="38.43" fill="#ef4444" opacity="0.85" />
<line x1="295.59" y1="131.93" x2="295.59" y2="188.56" stroke="#ef4444" stroke-width="1" />
<rect x="290.82" y="142.45" width="9.54" height="30.75" fill="#ef4444" opacity="0.85" />
<line x1="312.94" y1="131.93" x2="312.94" y2="189.78" stroke="#ef4444" stroke-width="1" />
<rect x="308.17" y="154.18" width="9.54" height="35.20" fill="#ef4444" opacity="0.85" />
<line x1="330.29" y1="144.06" x2="330.29" y2="212.84" stroke="#22c55e" stroke-width="1" />
<rect x="325.52" y="152.56" width="9.54" height="33.58" fill="#22c55e" opacity="0.85" />
<line x1="347.65" y1="89.05" x2="347.65" y2="124.24" stroke="#22c55e" stroke-width="1" />
<rect x="342.88" y="95.92" width="9.54" height="22.65" fill="#22c55e" opacity="0.85" />
<line x1="365.00" y1="78.93" x2="365.00" y2="132.74" stroke="#ef4444" stroke-width="1" />
<rect x="360.23" y="95.11" width="9.54" height="1.00" fill="#ef4444" opacity="0.85" />
<line x1="382.35" y1="89.85" x2="382.35" y2="118.17" stroke="#ef4444" stroke-width="1" />
<rect x="377.58" y="99.16" width="9.54" height="7.69" fill="#ef4444" opacity="0.85" />
<line x1="399.71" y1="81.36" x2="399.71" y2="122.62" stroke="#22c55e" stroke-width="1" />
<rect x="394.93" y="82.98" width="9.54" height="36.81" fill="#22c55e" opacity="0.85" />
<line x1="417.06" y1="74.48" x2="417.06" y2="137.59" stroke="#ef4444" stroke-width="1" />
<rect x="412.29" y="74.48" width="9.54" height="36.00" fill="#ef4444" opacity="0.85" />
<line x1="434.41" y1="86.21" x2="434.41" y2="125.86" stroke="#22c55e" stroke-width="1" />
<rect x="429.64" y="106.85" width="9.54" height="3.64" fill="#22c55e" opacity="0.85" />
<line x1="451.76" y1="90.26" x2="451.76" y2="126.67" stroke="#22c55e" stroke-width="1" />
<rect x="446.99" y="106.44" width="9.54" height="2.83" fill="#22c55e" opacity="0.85" />
<line x1="469.12" y1="144.06" x2="469.12" y2="208.79" stroke="#ef4444" stroke-width="1" />
<rect x="464.35" y="164.69" width="9.54" height="9.30" fill="#ef4444" opacity="0.85" />
<line x1="486.47" y1="173.59" x2="486.47" y2="195.44" stroke="#22c55e" stroke-width="1" />
<rect x="481.70" y="174.00" width="9.54" height="13.35" fill="#22c55e" opacity="0.85" />
<line x1="503.82" y1="157.41" x2="503.82" y2="208.79" stroke="#ef4444" stroke-width="1" />
<rect x="499.05" y="164.69" width="9.54" height="30.75" fill="#ef4444" opacity="0.85" />
<line x1="521.18" y1="220.52" x2="521.18" y2="266.64" stroke="#22c55e" stroke-width="1" />
<rect x="516.40" y="230.63" width="9.54" height="9.71" fill="#22c55e" opacity="0.85" />
<line x1="538.53" y1="200.29" x2="538.53" y2="291.72" stroke="#ef4444" stroke-width="1" />
<rect x="533.76" y="225.78" width="9.54" height="57.44" fill="#ef4444" opacity="0.85" />
<line x1="555.88" y1="274.32" x2="555.88" y2="339.86" stroke="#ef4444" stroke-width="1" />
<rect x="551.11" y="283.22" width="9.54" height="22.65" fill="#ef4444" opacity="0.85" />
<line x1="573.24" y1="259.36" x2="573.24" y2="312.76" stroke="#22c55e" stroke-width="1" />
<rect x="568.46" y="265.42" width="9.54" height="29.53" fill="#22c55e" opacity="0.85" />
<line x1="590.59" y1="276.75" x2="590.59" y2="316.80" stroke="#ef4444" stroke-width="1" />
<rect x="585.82" y="296.17" width="9.54" height="9.30" fill="#ef4444" opacity="0.85" />
<line x1="607.94" y1="315.59" x2="607.94" y2="343.50" stroke="#ef4444" stroke-width="1" />
<rect x="603.17" y="331.37" width="9.54" height="1.62" fill="#ef4444" opacity="0.85" />
<line x1="625.29" y1="308.31" x2="625.29" y2="342.69" stroke="#ef4444" stroke-width="1" />
<rect x="620.52" y="317.61" width="9.54" height="16.59" fill="#ef4444" opacity="0.85" />
<line x1="642.65" y1="310.73" x2="642.65" y2="359.28" stroke="#22c55e" stroke-width="1" />
<rect x="637.88" y="311.54" width="9.54" height="43.69" fill="#22c55e" opacity="0.85" />
<line x1="660.00" y1="279.58" x2="660.00" y2="313.16" stroke="#22c55e" stroke-width="1" />
<rect x="655.23" y="299.41" width="9.54" height="11.73" fill="#22c55e" opacity="0.85" />
<line x1="677.35" y1="238.73" x2="677.35" y2="291.72" stroke="#22c55e" stroke-width="1" />
<rect x="672.58" y="240.75" width="9.54" height="43.29" fill="#22c55e" opacity="0.85" />
<line x1="694.71" y1="234.28" x2="694.71" y2="281.20" stroke="#ef4444" stroke-width="1" />
<rect x="689.93" y="247.22" width="9.54" height="32.77" fill="#ef4444" opacity="0.85" />
<line x1="712.06" y1="264.62" x2="712.06" y2="329.34" stroke="#ef4444" stroke-width="1" />
<rect x="707.29" y="269.88" width="9.54" height="29.13" fill="#ef4444" opacity="0.85" />
<line x1="729.41" y1="276.35" x2="729.41" y2="323.27" stroke="#ef4444" stroke-width="1" />
<rect x="724.64" y="302.64" width="9.54" height="12.14" fill="#ef4444" opacity="0.85" />
<line x1="746.76" y1="245.60" x2="746.76" y2="312.35" stroke="#22c55e" stroke-width="1" />
<rect x="741.99" y="261.38" width="9.54" height="46.93" fill="#22c55e" opacity="0.85" />
<line x1="764.12" y1="252.48" x2="764.12" y2="326.91" stroke="#ef4444" stroke-width="1" />
<rect x="759.35" y="265.02" width="9.54" height="50.57" fill="#ef4444" opacity="0.85" />
<line x1="781.47" y1="277.16" x2="781.47" y2="333.39" stroke="#22c55e" stroke-width="1" />
<rect x="776.70" y="300.21" width="9.54" height="25.08" fill="#22c55e" opacity="0.85" />
<line x1="798.82" y1="306.28" x2="798.82" y2="353.61" stroke="#ef4444" stroke-width="1" />
<rect x="794.05" y="316.80" width="9.54" height="5.66" fill="#ef4444" opacity="0.85" />
<line x1="816.18" y1="258.14" x2="816.18" y2="307.90" stroke="#22c55e" stroke-width="1" />
<rect x="811.40" y="275.54" width="9.54" height="29.94" fill="#22c55e" opacity="0.85" />
<line x1="833.53" y1="255.31" x2="833.53" y2="285.25" stroke="#ef4444" stroke-width="1" />
<rect x="828.76" y="270.68" width="9.54" height="10.52" fill="#ef4444" opacity="0.85" />
<line x1="850.88" y1="189.78" x2="850.88" y2="258.55" stroke="#22c55e" stroke-width="1" />
<rect x="846.11" y="195.04" width="9.54" height="62.30" fill="#22c55e" opacity="0.85" />
<line x1="868.24" y1="150.13" x2="868.24" y2="186.14" stroke="#22c55e" stroke-width="1" />
<rect x="863.46" y="163.48" width="9.54" height="14.97" fill="#22c55e" opacity="0.85" />
<line x1="885.59" y1="144.87" x2="885.59" y2="169.55" stroke="#22c55e" stroke-width="1" />
<rect x="880.82" y="150.54" width="9.54" height="8.50" fill="#22c55e" opacity="0.85" />
<line x1="902.94" y1="127.07" x2="902.94" y2="148.51" stroke="#22c55e" stroke-width="1" />
<rect x="898.17" y="127.48" width="9.54" height="20.23" fill="#22c55e" opacity="0.85" />
<line x1="920.29" y1="112.10" x2="920.29" y2="141.64" stroke="#22c55e" stroke-width="1" />
<rect x="915.52" y="118.98" width="9.54" height="2.43" fill="#22c55e" opacity="0.85" />
<line x1="937.65" y1="108.46" x2="937.65" y2="136.38" stroke="#22c55e" stroke-width="1" />
<rect x="932.88" y="118.58" width="9.54" height="14.16" fill="#22c55e" opacity="0.85" />
<line x1="955.00" y1="108.87" x2="955.00" y2="151.75" stroke="#22c55e" stroke-width="1" />
<rect x="950.23" y="109.27" width="9.54" height="18.20" fill="#22c55e" opacity="0.85" />
<line x1="972.35" y1="115.74" x2="972.35" y2="159.43" stroke="#ef4444" stroke-width="1" />
<rect x="967.58" y="117.77" width="9.54" height="12.54" fill="#ef4444" opacity="0.85" />
<line x1="989.71" y1="102.40" x2="989.71" y2="129.90" stroke="#22c55e" stroke-width="1" />
<rect x="984.93" y="114.13" width="9.54" height="8.09" fill="#22c55e" opacity="0.85" />
<line x1="1007.06" y1="107.25" x2="1007.06" y2="127.48" stroke="#ef4444" stroke-width="1" />
<rect x="1002.29" y="111.70" width="9.54" height="13.75" fill="#ef4444" opacity="0.85" />
<line x1="1024.41" y1="108.46" x2="1024.41" y2="134.35" stroke="#22c55e" stroke-width="1" />
<rect x="1019.64" y="117.77" width="9.54" height="1.00" fill="#22c55e" opacity="0.85" />
<line x1="1041.76" y1="120.20" x2="1041.76" y2="144.47" stroke="#22c55e" stroke-width="1" />
<rect x="1036.99" y="125.05" width="9.54" height="10.92" fill="#22c55e" opacity="0.85" />
<line x1="1059.12" y1="157.01" x2="1059.12" y2="190.99" stroke="#ef4444" stroke-width="1" />
<rect x="1054.35" y="165.50" width="9.54" height="10.11" fill="#ef4444" opacity="0.85" />
<line x1="1076.47" y1="176.02" x2="1076.47" y2="218.09" stroke="#ef4444" stroke-width="1" />
<rect x="1071.70" y="200.70" width="9.54" height="11.73" fill="#ef4444" opacity="0.85" />
<line x1="1093.82" y1="196.65" x2="1093.82" y2="244.39" stroke="#22c55e" stroke-width="1" />
<rect x="1089.05" y="212.43" width="9.54" height="11.73" fill="#22c55e" opacity="0.85" />
<line x1="1111.18" y1="195.84" x2="1111.18" y2="232.25" stroke="#ef4444" stroke-width="1" />
<rect x="1106.40" y="201.91" width="9.54" height="23.06" fill="#ef4444" opacity="0.85" />
<line x1="1128.53" y1="207.98" x2="1128.53" y2="274.33" stroke="#22c55e" stroke-width="1" />
<rect x="1123.76" y="212.03" width="9.54" height="34.39" fill="#22c55e" opacity="0.85" />
<line x1="1145.88" y1="214.99" x2="1145.88" y2="273.40" stroke="#ef4444" stroke-width="1" />
<rect x="1141.11" y="221.07" width="9.54" height="42.18" fill="#ef4444" opacity="0.85" />
<line x1="1163.24" y1="192.27" x2="1163.24" y2="239.32" stroke="#ef4444" stroke-width="1" />
<rect x="1158.46" y="212.96" width="9.54" height="23.12" fill="#ef4444" opacity="0.85" />
<line x1="1180.59" y1="213.36" x2="1180.59" y2="238.51" stroke="#22c55e" stroke-width="1" />
<rect x="1175.82" y="222.29" width="9.54" height="8.11" fill="#22c55e" opacity="0.85" />
<line x1="1197.94" y1="194.30" x2="1197.94" y2="236.48" stroke="#ef4444" stroke-width="1" />
<rect x="1193.17" y="219.85" width="9.54" height="12.98" fill="#ef4444" opacity="0.85" />
<line x1="1215.29" y1="169.96" x2="1215.29" y2="217.42" stroke="#22c55e" stroke-width="1" />
<rect x="1210.52" y="170.77" width="9.54" height="28.39" fill="#22c55e" opacity="0.85" />
<line x1="1232.65" y1="262.85" x2="1232.65" y2="361.82" stroke="#ef4444" stroke-width="1" />
<rect x="1227.87" y="327.75" width="9.54" height="24.74" fill="#ef4444" opacity="0.85" />
<line x1="1250.00" y1="380.48" x2="1250.00" y2="455.52" stroke="#ef4444" stroke-width="1" />
<rect x="1245.23" y="380.48" width="9.54" height="55.97" fill="#ef4444" opacity="0.85" />
<polyline points="260.88,104.01 330.29,212.84 417.06,74.48 642.65,359.28 694.71,234.28 798.82,353.61 989.71,102.40 1128.53,274.33 1215.29,169.96 1250.00,455.52" fill="none" stroke="#64748b" stroke-width="1.8" opacity="0.9" />
<circle cx="260.88" cy="104.01" r="3.30" fill="#f97316" stroke="#0f172a" stroke-width="1.1" />
<circle cx="330.29" cy="212.84" r="3.30" fill="#38bdf8" stroke="#0f172a" stroke-width="1.1" />
<circle cx="417.06" cy="74.48" r="5.50" fill="#f97316" stroke="#f8fafc" stroke-width="1.8" />
<circle cx="642.65" cy="359.28" r="5.50" fill="#38bdf8" stroke="#f8fafc" stroke-width="1.8" />
<circle cx="694.71" cy="234.28" r="5.50" fill="#f97316" stroke="#f8fafc" stroke-width="1.8" />
<circle cx="798.82" cy="353.61" r="5.50" fill="#38bdf8" stroke="#f8fafc" stroke-width="1.8" />
<circle cx="989.71" cy="102.40" r="5.50" fill="#f97316" stroke="#f8fafc" stroke-width="1.8" />
<circle cx="1128.53" cy="274.33" r="3.30" fill="#38bdf8" stroke="#0f172a" stroke-width="1.1" />
<circle cx="1215.29" cy="169.96" r="3.30" fill="#f97316" stroke="#0f172a" stroke-width="1.1" />
<circle cx="1250.00" cy="455.52" r="3.30" fill="#38bdf8" stroke="#0f172a" stroke-width="1.1" />
<text x="70" y="516" fill="#cbd5e1" font-size="12" font-family="monospace">2016-03-21</text>
<text x="1140" y="516" fill="#cbd5e1" font-size="12" font-family="monospace">2016-06-27</text>
<text x="70" y="532" fill="#94a3b8" font-size="12" font-family="monospace">entry=2016-06-10 fwd10=-4.041033707044501</text>
</svg>