<svg xmlns="http://www.w3.org/2000/svg" width="1280" height="540" viewBox="0 0 1280 540">
<rect width="100%" height="100%" fill="#081018" />
<rect x="323.76" y="44" width="735.91" height="442" fill="#17324d" opacity="0.18" />
<line x1="1072.37" y1="44" x2="1072.37" y2="486" stroke="#fde047" stroke-width="2" stroke-dasharray="6 4" />
<text x="70" y="24" fill="#e5e7eb" font-size="16" font-family="monospace">Top Family Inspection Snippet</text>
<text x="70" y="42" fill="#93c5fd" font-size="12" font-family="monospace">LTH|REVERSAL_UP|BOTH_BREAKS|DEEP_PRESENT</text>
<line x1="70.00" y1="222.94" x2="70.00" y2="238.68" stroke="#ef4444" stroke-width="1" />
<rect x="66.51" y="233.08" width="6.98" height="1.14" fill="#ef4444" opacity="0.85" />
<line x1="82.69" y1="223.97" x2="82.69" y2="260.45" stroke="#ef4444" stroke-width="1" />
<rect x="79.20" y="226.88" width="6.98" height="31.08" fill="#ef4444" opacity="0.85" />
<line x1="95.38" y1="238.60" x2="95.38" y2="259.82" stroke="#ef4444" stroke-width="1" />
<rect x="91.89" y="252.68" width="6.98" height="1.00" fill="#ef4444" opacity="0.85" />
<line x1="108.06" y1="253.82" x2="108.06" y2="296.89" stroke="#ef4444" stroke-width="1" />
<rect x="104.58" y="275.59" width="6.98" height="20.75" fill="#ef4444" opacity="0.85" />
<line x1="120.75" y1="290.31" x2="120.75" y2="325.80" stroke="#22c55e" stroke-width="1" />
<rect x="117.26" y="295.71" width="6.98" height="28.24" fill="#22c55e" opacity="0.85" />
<line x1="133.44" y1="253.23" x2="133.44" y2="295.16" stroke="#22c55e" stroke-width="1" />
<rect x="129.95" y="253.82" width="6.98" height="29.74" fill="#22c55e" opacity="0.85" />
<line x1="146.13" y1="241.24" x2="146.13" y2="288.53" stroke="#ef4444" stroke-width="1" />
<rect x="142.64" y="251.10" width="6.98" height="30.09" fill="#ef4444" opacity="0.85" />
<line x1="158.82" y1="246.29" x2="158.82" y2="273.74" stroke="#22c55e" stroke-width="1" />
<rect x="155.33" y="246.72" width="6.98" height="19.33" fill="#22c55e" opacity="0.85" />
<line x1="171.51" y1="254.06" x2="171.51" y2="278.75" stroke="#ef4444" stroke-width="1" />
<rect x="168.02" y="268.53" width="6.98" height="4.34" fill="#ef4444" opacity="0.85" />
<line x1="184.19" y1="282.50" x2="184.19" y2="307.11" stroke="#22c55e" stroke-width="1" />
<rect x="180.70" y="286.95" width="6.98" height="13.21" fill="#22c55e" opacity="0.85" />
<line x1="196.88" y1="314.01" x2="196.88" y2="349.70" stroke="#22c55e" stroke-width="1" />
<rect x="193.39" y="343.94" width="6.98" height="1.00" fill="#22c55e" opacity="0.85" />
<line x1="209.57" y1="301.62" x2="209.57" y2="343.51" stroke="#22c55e" stroke-width="1" />
<rect x="206.08" y="302.37" width="6.98" height="11.83" fill="#22c55e" opacity="0.85" />
<line x1="222.26" y1="315.63" x2="222.26" y2="347.26" stroke="#ef4444" stroke-width="1" />
<rect x="218.77" y="321.15" width="6.98" height="16.29" fill="#ef4444" opacity="0.85" />
<line x1="234.95" y1="354.95" x2="234.95" y2="409.53" stroke="#ef4444" stroke-width="1" />
<rect x="231.46" y="389.22" width="6.98" height="18.81" fill="#ef4444" opacity="0.85" />
<line x1="247.63" y1="340.36" x2="247.63" y2="404.84" stroke="#22c55e" stroke-width="1" />
<rect x="244.15" y="348.80" width="6.98" height="20.79" fill="#22c55e" opacity="0.85" />
<line x1="260.32" y1="379.01" x2="260.32" y2="440.22" stroke="#ef4444" stroke-width="1" />
<rect x="256.83" y="420.54" width="6.98" height="19.13" fill="#ef4444" opacity="0.85" />
<line x1="273.01" y1="380.15" x2="273.01" y2="437.77" stroke="#22c55e" stroke-width="1" />
<rect x="269.52" y="389.03" width="6.98" height="26.31" fill="#22c55e" opacity="0.85" />
<line x1="285.70" y1="400.54" x2="285.70" y2="449.53" stroke="#22c55e" stroke-width="1" />
<rect x="282.21" y="410.88" width="6.98" height="19.68" fill="#22c55e" opacity="0.85" />
<line x1="298.39" y1="383.70" x2="298.39" y2="430.48" stroke="#22c55e" stroke-width="1" />
<rect x="294.90" y="406.70" width="6.98" height="7.77" fill="#22c55e" opacity="0.85" />
<line x1="311.08" y1="386.15" x2="311.08" y2="436.51" stroke="#ef4444" stroke-width="1" />
<rect x="307.59" y="390.60" width="6.98" height="43.54" fill="#ef4444" opacity="0.85" />
<line x1="323.76" y1="418.84" x2="323.76" y2="455.52" stroke="#ef4444" stroke-width="1" />
<rect x="320.27" y="431.84" width="6.98" height="1.82" fill="#ef4444" opacity="0.85" />
<line x1="336.45" y1="380.82" x2="336.45" y2="404.06" stroke="#22c55e" stroke-width="1" />
<rect x="332.96" y="381.49" width="6.98" height="14.82" fill="#22c55e" opacity="0.85" />
<line x1="349.14" y1="358.37" x2="349.14" y2="396.03" stroke="#ef4444" stroke-width="1" />
<rect x="345.65" y="378.48" width="6.98" height="8.38" fill="#ef4444" opacity="0.85" />
<line x1="361.83" y1="345.68" x2="361.83" y2="381.68" stroke="#22c55e" stroke-width="1" />
<rect x="358.34" y="348.92" width="6.98" height="31.74" fill="#22c55e" opacity="0.85" />
<line x1="374.52" y1="354.41" x2="374.52" y2="377.53" stroke="#ef4444" stroke-width="1" />
<rect x="371.03" y="368.56" width="6.98" height="6.44" fill="#ef4444" opacity="0.85" />
<line x1="387.20" y1="346.59" x2="387.20" y2="370.89" stroke="#22c55e" stroke-width="1" />
<rect x="383.72" y="348.37" width="6.98" height="19.68" fill="#22c55e" opacity="0.85" />
<line x1="399.89" y1="335.68" x2="399.89" y2="359.59" stroke="#ef4444" stroke-width="1" />
<rect x="396.40" y="349.63" width="6.98" height="5.22" fill="#ef4444" opacity="0.85" />
<line x1="412.58" y1="365.68" x2="412.58" y2="392.55" stroke="#ef4444" stroke-width="1" />
<rect x="409.09" y="377.10" width="6.98" height="9.72" fill="#ef4444" opacity="0.85" />
<line x1="425.27" y1="356.03" x2="425.27" y2="392.12" stroke="#22c55e" stroke-width="1" />
<rect x="421.78" y="372.20" width="6.98" height="18.85" fill="#22c55e" opacity="0.85" />
<line x1="437.96" y1="368.01" x2="437.96" y2="390.85" stroke="#ef4444" stroke-width="1" />
<rect x="434.47" y="374.02" width="6.98" height="8.62" fill="#ef4444" opacity="0.85" />
<line x1="450.65" y1="326.19" x2="450.65" y2="359.63" stroke="#22c55e" stroke-width="1" />
<rect x="447.16" y="330.82" width="6.98" height="23.71" fill="#22c55e" opacity="0.85" />
<line x1="463.33" y1="306.39" x2="463.33" y2="332.71" stroke="#ef4444" stroke-width="1" />
<rect x="459.84" y="307.54" width="6.98" height="23.60" fill="#ef4444" opacity="0.85" />
<line x1="476.02" y1="312.28" x2="476.02" y2="332.04" stroke="#22c55e" stroke-width="1" />
<rect x="472.53" y="314.65" width="6.98" height="9.57" fill="#22c55e" opacity="0.85" />
<line x1="488.71" y1="304.18" x2="488.71" y2="320.74" stroke="#ef4444" stroke-width="1" />
<rect x="485.22" y="307.61" width="6.98" height="5.89" fill="#ef4444" opacity="0.85" />
<line x1="501.40" y1="303.39" x2="501.40" y2="321.84" stroke="#22c55e" stroke-width="1" />
<rect x="497.91" y="304.93" width="6.98" height="11.98" fill="#22c55e" opacity="0.85" />
<line x1="514.09" y1="267.50" x2="514.09" y2="291.53" stroke="#22c55e" stroke-width="1" />
<rect x="510.60" y="270.03" width="6.98" height="18.30" fill="#22c55e" opacity="0.85" />
<line x1="526.77" y1="270.15" x2="526.77" y2="288.76" stroke="#22c55e" stroke-width="1" />
<rect x="523.28" y="279.63" width="6.98" height="3.75" fill="#22c55e" opacity="0.85" />
<line x1="539.46" y1="260.11" x2="539.46" y2="278.60" stroke="#22c55e" stroke-width="1" />
<rect x="535.97" y="264.53" width="6.98" height="6.17" fill="#22c55e" opacity="0.85" />
<line x1="552.15" y1="251.65" x2="552.15" y2="269.16" stroke="#ef4444" stroke-width="1" />
<rect x="548.66" y="252.99" width="6.98" height="3.48" fill="#ef4444" opacity="0.85" />
<line x1="564.84" y1="254.14" x2="564.84" y2="267.22" stroke="#ef4444" stroke-width="1" />
<rect x="561.35" y="264.10" width="6.98" height="2.45" fill="#ef4444" opacity="0.85" />
<line x1="577.53" y1="272.79" x2="577.53" y2="302.56" stroke="#ef4444" stroke-width="1" />
<rect x="574.04" y="275.01" width="6.98" height="22.57" fill="#ef4444" opacity="0.85" />
<line x1="590.22" y1="268.09" x2="590.22" y2="283.98" stroke="#22c55e" stroke-width="1" />
<rect x="586.73" y="273.54" width="6.98" height="7.39" fill="#22c55e" opacity="0.85" />
<line x1="602.90" y1="259.83" x2="602.90" y2="276.98" stroke="#ef4444" stroke-width="1" />
<rect x="599.41" y="270.30" width="6.98" height="5.02" fill="#ef4444" opacity="0.85" />
<line x1="615.59" y1="260.38" x2="615.59" y2="279.35" stroke="#22c55e" stroke-width="1" />
<rect x="612.10" y="262.20" width="6.98" height="11.34" fill="#22c55e" opacity="0.85" />
<line x1="628.28" y1="251.17" x2="628.28" y2="259.59" stroke="#ef4444" stroke-width="1" />
<rect x="624.79" y="252.91" width="6.98" height="2.49" fill="#ef4444" opacity="0.85" />
<line x1="640.97" y1="248.45" x2="640.97" y2="272.60" stroke="#ef4444" stroke-width="1" />
<rect x="637.48" y="248.45" width="6.98" height="23.00" fill="#ef4444" opacity="0.85" />
<line x1="653.66" y1="237.97" x2="653.66" y2="257.06" stroke="#22c55e" stroke-width="1" />
<rect x="650.17" y="241.81" width="6.98" height="11.11" fill="#22c55e" opacity="0.85" />
<line x1="666.34" y1="237.70" x2="666.34" y2="248.33" stroke="#ef4444" stroke-width="1" />
<rect x="662.85" y="238.05" width="6.98" height="4.11" fill="#ef4444" opacity="0.85" />
<line x1="679.03" y1="251.02" x2="679.03" y2="270.74" stroke="#ef4444" stroke-width="1" />
<rect x="675.54" y="259.59" width="6.98" height="6.96" fill="#ef4444" opacity="0.85" />
<line x1="691.72" y1="255.84" x2="691.72" y2="272.95" stroke="#22c55e" stroke-width="1" />
<rect x="688.23" y="256.75" width="6.98" height="14.86" fill="#22c55e" opacity="0.85" />
<line x1="704.41" y1="237.30" x2="704.41" y2="250.30" stroke="#22c55e" stroke-width="1" />
<rect x="700.92" y="247.10" width="6.98" height="1.00" fill="#22c55e" opacity="0.85" />
<line x1="717.10" y1="233.74" x2="717.10" y2="245.32" stroke="#ef4444" stroke-width="1" />
<rect x="713.61" y="240.23" width="6.98" height="1.58" fill="#ef4444" opacity="0.85" />
<line x1="729.78" y1="227.06" x2="729.78" y2="236.19" stroke="#22c55e" stroke-width="1" />
<rect x="726.30" y="230.66" width="6.98" height="1.00" fill="#22c55e" opacity="0.85" />
<line x1="742.47" y1="218.09" x2="742.47" y2="228.05" stroke="#22c55e" stroke-width="1" />
<rect x="738.98" y="218.64" width="6.98" height="5.18" fill="#22c55e" opacity="0.85" />
<line x1="755.16" y1="206.51" x2="755.16" y2="225.01" stroke="#22c55e" stroke-width="1" />
<rect x="751.67" y="210.70" width="6.98" height="13.36" fill="#22c55e" opacity="0.85" />
<line x1="767.85" y1="205.84" x2="767.85" y2="229.59" stroke="#ef4444" stroke-width="1" />
<rect x="764.36" y="208.25" width="6.98" height="21.22" fill="#ef4444" opacity="0.85" />
<line x1="780.54" y1="219.63" x2="780.54" y2="250.86" stroke="#ef4444" stroke-width="1" />
<rect x="777.05" y="227.34" width="6.98" height="13.12" fill="#ef4444" opacity="0.85" />
<line x1="793.23" y1="230.46" x2="793.23" y2="253.70" stroke="#22c55e" stroke-width="1" />
<rect x="789.74" y="230.62" width="6.98" height="15.26" fill="#22c55e" opacity="0.85" />
<line x1="805.91" y1="224.69" x2="805.91" y2="244.45" stroke="#22c55e" stroke-width="1" />
<rect x="802.42" y="224.93" width="6.98" height="17.75" fill="#22c55e" opacity="0.85" />
<line x1="818.60" y1="203.55" x2="818.60" y2="216.23" stroke="#22c55e" stroke-width="1" />
<rect x="815.11" y="208.49" width="6.98" height="4.55" fill="#22c55e" opacity="0.85" />
<line x1="831.29" y1="198.92" x2="831.29" y2="211.33" stroke="#ef4444" stroke-width="1" />
<rect x="827.80" y="207.42" width="6.98" height="3.32" fill="#ef4444" opacity="0.85" />
<line x1="843.98" y1="191.37" x2="843.98" y2="200.38" stroke="#22c55e" stroke-width="1" />
<rect x="840.49" y="192.83" width="6.98" height="7.47" fill="#22c55e" opacity="0.85" />
<line x1="856.67" y1="189.87" x2="856.67" y2="204.89" stroke="#ef4444" stroke-width="1" />
<rect x="853.18" y="192.64" width="6.98" height="10.16" fill="#ef4444" opacity="0.85" />
<line x1="869.35" y1="198.84" x2="869.35" y2="208.21" stroke="#22c55e" stroke-width="1" />
<rect x="865.87" y="199.67" width="6.98" height="4.78" fill="#22c55e" opacity="0.85" />
<line x1="882.04" y1="184.22" x2="882.04" y2="203.11" stroke="#ef4444" stroke-width="1" />
<rect x="878.55" y="185.05" width="6.98" height="17.07" fill="#ef4444" opacity="0.85" />
<line x1="894.73" y1="196.71" x2="894.73" y2="222.28" stroke="#22c55e" stroke-width="1" />
<rect x="891.24" y="197.18" width="6.98" height="6.32" fill="#22c55e" opacity="0.85" />
<line x1="907.42" y1="184.61" x2="907.42" y2="202.08" stroke="#22c55e" stroke-width="1" />
<rect x="903.93" y="198.37" width="6.98" height="3.48" fill="#22c55e" opacity="0.85" />
<line x1="920.11" y1="184.10" x2="920.11" y2="203.23" stroke="#22c55e" stroke-width="1" />
<rect x="916.62" y="185.05" width="6.98" height="11.78" fill="#22c55e" opacity="0.85" />
<line x1="932.80" y1="180.74" x2="932.80" y2="190.42" stroke="#22c55e" stroke-width="1" />
<rect x="929.31" y="182.28" width="6.98" height="6.32" fill="#22c55e" opacity="0.85" />
<line x1="945.48" y1="175.84" x2="945.48" y2="190.38" stroke="#22c55e" stroke-width="1" />
<rect x="941.99" y="176.08" width="6.98" height="4.47" fill="#22c55e" opacity="0.85" />
<line x1="958.17" y1="168.80" x2="958.17" y2="177.18" stroke="#22c55e" stroke-width="1" />
<rect x="954.68" y="171.89" width="6.98" height="1.70" fill="#22c55e" opacity="0.85" />
<line x1="970.86" y1="167.54" x2="970.86" y2="183.78" stroke="#ef4444" stroke-width="1" />
<rect x="967.37" y="173.31" width="6.98" height="5.14" fill="#ef4444" opacity="0.85" />
<line x1="983.55" y1="157.62" x2="983.55" y2="176.08" stroke="#22c55e" stroke-width="1" />
<rect x="980.06" y="160.03" width="6.98" height="13.72" fill="#22c55e" opacity="0.85" />
<line x1="996.24" y1="152.16" x2="996.24" y2="167.06" stroke="#22c55e" stroke-width="1" />
<rect x="992.75" y="152.68" width="6.98" height="7.94" fill="#22c55e" opacity="0.85" />
<line x1="1008.92" y1="142.28" x2="1008.92" y2="156.95" stroke="#22c55e" stroke-width="1" />
<rect x="1005.44" y="145.76" width="6.98" height="10.43" fill="#22c55e" opacity="0.85" />
<line x1="1021.61" y1="127.90" x2="1021.61" y2="140.98" stroke="#22c55e" stroke-width="1" />
<rect x="1018.12" y="134.22" width="6.98" height="4.62" fill="#22c55e" opacity="0.85" />
<line x1="1034.30" y1="144.61" x2="1034.30" y2="182.68" stroke="#ef4444" stroke-width="1" />
<rect x="1030.81" y="150.27" width="6.98" height="32.17" fill="#ef4444" opacity="0.85" />
<line x1="1046.99" y1="157.22" x2="1046.99" y2="191.45" stroke="#ef4444" stroke-width="1" />
<rect x="1043.50" y="162.40" width="6.98" height="12.69" fill="#ef4444" opacity="0.85" />
<line x1="1059.68" y1="160.98" x2="1059.68" y2="192.52" stroke="#22c55e" stroke-width="1" />
<rect x="1056.19" y="163.74" width="6.98" height="24.94" fill="#22c55e" opacity="0.85" />
<line x1="1072.37" y1="141.45" x2="1072.37" y2="162.36" stroke="#ef4444" stroke-width="1" />
<rect x="1068.88" y="143.86" width="6.98" height="3.68" fill="#ef4444" opacity="0.85" />
<line x1="1085.05" y1="137.07" x2="1085.05" y2="148.01" stroke="#ef4444" stroke-width="1" />
<rect x="1081.56" y="141.41" width="6.98" height="3.08" fill="#ef4444" opacity="0.85" />
<line x1="1097.74" y1="140.90" x2="1097.74" y2="148.96" stroke="#22c55e" stroke-width="1" />
<rect x="1094.25" y="141.89" width="6.98" height="3.91" fill="#22c55e" opacity="0.85" />
<line x1="1110.43" y1="131.14" x2="1110.43" y2="149.12" stroke="#ef4444" stroke-width="1" />
<rect x="1106.94" y="132.20" width="6.98" height="9.84" fill="#ef4444" opacity="0.85" />
<line x1="1123.12" y1="129.95" x2="1123.12" y2="143.77" stroke="#22c55e" stroke-width="1" />
<rect x="1119.63" y="130.47" width="6.98" height="12.12" fill="#22c55e" opacity="0.85" />
<line x1="1135.81" y1="113.01" x2="1135.81" y2="126.19" stroke="#22c55e" stroke-width="1" />
<rect x="1132.32" y="122.15" width="6.98" height="1.78" fill="#22c55e" opacity="0.85" />
<line x1="1148.49" y1="120.21" x2="1148.49" y2="148.60" stroke="#ef4444" stroke-width="1" />
<rect x="1145.01" y="125.24" width="6.98" height="17.22" fill="#ef4444" opacity="0.85" />
<line x1="1161.18" y1="132.05" x2="1161.18" y2="152.64" stroke="#22c55e" stroke-width="1" />
<rect x="1157.69" y="133.28" width="6.98" height="8.83" fill="#22c55e" opacity="0.85" />
<line x1="1173.87" y1="133.56" x2="1173.87" y2="158.42" stroke="#ef4444" stroke-width="1" />
<rect x="1170.38" y="134.27" width="6.98" height="22.01" fill="#ef4444" opacity="0.85" />
<line x1="1186.56" y1="145.87" x2="1186.56" y2="167.65" stroke="#22c55e" stroke-width="1" />
<rect x="1183.07" y="145.91" width="6.98" height="11.36" fill="#22c55e" opacity="0.85" />
<line x1="1199.25" y1="124.85" x2="1199.25" y2="146.94" stroke="#22c55e" stroke-width="1" />
<rect x="1195.76" y="127.06" width="6.98" height="19.12" fill="#22c55e" opacity="0.85" />
<line x1="1211.94" y1="111.54" x2="1211.94" y2="129.12" stroke="#22c55e" stroke-width="1" />
<rect x="1208.45" y="115.62" width="6.98" height="11.28" fill="#22c55e" opacity="0.85" />
<line x1="1224.62" y1="100.65" x2="1224.62" y2="110.79" stroke="#ef4444" stroke-width="1" />
<rect x="1221.13" y="105.60" width="6.98" height="3.29" fill="#ef4444" opacity="0.85" />
<line x1="1237.31" y1="82.20" x2="1237.31" y2="96.06" stroke="#22c55e" stroke-width="1" />
<rect x="1233.82" y="84.34" width="6.98" height="11.64" fill="#22c55e" opacity="0.85" />
<line x1="1250.00" y1="74.48" x2="1250.00" y2="92.62" stroke="#ef4444" stroke-width="1" />
<rect x="1246.51" y="85.37" width="6.98" height="6.02" fill="#ef4444" opacity="0.85" />
<polyline points="120.75,325.80 146.13,241.24 323.76,455.52 767.85,205.84 793.23,253.70 1021.61,127.90 1059.68,192.52 1135.81,113.01 1186.56,167.65" fill="none" stroke="#64748b" stroke-width="1.8" opacity="0.9" />
<circle cx="120.75" cy="325.80" r="3.30" fill="#38bdf8" stroke="#0f172a" stroke-width="1.1" />
<circle cx="146.13" cy="241.24" r="3.30" fill="#f97316" stroke="#0f172a" stroke-width="1.1" />
<circle cx="323.76" cy="455.52" r="5.50" fill="#38bdf8" stroke="#f8fafc" stroke-width="1.8" />
<circle cx="767.85" cy="205.84" r="5.50" fill="#f97316" stroke="#f8fafc" stroke-width="1.8" />
<circle cx="793.23" cy="253.70" r="5.50" fill="#38bdf8" stroke="#f8fafc" stroke-width="1.8" />
<circle cx="1021.61" cy="127.90" r="5.50" fill="#f97316" stroke="#f8fafc" stroke-width="1.8" />
<circle cx="1059.68" cy="192.52" r="5.50" fill="#38bdf8" stroke="#f8fafc" stroke-width="1.8" />
<circle cx="1135.81" cy="113.01" r="3.30" fill="#f97316" stroke="#0f172a" stroke-width="1.1" />
<circle cx="1186.56" cy="167.65" r="3.30" fill="#38bdf8" stroke="#0f172a" stroke-width="1.1" />
<text x="70" y="516" fill="#cbd5e1" font-size="12" font-family="monospace">2020-02-24</text>
<text x="1140" y="516" fill="#cbd5e1" font-size="12" font-family="monospace">2020-07-07</text>
<text x="70" y="532" fill="#94a3b8" font-size="12" font-family="monospace">entry=2020-06-16 fwd10=0.930493971234367</text>
</svg>