<svg xmlns="http://www.w3.org/2000/svg" width="1280" height="540" viewBox="0 0 1280 540">
<rect width="100%" height="100%" fill="#081018" />
<rect x="427.58" y="44" width="554.24" height="442" fill="#17324d" opacity="0.18" />
<line x1="1035.45" y1="44" x2="1035.45" y2="486" stroke="#fde047" stroke-width="2" stroke-dasharray="6 4" />
<text x="70" y="24" fill="#e5e7eb" font-size="16" font-family="monospace">Top Family Inspection Snippet</text>
<text x="70" y="42" fill="#93c5fd" font-size="12" font-family="monospace">HTL|MIXED_TRANSITION|HH_ONLY|DEEP_DOM</text>
<line x1="70.00" y1="315.95" x2="70.00" y2="365.72" stroke="#22c55e" stroke-width="1" />
<rect x="65.08" y="327.49" width="9.83" height="13.70" fill="#22c55e" opacity="0.85" />
<line x1="87.88" y1="289.62" x2="87.88" y2="324.97" stroke="#ef4444" stroke-width="1" />
<rect x="82.96" y="306.57" width="9.83" height="15.87" fill="#ef4444" opacity="0.85" />
<line x1="105.76" y1="316.67" x2="105.76" y2="339.39" stroke="#ef4444" stroke-width="1" />
<rect x="100.84" y="326.05" width="9.83" height="7.93" fill="#ef4444" opacity="0.85" />
<line x1="123.64" y1="276.64" x2="123.64" y2="298.64" stroke="#ef4444" stroke-width="1" />
<rect x="118.72" y="283.85" width="9.83" height="12.62" fill="#ef4444" opacity="0.85" />
<line x1="141.52" y1="290.71" x2="141.52" y2="304.41" stroke="#22c55e" stroke-width="1" />
<rect x="136.60" y="296.84" width="9.83" height="2.89" fill="#22c55e" opacity="0.85" />
<line x1="159.39" y1="292.51" x2="159.39" y2="326.41" stroke="#ef4444" stroke-width="1" />
<rect x="154.48" y="301.16" width="9.83" height="1.00" fill="#ef4444" opacity="0.85" />
<line x1="177.27" y1="283.49" x2="177.27" y2="312.71" stroke="#22c55e" stroke-width="1" />
<rect x="172.36" y="286.02" width="9.83" height="12.62" fill="#22c55e" opacity="0.85" />
<line x1="195.15" y1="231.92" x2="195.15" y2="259.33" stroke="#22c55e" stroke-width="1" />
<rect x="190.23" y="234.81" width="9.83" height="23.80" fill="#22c55e" opacity="0.85" />
<line x1="213.03" y1="231.56" x2="213.03" y2="255.00" stroke="#ef4444" stroke-width="1" />
<rect x="208.11" y="232.28" width="9.83" height="16.23" fill="#ef4444" opacity="0.85" />
<line x1="230.91" y1="254.28" x2="230.91" y2="290.35" stroke="#ef4444" stroke-width="1" />
<rect x="225.99" y="276.28" width="9.83" height="1.44" fill="#ef4444" opacity="0.85" />
<line x1="248.79" y1="255.72" x2="248.79" y2="303.33" stroke="#ef4444" stroke-width="1" />
<rect x="243.87" y="259.33" width="9.83" height="37.87" fill="#ef4444" opacity="0.85" />
<line x1="266.67" y1="287.46" x2="266.67" y2="336.87" stroke="#ef4444" stroke-width="1" />
<rect x="261.75" y="309.46" width="9.83" height="14.43" fill="#ef4444" opacity="0.85" />
<line x1="284.55" y1="308.38" x2="284.55" y2="330.02" stroke="#ef4444" stroke-width="1" />
<rect x="279.63" y="308.38" width="9.83" height="19.47" fill="#ef4444" opacity="0.85" />
<line x1="302.42" y1="319.92" x2="302.42" y2="396.01" stroke="#ef4444" stroke-width="1" />
<rect x="297.51" y="320.64" width="9.83" height="38.95" fill="#ef4444" opacity="0.85" />
<line x1="320.30" y1="352.74" x2="320.30" y2="403.58" stroke="#ef4444" stroke-width="1" />
<rect x="315.39" y="362.47" width="9.83" height="30.65" fill="#ef4444" opacity="0.85" />
<line x1="338.18" y1="386.27" x2="338.18" y2="438.57" stroke="#ef4444" stroke-width="1" />
<rect x="333.27" y="399.98" width="9.83" height="33.90" fill="#ef4444" opacity="0.85" />
<line x1="356.06" y1="416.21" x2="356.06" y2="455.52" stroke="#ef4444" stroke-width="1" />
<rect x="351.14" y="443.98" width="9.83" height="4.33" fill="#ef4444" opacity="0.85" />
<line x1="373.94" y1="346.61" x2="373.94" y2="388.80" stroke="#22c55e" stroke-width="1" />
<rect x="369.02" y="350.93" width="9.83" height="31.01" fill="#22c55e" opacity="0.85" />
<line x1="391.82" y1="304.41" x2="391.82" y2="365.00" stroke="#22c55e" stroke-width="1" />
<rect x="386.90" y="323.52" width="9.83" height="31.74" fill="#22c55e" opacity="0.85" />
<line x1="409.70" y1="297.20" x2="409.70" y2="377.98" stroke="#22c55e" stroke-width="1" />
<rect x="404.78" y="304.05" width="9.83" height="68.88" fill="#22c55e" opacity="0.85" />
<line x1="427.58" y1="277.72" x2="427.58" y2="428.47" stroke="#ef4444" stroke-width="1" />
<rect x="422.66" y="283.49" width="9.83" height="89.08" fill="#ef4444" opacity="0.85" />
<line x1="445.45" y1="361.75" x2="445.45" y2="405.39" stroke="#22c55e" stroke-width="1" />
<rect x="440.54" y="370.77" width="9.83" height="19.83" fill="#22c55e" opacity="0.85" />
<line x1="463.33" y1="365.72" x2="463.33" y2="434.60" stroke="#ef4444" stroke-width="1" />
<rect x="458.42" y="369.69" width="9.83" height="43.28" fill="#ef4444" opacity="0.85" />
<line x1="481.21" y1="341.20" x2="481.21" y2="387.72" stroke="#22c55e" stroke-width="1" />
<rect x="476.30" y="355.62" width="9.83" height="25.97" fill="#22c55e" opacity="0.85" />
<line x1="499.09" y1="327.85" x2="499.09" y2="375.46" stroke="#22c55e" stroke-width="1" />
<rect x="494.17" y="330.74" width="9.83" height="44.72" fill="#22c55e" opacity="0.85" />
<line x1="516.97" y1="299.36" x2="516.97" y2="341.56" stroke="#22c55e" stroke-width="1" />
<rect x="512.05" y="300.08" width="9.83" height="32.82" fill="#22c55e" opacity="0.85" />
<line x1="534.85" y1="287.82" x2="534.85" y2="319.92" stroke="#ef4444" stroke-width="1" />
<rect x="529.93" y="295.03" width="9.83" height="20.92" fill="#ef4444" opacity="0.85" />
<line x1="552.73" y1="267.99" x2="552.73" y2="306.93" stroke="#22c55e" stroke-width="1" />
<rect x="547.81" y="271.95" width="9.83" height="33.54" fill="#22c55e" opacity="0.85" />
<line x1="570.61" y1="248.51" x2="570.61" y2="269.43" stroke="#ef4444" stroke-width="1" />
<rect x="565.69" y="255.00" width="9.83" height="3.97" fill="#ef4444" opacity="0.85" />
<line x1="588.48" y1="268.35" x2="588.48" y2="295.03" stroke="#ef4444" stroke-width="1" />
<rect x="583.57" y="273.04" width="9.83" height="3.25" fill="#ef4444" opacity="0.85" />
<line x1="606.36" y1="260.77" x2="606.36" y2="276.28" stroke="#22c55e" stroke-width="1" />
<rect x="601.45" y="262.58" width="9.83" height="8.66" fill="#22c55e" opacity="0.85" />
<line x1="624.24" y1="252.48" x2="624.24" y2="276.64" stroke="#ef4444" stroke-width="1" />
<rect x="619.33" y="267.99" width="9.83" height="4.33" fill="#ef4444" opacity="0.85" />
<line x1="642.12" y1="236.97" x2="642.12" y2="280.61" stroke="#22c55e" stroke-width="1" />
<rect x="637.20" y="257.53" width="9.83" height="10.82" fill="#22c55e" opacity="0.85" />
<line x1="660.00" y1="250.68" x2="660.00" y2="310.90" stroke="#ef4444" stroke-width="1" />
<rect x="655.08" y="252.12" width="9.83" height="57.34" fill="#ef4444" opacity="0.85" />
<line x1="677.88" y1="310.54" x2="677.88" y2="389.16" stroke="#ef4444" stroke-width="1" />
<rect x="672.96" y="310.90" width="9.83" height="71.77" fill="#ef4444" opacity="0.85" />
<line x1="695.76" y1="357.78" x2="695.76" y2="391.68" stroke="#22c55e" stroke-width="1" />
<rect x="690.84" y="374.37" width="9.83" height="5.77" fill="#22c55e" opacity="0.85" />
<line x1="713.64" y1="325.33" x2="713.64" y2="371.85" stroke="#22c55e" stroke-width="1" />
<rect x="708.72" y="341.92" width="9.83" height="10.82" fill="#22c55e" opacity="0.85" />
<line x1="731.52" y1="324.61" x2="731.52" y2="349.49" stroke="#ef4444" stroke-width="1" />
<rect x="726.60" y="330.02" width="9.83" height="1.80" fill="#ef4444" opacity="0.85" />
<line x1="749.39" y1="273.04" x2="749.39" y2="353.10" stroke="#22c55e" stroke-width="1" />
<rect x="744.48" y="278.45" width="9.83" height="62.03" fill="#22c55e" opacity="0.85" />
<line x1="767.27" y1="260.05" x2="767.27" y2="284.94" stroke="#22c55e" stroke-width="1" />
<rect x="762.36" y="270.87" width="9.83" height="5.77" fill="#22c55e" opacity="0.85" />
<line x1="785.15" y1="235.89" x2="785.15" y2="255.36" stroke="#22c55e" stroke-width="1" />
<rect x="780.23" y="237.33" width="9.83" height="17.67" fill="#22c55e" opacity="0.85" />
<line x1="803.03" y1="247.79" x2="803.03" y2="274.48" stroke="#ef4444" stroke-width="1" />
<rect x="798.11" y="256.45" width="9.83" height="1.00" fill="#ef4444" opacity="0.85" />
<line x1="820.91" y1="179.27" x2="820.91" y2="243.82" stroke="#22c55e" stroke-width="1" />
<rect x="815.99" y="202.71" width="9.83" height="41.11" fill="#22c55e" opacity="0.85" />
<line x1="838.79" y1="183.24" x2="838.79" y2="224.35" stroke="#ef4444" stroke-width="1" />
<rect x="833.87" y="197.30" width="9.83" height="14.43" fill="#ef4444" opacity="0.85" />
<line x1="856.67" y1="179.27" x2="856.67" y2="216.42" stroke="#22c55e" stroke-width="1" />
<rect x="851.75" y="204.88" width="9.83" height="1.08" fill="#22c55e" opacity="0.85" />
<line x1="874.55" y1="185.53" x2="874.55" y2="229.65" stroke="#ef4444" stroke-width="1" />
<rect x="869.63" y="194.21" width="9.83" height="26.77" fill="#ef4444" opacity="0.85" />
<line x1="892.42" y1="176.48" x2="892.42" y2="222.78" stroke="#22c55e" stroke-width="1" />
<rect x="887.51" y="203.25" width="9.83" height="13.38" fill="#22c55e" opacity="0.85" />
<line x1="910.30" y1="178.65" x2="910.30" y2="194.57" stroke="#22c55e" stroke-width="1" />
<rect x="905.39" y="186.61" width="9.83" height="2.89" fill="#22c55e" opacity="0.85" />
<line x1="928.18" y1="181.91" x2="928.18" y2="199.63" stroke="#ef4444" stroke-width="1" />
<rect x="923.27" y="184.80" width="9.83" height="5.06" fill="#ef4444" opacity="0.85" />
<line x1="946.06" y1="188.42" x2="946.06" y2="219.16" stroke="#ef4444" stroke-width="1" />
<rect x="941.14" y="189.50" width="9.83" height="12.66" fill="#ef4444" opacity="0.85" />
<line x1="963.94" y1="197.46" x2="963.94" y2="213.37" stroke="#22c55e" stroke-width="1" />
<rect x="959.02" y="199.27" width="9.83" height="10.13" fill="#22c55e" opacity="0.85" />
<line x1="981.82" y1="151.52" x2="981.82" y2="191.67" stroke="#22c55e" stroke-width="1" />
<rect x="976.90" y="176.84" width="9.83" height="13.02" fill="#22c55e" opacity="0.85" />
<line x1="999.70" y1="163.46" x2="999.70" y2="213.74" stroke="#ef4444" stroke-width="1" />
<rect x="994.78" y="167.44" width="9.83" height="43.40" fill="#ef4444" opacity="0.85" />
<line x1="1017.58" y1="201.80" x2="1017.58" y2="230.74" stroke="#ef4444" stroke-width="1" />
<rect x="1012.66" y="211.93" width="9.83" height="5.06" fill="#ef4444" opacity="0.85" />
<line x1="1035.45" y1="208.31" x2="1035.45" y2="273.78" stroke="#ef4444" stroke-width="1" />
<rect x="1030.54" y="208.67" width="9.83" height="52.81" fill="#ef4444" opacity="0.85" />
<line x1="1053.33" y1="206.86" x2="1053.33" y2="246.65" stroke="#22c55e" stroke-width="1" />
<rect x="1048.42" y="223.14" width="9.83" height="9.77" fill="#22c55e" opacity="0.85" />
<line x1="1071.21" y1="191.67" x2="1071.21" y2="218.80" stroke="#22c55e" stroke-width="1" />
<rect x="1066.30" y="199.63" width="9.83" height="18.81" fill="#22c55e" opacity="0.85" />
<line x1="1089.09" y1="172.14" x2="1089.09" y2="202.89" stroke="#22c55e" stroke-width="1" />
<rect x="1084.17" y="175.04" width="9.83" height="27.85" fill="#22c55e" opacity="0.85" />
<line x1="1106.97" y1="125.12" x2="1106.97" y2="181.55" stroke="#22c55e" stroke-width="1" />
<rect x="1102.05" y="136.70" width="9.83" height="33.64" fill="#22c55e" opacity="0.85" />
<line x1="1124.85" y1="114.27" x2="1124.85" y2="135.97" stroke="#22c55e" stroke-width="1" />
<rect x="1119.93" y="122.23" width="9.83" height="10.85" fill="#22c55e" opacity="0.85" />
<line x1="1142.73" y1="99.08" x2="1142.73" y2="130.55" stroke="#22c55e" stroke-width="1" />
<rect x="1137.81" y="112.46" width="9.83" height="7.96" fill="#22c55e" opacity="0.85" />
<line x1="1160.61" y1="100.53" x2="1160.61" y2="133.44" stroke="#22c55e" stroke-width="1" />
<rect x="1155.69" y="100.53" width="9.83" height="10.13" fill="#22c55e" opacity="0.85" />
<line x1="1178.48" y1="104.50" x2="1178.48" y2="148.63" stroke="#22c55e" stroke-width="1" />
<rect x="1173.57" y="107.40" width="9.83" height="9.04" fill="#22c55e" opacity="0.85" />
<line x1="1196.36" y1="84.61" x2="1196.36" y2="105.23" stroke="#22c55e" stroke-width="1" />
<rect x="1191.45" y="92.21" width="9.83" height="13.02" fill="#22c55e" opacity="0.85" />
<line x1="1214.24" y1="96.91" x2="1214.24" y2="118.61" stroke="#ef4444" stroke-width="1" />
<rect x="1209.33" y="103.78" width="9.83" height="1.81" fill="#ef4444" opacity="0.85" />
<line x1="1232.12" y1="92.21" x2="1232.12" y2="110.29" stroke="#22c55e" stroke-width="1" />
<rect x="1227.20" y="96.55" width="9.83" height="2.53" fill="#22c55e" opacity="0.85" />
<line x1="1250.00" y1="74.48" x2="1250.00" y2="108.12" stroke="#ef4444" stroke-width="1" />
<rect x="1245.08" y="90.04" width="9.83" height="8.68" fill="#ef4444" opacity="0.85" />
<polyline points="70.00,365.72 213.03,231.56 356.06,455.52 427.58,277.72 463.33,434.60 642.12,236.97 695.76,391.68 981.82,151.52 1035.45,273.78" fill="none" stroke="#64748b" stroke-width="1.8" opacity="0.9" />
<circle cx="70.00" cy="365.72" r="3.30" fill="#38bdf8" stroke="#0f172a" stroke-width="1.1" />
<circle cx="213.03" cy="231.56" r="3.30" fill="#f97316" stroke="#0f172a" stroke-width="1.1" />
<circle cx="356.06" cy="455.52" r="3.30" fill="#38bdf8" stroke="#0f172a" stroke-width="1.1" />
<circle cx="427.58" cy="277.72" r="5.50" fill="#f97316" stroke="#f8fafc" stroke-width="1.8" />
<circle cx="463.33" cy="434.60" r="5.50" fill="#38bdf8" stroke="#f8fafc" stroke-width="1.8" />
<circle cx="642.12" cy="236.97" r="5.50" fill="#f97316" stroke="#f8fafc" stroke-width="1.8" />
<circle cx="695.76" cy="391.68" r="5.50" fill="#38bdf8" stroke="#f8fafc" stroke-width="1.8" />
<circle cx="981.82" cy="151.52" r="5.50" fill="#f97316" stroke="#f8fafc" stroke-width="1.8" />
<circle cx="1035.45" cy="273.78" r="3.30" fill="#38bdf8" stroke="#0f172a" stroke-width="1.1" />
<text x="70" y="516" fill="#cbd5e1" font-size="12" font-family="monospace">2016-10-13</text>
<text x="1140" y="516" fill="#cbd5e1" font-size="12" font-family="monospace">2017-01-19</text>
<text x="70" y="532" fill="#94a3b8" font-size="12" font-family="monospace">entry=2016-12-30 fwd10=3.671316415060633</text>
</svg>