<svg xmlns="http://www.w3.org/2000/svg" width="1280" height="540" viewBox="0 0 1280 540">
<rect width="100%" height="100%" fill="#081018" />
<rect x="135.56" y="44" width="786.67" height="442" fill="#17324d" opacity="0.18" />
<line x1="944.07" y1="44" x2="944.07" y2="486" stroke="#fde047" stroke-width="2" stroke-dasharray="6 4" />
<text x="70" y="24" fill="#e5e7eb" font-size="16" font-family="monospace">Top Family Inspection Snippet</text>
<text x="70" y="42" fill="#93c5fd" font-size="12" font-family="monospace">HTL|CONTINUATION_UP|HH_ONLY|DEEP_DOM</text>
<line x1="70.00" y1="344.05" x2="70.00" y2="386.70" stroke="#22c55e" stroke-width="1" />
<rect x="63.99" y="345.92" width="12.02" height="11.31" fill="#22c55e" opacity="0.85" />
<line x1="91.85" y1="347.03" x2="91.85" y2="367.92" stroke="#ef4444" stroke-width="1" />
<rect x="85.84" y="348.90" width="12.02" height="12.31" fill="#ef4444" opacity="0.85" />
<line x1="113.70" y1="334.23" x2="113.70" y2="367.18" stroke="#22c55e" stroke-width="1" />
<rect x="107.69" y="337.46" width="12.02" height="19.39" fill="#22c55e" opacity="0.85" />
<line x1="135.56" y1="311.48" x2="135.56" y2="362.33" stroke="#ef4444" stroke-width="1" />
<rect x="129.55" y="343.31" width="12.02" height="11.69" fill="#ef4444" opacity="0.85" />
<line x1="157.41" y1="361.33" x2="157.41" y2="401.20" stroke="#ef4444" stroke-width="1" />
<rect x="151.40" y="362.45" width="12.02" height="25.91" fill="#ef4444" opacity="0.85" />
<line x1="179.26" y1="363.83" x2="179.26" y2="400.58" stroke="#22c55e" stroke-width="1" />
<rect x="173.25" y="373.04" width="12.02" height="21.05" fill="#22c55e" opacity="0.85" />
<line x1="201.11" y1="370.05" x2="201.11" y2="420.38" stroke="#ef4444" stroke-width="1" />
<rect x="195.10" y="384.51" width="12.02" height="28.16" fill="#ef4444" opacity="0.85" />
<line x1="222.96" y1="366.94" x2="222.96" y2="412.41" stroke="#ef4444" stroke-width="1" />
<rect x="216.95" y="397.46" width="12.02" height="14.95" fill="#ef4444" opacity="0.85" />
<line x1="244.81" y1="380.77" x2="244.81" y2="455.52" stroke="#22c55e" stroke-width="1" />
<rect x="238.81" y="386.13" width="12.02" height="43.35" fill="#22c55e" opacity="0.85" />
<line x1="266.67" y1="327.57" x2="266.67" y2="380.02" stroke="#22c55e" stroke-width="1" />
<rect x="260.66" y="331.06" width="12.02" height="37.50" fill="#22c55e" opacity="0.85" />
<line x1="288.52" y1="308.01" x2="288.52" y2="352.36" stroke="#22c55e" stroke-width="1" />
<rect x="282.51" y="317.98" width="12.02" height="29.53" fill="#22c55e" opacity="0.85" />
<line x1="310.37" y1="318.73" x2="310.37" y2="341.40" stroke="#ef4444" stroke-width="1" />
<rect x="304.36" y="325.58" width="12.02" height="2.87" fill="#ef4444" opacity="0.85" />
<line x1="332.22" y1="318.48" x2="332.22" y2="339.41" stroke="#ef4444" stroke-width="1" />
<rect x="326.21" y="331.06" width="12.02" height="5.36" fill="#ef4444" opacity="0.85" />
<line x1="354.07" y1="318.73" x2="354.07" y2="342.15" stroke="#22c55e" stroke-width="1" />
<rect x="348.06" y="320.60" width="12.02" height="8.35" fill="#22c55e" opacity="0.85" />
<line x1="375.93" y1="262.04" x2="375.93" y2="289.95" stroke="#22c55e" stroke-width="1" />
<rect x="369.92" y="273.88" width="12.02" height="15.70" fill="#22c55e" opacity="0.85" />
<line x1="397.78" y1="271.14" x2="397.78" y2="291.57" stroke="#ef4444" stroke-width="1" />
<rect x="391.77" y="280.23" width="12.02" height="3.99" fill="#ef4444" opacity="0.85" />
<line x1="419.63" y1="274.25" x2="419.63" y2="295.80" stroke="#22c55e" stroke-width="1" />
<rect x="413.62" y="284.22" width="12.02" height="2.87" fill="#22c55e" opacity="0.85" />
<line x1="441.48" y1="274.50" x2="441.48" y2="295.93" stroke="#22c55e" stroke-width="1" />
<rect x="435.47" y="274.75" width="12.02" height="10.34" fill="#22c55e" opacity="0.85" />
<line x1="463.33" y1="238.00" x2="463.33" y2="271.89" stroke="#22c55e" stroke-width="1" />
<rect x="457.32" y="240.74" width="12.02" height="26.66" fill="#22c55e" opacity="0.85" />
<line x1="485.19" y1="240.74" x2="485.19" y2="255.82" stroke="#22c55e" stroke-width="1" />
<rect x="479.18" y="244.60" width="12.02" height="3.61" fill="#22c55e" opacity="0.85" />
<line x1="507.04" y1="246.22" x2="507.04" y2="270.27" stroke="#22c55e" stroke-width="1" />
<rect x="501.03" y="254.07" width="12.02" height="1.99" fill="#22c55e" opacity="0.85" />
<line x1="528.89" y1="225.17" x2="528.89" y2="254.70" stroke="#22c55e" stroke-width="1" />
<rect x="522.88" y="244.85" width="12.02" height="8.97" fill="#22c55e" opacity="0.85" />
<line x1="550.74" y1="205.11" x2="550.74" y2="228.66" stroke="#22c55e" stroke-width="1" />
<rect x="544.73" y="208.60" width="12.02" height="20.06" fill="#22c55e" opacity="0.85" />
<line x1="572.59" y1="182.41" x2="572.59" y2="200.47" stroke="#22c55e" stroke-width="1" />
<rect x="566.58" y="189.51" width="12.02" height="1.62" fill="#22c55e" opacity="0.85" />
<line x1="594.44" y1="196.36" x2="594.44" y2="217.05" stroke="#ef4444" stroke-width="1" />
<rect x="588.44" y="199.35" width="12.02" height="3.99" fill="#ef4444" opacity="0.85" />
<line x1="616.30" y1="214.43" x2="616.30" y2="253.19" stroke="#ef4444" stroke-width="1" />
<rect x="610.29" y="220.17" width="12.02" height="15.95" fill="#ef4444" opacity="0.85" />
<line x1="638.15" y1="193.50" x2="638.15" y2="243.09" stroke="#22c55e" stroke-width="1" />
<rect x="632.14" y="196.49" width="12.02" height="45.74" fill="#22c55e" opacity="0.85" />
<line x1="660.00" y1="197.61" x2="660.00" y2="248.95" stroke="#ef4444" stroke-width="1" />
<rect x="653.99" y="198.73" width="12.02" height="37.39" fill="#ef4444" opacity="0.85" />
<line x1="681.85" y1="192.87" x2="681.85" y2="248.45" stroke="#22c55e" stroke-width="1" />
<rect x="675.84" y="207.33" width="12.02" height="33.40" fill="#22c55e" opacity="0.85" />
<line x1="703.70" y1="194.24" x2="703.70" y2="220.29" stroke="#ef4444" stroke-width="1" />
<rect x="697.69" y="198.36" width="12.02" height="15.95" fill="#ef4444" opacity="0.85" />
<line x1="725.56" y1="207.33" x2="725.56" y2="228.89" stroke="#22c55e" stroke-width="1" />
<rect x="719.55" y="214.81" width="12.02" height="2.87" fill="#22c55e" opacity="0.85" />
<line x1="747.41" y1="219.04" x2="747.41" y2="236.87" stroke="#ef4444" stroke-width="1" />
<rect x="741.40" y="222.28" width="12.02" height="10.72" fill="#ef4444" opacity="0.85" />
<line x1="769.26" y1="201.97" x2="769.26" y2="245.46" stroke="#22c55e" stroke-width="1" />
<rect x="763.25" y="205.58" width="12.02" height="8.47" fill="#22c55e" opacity="0.85" />
<line x1="791.11" y1="217.05" x2="791.11" y2="239.48" stroke="#22c55e" stroke-width="1" />
<rect x="785.10" y="225.90" width="12.02" height="1.00" fill="#22c55e" opacity="0.85" />
<line x1="812.96" y1="185.52" x2="812.96" y2="205.83" stroke="#22c55e" stroke-width="1" />
<rect x="806.95" y="198.86" width="12.02" height="3.99" fill="#22c55e" opacity="0.85" />
<line x1="834.81" y1="193.62" x2="834.81" y2="242.35" stroke="#22c55e" stroke-width="1" />
<rect x="828.81" y="194.12" width="12.02" height="18.69" fill="#22c55e" opacity="0.85" />
<line x1="856.67" y1="171.56" x2="856.67" y2="208.08" stroke="#22c55e" stroke-width="1" />
<rect x="850.66" y="184.28" width="12.02" height="1.00" fill="#22c55e" opacity="0.85" />
<line x1="878.52" y1="142.40" x2="878.52" y2="188.89" stroke="#22c55e" stroke-width="1" />
<rect x="872.51" y="144.02" width="12.02" height="32.15" fill="#22c55e" opacity="0.85" />
<line x1="900.37" y1="109.38" x2="900.37" y2="152.75" stroke="#22c55e" stroke-width="1" />
<rect x="894.36" y="114.49" width="12.02" height="33.77" fill="#22c55e" opacity="0.85" />
<line x1="922.22" y1="74.48" x2="922.22" y2="118.10" stroke="#ef4444" stroke-width="1" />
<rect x="916.21" y="97.29" width="12.02" height="18.94" fill="#ef4444" opacity="0.85" />
<line x1="944.07" y1="147.64" x2="944.07" y2="201.60" stroke="#ef4444" stroke-width="1" />
<rect x="938.06" y="150.50" width="12.02" height="25.92" fill="#ef4444" opacity="0.85" />
<line x1="965.93" y1="184.90" x2="965.93" y2="266.15" stroke="#ef4444" stroke-width="1" />
<rect x="959.92" y="193.37" width="12.02" height="69.16" fill="#ef4444" opacity="0.85" />
<line x1="987.78" y1="187.27" x2="987.78" y2="259.17" stroke="#22c55e" stroke-width="1" />
<rect x="981.77" y="207.08" width="12.02" height="51.72" fill="#22c55e" opacity="0.85" />
<line x1="1009.63" y1="151.25" x2="1009.63" y2="189.26" stroke="#22c55e" stroke-width="1" />
<rect x="1003.62" y="159.60" width="12.02" height="24.30" fill="#22c55e" opacity="0.85" />
<line x1="1031.48" y1="148.76" x2="1031.48" y2="187.27" stroke="#22c55e" stroke-width="1" />
<rect x="1025.47" y="167.20" width="12.02" height="3.99" fill="#22c55e" opacity="0.85" />
<line x1="1053.33" y1="156.61" x2="1053.33" y2="201.85" stroke="#ef4444" stroke-width="1" />
<rect x="1047.32" y="164.71" width="12.02" height="34.15" fill="#ef4444" opacity="0.85" />
<line x1="1075.19" y1="218.17" x2="1075.19" y2="272.51" stroke="#22c55e" stroke-width="1" />
<rect x="1069.18" y="219.67" width="12.02" height="23.43" fill="#22c55e" opacity="0.85" />
<line x1="1097.04" y1="176.05" x2="1097.04" y2="220.91" stroke="#22c55e" stroke-width="1" />
<rect x="1091.03" y="193.75" width="12.02" height="22.18" fill="#22c55e" opacity="0.85" />
<line x1="1118.89" y1="153.12" x2="1118.89" y2="187.96" stroke="#ef4444" stroke-width="1" />
<rect x="1112.88" y="175.35" width="12.02" height="3.12" fill="#ef4444" opacity="0.85" />
<line x1="1140.74" y1="145.38" x2="1140.74" y2="165.86" stroke="#22c55e" stroke-width="1" />
<rect x="1134.73" y="154.50" width="12.02" height="7.37" fill="#22c55e" opacity="0.85" />
<line x1="1162.59" y1="141.51" x2="1162.59" y2="170.73" stroke="#ef4444" stroke-width="1" />
<rect x="1156.58" y="145.51" width="12.02" height="18.73" fill="#ef4444" opacity="0.85" />
<line x1="1184.44" y1="152.50" x2="1184.44" y2="170.61" stroke="#ef4444" stroke-width="1" />
<rect x="1178.44" y="159.49" width="12.02" height="3.62" fill="#ef4444" opacity="0.85" />
<line x1="1206.30" y1="127.02" x2="1206.30" y2="155.62" stroke="#ef4444" stroke-width="1" />
<rect x="1200.29" y="137.14" width="12.02" height="9.37" fill="#ef4444" opacity="0.85" />
<line x1="1228.15" y1="123.03" x2="1228.15" y2="137.14" stroke="#ef4444" stroke-width="1" />
<rect x="1222.14" y="124.28" width="12.02" height="9.24" fill="#ef4444" opacity="0.85" />
<line x1="1250.00" y1="95.93" x2="1250.00" y2="134.02" stroke="#ef4444" stroke-width="1" />
<rect x="1243.99" y="97.30" width="12.02" height="33.34" fill="#ef4444" opacity="0.85" />
<polyline points="135.56,311.48 244.81,455.52 572.59,182.41 616.30,253.19 922.22,74.48 965.93,266.15 1031.48,148.76 1075.19,272.51 1250.00,95.93" fill="none" stroke="#64748b" stroke-width="1.8" opacity="0.9" />
<circle cx="135.56" cy="311.48" r="5.50" fill="#f97316" stroke="#f8fafc" stroke-width="1.8" />
<circle cx="244.81" cy="455.52" r="5.50" fill="#38bdf8" stroke="#f8fafc" stroke-width="1.8" />
<circle cx="572.59" cy="182.41" r="5.50" fill="#f97316" stroke="#f8fafc" stroke-width="1.8" />
<circle cx="616.30" cy="253.19" r="5.50" fill="#38bdf8" stroke="#f8fafc" stroke-width="1.8" />
<circle cx="922.22" cy="74.48" r="5.50" fill="#f97316" stroke="#f8fafc" stroke-width="1.8" />
<circle cx="965.93" cy="266.15" r="3.30" fill="#38bdf8" stroke="#0f172a" stroke-width="1.1" />
<circle cx="1031.48" cy="148.76" r="3.30" fill="#f97316" stroke="#0f172a" stroke-width="1.1" />
<circle cx="1075.19" cy="272.51" r="3.30" fill="#38bdf8" stroke="#0f172a" stroke-width="1.1" />
<circle cx="1250.00" cy="95.93" r="3.30" fill="#f97316" stroke="#0f172a" stroke-width="1.1" />
<text x="70" y="516" fill="#cbd5e1" font-size="12" font-family="monospace">2021-03-15</text>
<text x="1140" y="516" fill="#cbd5e1" font-size="12" font-family="monospace">2021-06-01</text>
<text x="70" y="532" fill="#94a3b8" font-size="12" font-family="monospace">entry=2021-05-11 fwd10=0.2903575281042097</text>
</svg>