<svg xmlns="http://www.w3.org/2000/svg" width="1280" height="540" viewBox="0 0 1280 540">
<rect width="100%" height="100%" fill="#081018" />
<rect x="499.09" y="44" width="407.64" height="442" fill="#17324d" opacity="0.18" />
<line x1="1035.45" y1="44" x2="1035.45" y2="486" stroke="#fde047" stroke-width="2" stroke-dasharray="6 4" />
<text x="70" y="24" fill="#e5e7eb" font-size="16" font-family="monospace">Top Family Inspection Snippet</text>
<text x="70" y="42" fill="#93c5fd" font-size="12" font-family="monospace">LTH|REVERSAL_DOWN|BOTH_BREAKS|DEEP_DOM</text>
<line x1="70.00" y1="280.35" x2="70.00" y2="330.87" stroke="#ef4444" stroke-width="1" />
<rect x="64.10" y="306.66" width="11.80" height="5.80" fill="#ef4444" opacity="0.85" />
<line x1="91.45" y1="240.93" x2="91.45" y2="289.26" stroke="#22c55e" stroke-width="1" />
<rect x="85.55" y="245.72" width="11.80" height="42.87" fill="#22c55e" opacity="0.85" />
<line x1="112.91" y1="200.32" x2="112.91" y2="232.97" stroke="#ef4444" stroke-width="1" />
<rect x="107.01" y="202.84" width="11.80" height="18.01" fill="#ef4444" opacity="0.85" />
<line x1="134.36" y1="193.92" x2="134.36" y2="232.89" stroke="#22c55e" stroke-width="1" />
<rect x="128.46" y="196.44" width="11.80" height="32.91" fill="#22c55e" opacity="0.85" />
<line x1="155.82" y1="178.18" x2="155.82" y2="199.73" stroke="#22c55e" stroke-width="1" />
<rect x="149.92" y="181.13" width="11.80" height="16.33" fill="#22c55e" opacity="0.85" />
<line x1="177.27" y1="167.74" x2="177.27" y2="187.77" stroke="#ef4444" stroke-width="1" />
<rect x="171.37" y="174.98" width="11.80" height="6.48" fill="#ef4444" opacity="0.85" />
<line x1="198.73" y1="190.80" x2="198.73" y2="224.89" stroke="#22c55e" stroke-width="1" />
<rect x="192.83" y="206.88" width="11.80" height="6.48" fill="#22c55e" opacity="0.85" />
<line x1="220.18" y1="195.85" x2="220.18" y2="220.77" stroke="#ef4444" stroke-width="1" />
<rect x="214.28" y="215.55" width="11.80" height="3.45" fill="#ef4444" opacity="0.85" />
<line x1="241.64" y1="214.54" x2="241.64" y2="264.28" stroke="#ef4444" stroke-width="1" />
<rect x="235.74" y="217.15" width="11.80" height="44.95" fill="#ef4444" opacity="0.85" />
<line x1="263.09" y1="190.22" x2="263.09" y2="297.11" stroke="#ef4444" stroke-width="1" />
<rect x="257.19" y="213.70" width="11.80" height="58.41" fill="#ef4444" opacity="0.85" />
<line x1="284.55" y1="207.39" x2="284.55" y2="241.81" stroke="#ef4444" stroke-width="1" />
<rect x="278.65" y="219.93" width="11.80" height="11.19" fill="#ef4444" opacity="0.85" />
<line x1="306.00" y1="180.37" x2="306.00" y2="226.49" stroke="#22c55e" stroke-width="1" />
<rect x="300.10" y="185.42" width="11.80" height="35.27" fill="#22c55e" opacity="0.85" />
<line x1="327.45" y1="147.37" x2="327.45" y2="192.66" stroke="#22c55e" stroke-width="1" />
<rect x="321.55" y="180.37" width="11.80" height="8.25" fill="#22c55e" opacity="0.85" />
<line x1="348.91" y1="185.42" x2="348.91" y2="232.72" stroke="#ef4444" stroke-width="1" />
<rect x="343.01" y="188.70" width="11.80" height="21.55" fill="#ef4444" opacity="0.85" />
<line x1="370.36" y1="147.79" x2="370.36" y2="222.12" stroke="#22c55e" stroke-width="1" />
<rect x="364.46" y="158.23" width="11.80" height="44.11" fill="#22c55e" opacity="0.85" />
<line x1="391.82" y1="139.71" x2="391.82" y2="195.18" stroke="#22c55e" stroke-width="1" />
<rect x="385.92" y="153.85" width="11.80" height="40.91" fill="#22c55e" opacity="0.85" />
<line x1="413.27" y1="134.50" x2="413.27" y2="183.06" stroke="#ef4444" stroke-width="1" />
<rect x="407.37" y="153.01" width="11.80" height="8.67" fill="#ef4444" opacity="0.85" />
<line x1="434.73" y1="185.17" x2="434.73" y2="259.99" stroke="#ef4444" stroke-width="1" />
<rect x="428.83" y="195.35" width="11.80" height="22.64" fill="#ef4444" opacity="0.85" />
<line x1="456.18" y1="130.03" x2="456.18" y2="207.89" stroke="#ef4444" stroke-width="1" />
<rect x="450.28" y="158.65" width="11.80" height="40.57" fill="#ef4444" opacity="0.85" />
<line x1="477.64" y1="163.03" x2="477.64" y2="223.63" stroke="#ef4444" stroke-width="1" />
<rect x="471.74" y="167.91" width="11.80" height="35.69" fill="#ef4444" opacity="0.85" />
<line x1="499.09" y1="255.78" x2="499.09" y2="323.20" stroke="#ef4444" stroke-width="1" />
<rect x="493.19" y="293.91" width="11.80" height="20.79" fill="#ef4444" opacity="0.85" />
<line x1="520.55" y1="210.67" x2="520.55" y2="316.39" stroke="#22c55e" stroke-width="1" />
<rect x="514.65" y="245.51" width="11.80" height="57.32" fill="#22c55e" opacity="0.85" />
<line x1="542.00" y1="193.50" x2="542.00" y2="232.89" stroke="#ef4444" stroke-width="1" />
<rect x="536.10" y="194.42" width="11.80" height="13.38" fill="#ef4444" opacity="0.85" />
<line x1="563.45" y1="168.75" x2="563.45" y2="225.57" stroke="#22c55e" stroke-width="1" />
<rect x="557.55" y="191.31" width="11.80" height="25.17" fill="#22c55e" opacity="0.85" />
<line x1="584.91" y1="150.15" x2="584.91" y2="196.36" stroke="#22c55e" stroke-width="1" />
<rect x="579.01" y="168.25" width="11.80" height="18.94" fill="#22c55e" opacity="0.85" />
<line x1="606.36" y1="112.86" x2="606.36" y2="152.42" stroke="#22c55e" stroke-width="1" />
<rect x="600.46" y="120.52" width="11.80" height="18.69" fill="#22c55e" opacity="0.85" />
<line x1="627.82" y1="74.48" x2="627.82" y2="114.80" stroke="#ef4444" stroke-width="1" />
<rect x="621.92" y="84.08" width="11.80" height="18.85" fill="#ef4444" opacity="0.85" />
<line x1="649.27" y1="99.14" x2="649.27" y2="228.76" stroke="#ef4444" stroke-width="1" />
<rect x="643.37" y="107.73" width="11.80" height="27.10" fill="#ef4444" opacity="0.85" />
<line x1="670.73" y1="144.68" x2="670.73" y2="220.10" stroke="#ef4444" stroke-width="1" />
<rect x="664.83" y="166.14" width="11.80" height="32.32" fill="#ef4444" opacity="0.85" />
<line x1="692.18" y1="142.74" x2="692.18" y2="225.48" stroke="#22c55e" stroke-width="1" />
<rect x="686.28" y="162.52" width="11.80" height="62.62" fill="#22c55e" opacity="0.85" />
<line x1="713.64" y1="130.20" x2="713.64" y2="290.29" stroke="#ef4444" stroke-width="1" />
<rect x="707.74" y="144.34" width="11.80" height="99.15" fill="#ef4444" opacity="0.85" />
<line x1="735.09" y1="255.45" x2="735.09" y2="378.59" stroke="#ef4444" stroke-width="1" />
<rect x="729.19" y="256.12" width="11.80" height="78.03" fill="#ef4444" opacity="0.85" />
<line x1="756.55" y1="342.06" x2="756.55" y2="426.65" stroke="#ef4444" stroke-width="1" />
<rect x="750.65" y="380.77" width="11.80" height="26.77" fill="#ef4444" opacity="0.85" />
<line x1="778.00" y1="286.51" x2="778.00" y2="392.90" stroke="#22c55e" stroke-width="1" />
<rect x="772.10" y="301.32" width="11.80" height="79.62" fill="#22c55e" opacity="0.85" />
<line x1="799.45" y1="244.00" x2="799.45" y2="339.87" stroke="#22c55e" stroke-width="1" />
<rect x="793.55" y="262.01" width="11.80" height="57.07" fill="#22c55e" opacity="0.85" />
<line x1="820.91" y1="239.29" x2="820.91" y2="289.87" stroke="#ef4444" stroke-width="1" />
<rect x="815.01" y="253.68" width="11.80" height="32.32" fill="#ef4444" opacity="0.85" />
<line x1="842.36" y1="235.08" x2="842.36" y2="317.82" stroke="#ef4444" stroke-width="1" />
<rect x="836.46" y="244.67" width="11.80" height="27.52" fill="#ef4444" opacity="0.85" />
<line x1="863.82" y1="249.47" x2="863.82" y2="386.16" stroke="#ef4444" stroke-width="1" />
<rect x="857.92" y="258.73" width="11.80" height="118.43" fill="#ef4444" opacity="0.85" />
<line x1="885.27" y1="328.00" x2="885.27" y2="412.68" stroke="#22c55e" stroke-width="1" />
<rect x="879.37" y="366.38" width="11.80" height="12.54" fill="#22c55e" opacity="0.85" />
<line x1="906.73" y1="349.30" x2="906.73" y2="438.60" stroke="#22c55e" stroke-width="1" />
<rect x="900.83" y="371.60" width="11.80" height="24.58" fill="#22c55e" opacity="0.85" />
<line x1="928.18" y1="300.31" x2="928.18" y2="376.48" stroke="#22c55e" stroke-width="1" />
<rect x="922.28" y="333.81" width="11.80" height="30.97" fill="#22c55e" opacity="0.85" />
<line x1="949.64" y1="333.56" x2="949.64" y2="376.23" stroke="#22c55e" stroke-width="1" />
<rect x="943.74" y="353.34" width="11.80" height="5.55" fill="#22c55e" opacity="0.85" />
<line x1="971.09" y1="295.43" x2="971.09" y2="389.02" stroke="#22c55e" stroke-width="1" />
<rect x="965.19" y="308.39" width="11.80" height="73.14" fill="#22c55e" opacity="0.85" />
<line x1="992.55" y1="315.12" x2="992.55" y2="390.54" stroke="#ef4444" stroke-width="1" />
<rect x="986.65" y="326.91" width="11.80" height="43.77" fill="#ef4444" opacity="0.85" />
<line x1="1014.00" y1="306.87" x2="1014.00" y2="384.82" stroke="#22c55e" stroke-width="1" />
<rect x="1008.10" y="316.30" width="11.80" height="46.04" fill="#22c55e" opacity="0.85" />
<line x1="1035.45" y1="240.89" x2="1035.45" y2="289.96" stroke="#22c55e" stroke-width="1" />
<rect x="1029.55" y="242.15" width="11.80" height="47.22" fill="#22c55e" opacity="0.85" />
<line x1="1056.91" y1="251.32" x2="1056.91" y2="349.04" stroke="#ef4444" stroke-width="1" />
<rect x="1051.01" y="251.32" width="11.80" height="53.45" fill="#ef4444" opacity="0.85" />
<line x1="1078.36" y1="312.51" x2="1078.36" y2="364.11" stroke="#22c55e" stroke-width="1" />
<rect x="1072.46" y="321.18" width="11.80" height="36.28" fill="#22c55e" opacity="0.85" />
<line x1="1099.82" y1="299.05" x2="1099.82" y2="399.46" stroke="#22c55e" stroke-width="1" />
<rect x="1093.92" y="314.45" width="11.80" height="77.69" fill="#22c55e" opacity="0.85" />
<line x1="1121.27" y1="349.21" x2="1121.27" y2="450.97" stroke="#22c55e" stroke-width="1" />
<rect x="1115.37" y="369.24" width="11.80" height="44.19" fill="#22c55e" opacity="0.85" />
<line x1="1142.73" y1="274.13" x2="1142.73" y2="353.67" stroke="#22c55e" stroke-width="1" />
<rect x="1136.83" y="292.06" width="11.80" height="55.47" fill="#22c55e" opacity="0.85" />
<line x1="1164.18" y1="275.14" x2="1164.18" y2="363.52" stroke="#22c55e" stroke-width="1" />
<rect x="1158.28" y="307.55" width="11.80" height="12.71" fill="#22c55e" opacity="0.85" />
<line x1="1185.64" y1="332.04" x2="1185.64" y2="396.60" stroke="#ef4444" stroke-width="1" />
<rect x="1179.74" y="379.93" width="11.80" height="4.71" fill="#ef4444" opacity="0.85" />
<line x1="1207.09" y1="304.52" x2="1207.09" y2="455.52" stroke="#22c55e" stroke-width="1" />
<rect x="1201.19" y="317.23" width="11.80" height="113.88" fill="#22c55e" opacity="0.85" />
<line x1="1228.55" y1="270.68" x2="1228.55" y2="336.92" stroke="#ef4444" stroke-width="1" />
<rect x="1222.65" y="317.06" width="11.80" height="1.00" fill="#ef4444" opacity="0.85" />
<line x1="1250.00" y1="277.92" x2="1250.00" y2="340.21" stroke="#ef4444" stroke-width="1" />
<rect x="1244.10" y="307.21" width="11.80" height="10.61" fill="#ef4444" opacity="0.85" />
<polyline points="456.18,130.03 499.09,323.20 627.82,74.48 756.55,426.65 842.36,235.08 906.73,438.60 1035.45,240.89 1207.09,455.52" fill="none" stroke="#64748b" stroke-width="1.8" opacity="0.9" />
<circle cx="456.18" cy="130.03" r="3.30" fill="#f97316" stroke="#0f172a" stroke-width="1.1" />
<circle cx="499.09" cy="323.20" r="5.50" fill="#38bdf8" stroke="#f8fafc" stroke-width="1.8" />
<circle cx="627.82" cy="74.48" r="5.50" fill="#f97316" stroke="#f8fafc" stroke-width="1.8" />
<circle cx="756.55" cy="426.65" r="5.50" fill="#38bdf8" stroke="#f8fafc" stroke-width="1.8" />
<circle cx="842.36" cy="235.08" r="5.50" fill="#f97316" stroke="#f8fafc" stroke-width="1.8" />
<circle cx="906.73" cy="438.60" r="5.50" fill="#38bdf8" stroke="#f8fafc" stroke-width="1.8" />
<circle cx="1035.45" cy="240.89" r="3.30" fill="#f97316" stroke="#0f172a" stroke-width="1.1" />
<circle cx="1207.09" cy="455.52" r="3.30" fill="#38bdf8" stroke="#0f172a" stroke-width="1.1" />
<text x="70" y="516" fill="#cbd5e1" font-size="12" font-family="monospace">2025-12-18</text>
<text x="1140" y="516" fill="#cbd5e1" font-size="12" font-family="monospace">2026-03-11</text>
<text x="70" y="532" fill="#94a3b8" font-size="12" font-family="monospace">entry=2026-02-25 fwd10=-0.9096920436827155</text>
</svg>