<svg xmlns="http://www.w3.org/2000/svg" width="1280" height="540" viewBox="0 0 1280 540">
<rect width="100%" height="100%" fill="#081018" />
<rect x="393.29" y="44" width="614.25" height="442" fill="#17324d" opacity="0.18" />
<line x1="1056.03" y1="44" x2="1056.03" y2="486" stroke="#fde047" stroke-width="2" stroke-dasharray="6 4" />
<text x="70" y="24" fill="#e5e7eb" font-size="16" font-family="monospace">Top Family Inspection Snippet</text>
<text x="70" y="42" fill="#93c5fd" font-size="12" font-family="monospace">HTL|REVERSAL_DOWN|HH_ONLY|DEEP_DOM</text>
<line x1="70.00" y1="363.62" x2="70.00" y2="397.25" stroke="#ef4444" stroke-width="1" />
<rect x="65.55" y="376.72" width="8.89" height="13.29" fill="#ef4444" opacity="0.85" />
<line x1="86.16" y1="390.44" x2="86.16" y2="455.52" stroke="#ef4444" stroke-width="1" />
<rect x="81.72" y="436.22" width="8.89" height="8.66" fill="#ef4444" opacity="0.85" />
<line x1="102.33" y1="413.99" x2="102.33" y2="452.25" stroke="#22c55e" stroke-width="1" />
<rect x="97.88" y="418.01" width="8.89" height="31.41" fill="#22c55e" opacity="0.85" />
<line x1="118.49" y1="410.96" x2="118.49" y2="449.27" stroke="#ef4444" stroke-width="1" />
<rect x="114.05" y="423.07" width="8.89" height="12.16" fill="#ef4444" opacity="0.85" />
<line x1="134.66" y1="346.26" x2="134.66" y2="435.32" stroke="#22c55e" stroke-width="1" />
<rect x="130.21" y="356.38" width="8.89" height="33.20" fill="#22c55e" opacity="0.85" />
<line x1="150.82" y1="308.28" x2="150.82" y2="356.24" stroke="#ef4444" stroke-width="1" />
<rect x="146.38" y="312.16" width="8.89" height="42.95" fill="#ef4444" opacity="0.85" />
<line x1="166.99" y1="303.69" x2="166.99" y2="354.54" stroke="#22c55e" stroke-width="1" />
<rect x="162.54" y="313.01" width="8.89" height="28.71" fill="#22c55e" opacity="0.85" />
<line x1="183.15" y1="279.10" x2="183.15" y2="306.20" stroke="#22c55e" stroke-width="1" />
<rect x="178.71" y="293.29" width="8.89" height="2.93" fill="#22c55e" opacity="0.85" />
<line x1="199.32" y1="296.55" x2="199.32" y2="325.40" stroke="#ef4444" stroke-width="1" />
<rect x="194.87" y="298.30" width="8.89" height="7.00" fill="#ef4444" opacity="0.85" />
<line x1="215.48" y1="261.60" x2="215.48" y2="306.01" stroke="#22c55e" stroke-width="1" />
<rect x="211.03" y="266.85" width="8.89" height="13.29" fill="#22c55e" opacity="0.85" />
<line x1="231.64" y1="266.14" x2="231.64" y2="306.25" stroke="#22c55e" stroke-width="1" />
<rect x="227.20" y="295.37" width="8.89" height="1.00" fill="#22c55e" opacity="0.85" />
<line x1="247.81" y1="284.63" x2="247.81" y2="304.83" stroke="#ef4444" stroke-width="1" />
<rect x="243.36" y="288.79" width="8.89" height="1.00" fill="#ef4444" opacity="0.85" />
<line x1="263.97" y1="250.25" x2="263.97" y2="273.42" stroke="#22c55e" stroke-width="1" />
<rect x="259.53" y="253.37" width="8.89" height="5.96" fill="#22c55e" opacity="0.85" />
<line x1="280.14" y1="252.66" x2="280.14" y2="278.39" stroke="#ef4444" stroke-width="1" />
<rect x="275.69" y="272.43" width="8.89" height="4.82" fill="#ef4444" opacity="0.85" />
<line x1="296.30" y1="294.04" x2="296.30" y2="322.52" stroke="#ef4444" stroke-width="1" />
<rect x="291.86" y="300.24" width="8.89" height="17.45" fill="#ef4444" opacity="0.85" />
<line x1="312.47" y1="280.04" x2="312.47" y2="299.39" stroke="#22c55e" stroke-width="1" />
<rect x="308.02" y="289.03" width="8.89" height="3.55" fill="#22c55e" opacity="0.85" />
<line x1="328.63" y1="266.14" x2="328.63" y2="290.69" stroke="#ef4444" stroke-width="1" />
<rect x="324.18" y="282.46" width="8.89" height="6.67" fill="#ef4444" opacity="0.85" />
<line x1="344.79" y1="267.27" x2="344.79" y2="291.87" stroke="#22c55e" stroke-width="1" />
<rect x="340.35" y="270.73" width="8.89" height="10.59" fill="#22c55e" opacity="0.85" />
<line x1="360.96" y1="245.66" x2="360.96" y2="262.92" stroke="#22c55e" stroke-width="1" />
<rect x="356.51" y="251.43" width="8.89" height="9.13" fill="#22c55e" opacity="0.85" />
<line x1="377.12" y1="230.85" x2="377.12" y2="259.23" stroke="#ef4444" stroke-width="1" />
<rect x="372.68" y="232.65" width="8.89" height="25.02" fill="#ef4444" opacity="0.85" />
<line x1="393.29" y1="214.40" x2="393.29" y2="235.54" stroke="#22c55e" stroke-width="1" />
<rect x="388.84" y="222.29" width="8.89" height="7.95" fill="#22c55e" opacity="0.85" />
<line x1="409.45" y1="221.77" x2="409.45" y2="244.15" stroke="#ef4444" stroke-width="1" />
<rect x="405.01" y="229.39" width="8.89" height="5.82" fill="#ef4444" opacity="0.85" />
<line x1="425.62" y1="234.35" x2="425.62" y2="277.58" stroke="#ef4444" stroke-width="1" />
<rect x="421.17" y="259.66" width="8.89" height="11.92" fill="#ef4444" opacity="0.85" />
<line x1="441.78" y1="266.33" x2="441.78" y2="288.89" stroke="#22c55e" stroke-width="1" />
<rect x="437.34" y="267.89" width="8.89" height="13.39" fill="#22c55e" opacity="0.85" />
<line x1="457.95" y1="241.02" x2="457.95" y2="267.23" stroke="#ef4444" stroke-width="1" />
<rect x="453.50" y="253.37" width="8.89" height="2.13" fill="#ef4444" opacity="0.85" />
<line x1="474.11" y1="244.76" x2="474.11" y2="266.90" stroke="#ef4444" stroke-width="1" />
<rect x="469.66" y="246.75" width="8.89" height="17.93" fill="#ef4444" opacity="0.85" />
<line x1="490.27" y1="238.52" x2="490.27" y2="251.05" stroke="#ef4444" stroke-width="1" />
<rect x="485.83" y="248.12" width="8.89" height="1.00" fill="#ef4444" opacity="0.85" />
<line x1="506.44" y1="223.52" x2="506.44" y2="238.14" stroke="#22c55e" stroke-width="1" />
<rect x="501.99" y="225.94" width="8.89" height="6.39" fill="#22c55e" opacity="0.85" />
<line x1="522.60" y1="218.56" x2="522.60" y2="238.04" stroke="#22c55e" stroke-width="1" />
<rect x="518.16" y="225.65" width="8.89" height="10.22" fill="#22c55e" opacity="0.85" />
<line x1="538.77" y1="217.42" x2="538.77" y2="253.94" stroke="#ef4444" stroke-width="1" />
<rect x="534.32" y="219.55" width="8.89" height="33.68" fill="#ef4444" opacity="0.85" />
<line x1="554.93" y1="250.77" x2="554.93" y2="289.69" stroke="#ef4444" stroke-width="1" />
<rect x="550.49" y="256.11" width="8.89" height="21.09" fill="#ef4444" opacity="0.85" />
<line x1="571.10" y1="260.61" x2="571.10" y2="317.93" stroke="#22c55e" stroke-width="1" />
<rect x="566.65" y="261.27" width="8.89" height="28.47" fill="#22c55e" opacity="0.85" />
<line x1="587.26" y1="254.83" x2="587.26" y2="278.44" stroke="#22c55e" stroke-width="1" />
<rect x="582.82" y="255.07" width="8.89" height="18.49" fill="#22c55e" opacity="0.85" />
<line x1="603.42" y1="205.55" x2="603.42" y2="224.71" stroke="#22c55e" stroke-width="1" />
<rect x="598.98" y="213.83" width="8.89" height="9.22" fill="#22c55e" opacity="0.85" />
<line x1="619.59" y1="208.10" x2="619.59" y2="228.25" stroke="#ef4444" stroke-width="1" />
<rect x="615.14" y="216.90" width="8.89" height="11.26" fill="#ef4444" opacity="0.85" />
<line x1="635.75" y1="200.25" x2="635.75" y2="211.13" stroke="#22c55e" stroke-width="1" />
<rect x="631.31" y="204.70" width="8.89" height="5.25" fill="#22c55e" opacity="0.85" />
<line x1="651.92" y1="201.20" x2="651.92" y2="220.02" stroke="#ef4444" stroke-width="1" />
<rect x="647.47" y="205.36" width="8.89" height="9.03" fill="#ef4444" opacity="0.85" />
<line x1="668.08" y1="210.85" x2="668.08" y2="222.25" stroke="#22c55e" stroke-width="1" />
<rect x="663.64" y="211.75" width="8.89" height="4.11" fill="#22c55e" opacity="0.85" />
<line x1="684.25" y1="179.82" x2="684.25" y2="211.65" stroke="#ef4444" stroke-width="1" />
<rect x="679.80" y="181.05" width="8.89" height="13.48" fill="#ef4444" opacity="0.85" />
<line x1="700.41" y1="173.29" x2="700.41" y2="204.98" stroke="#22c55e" stroke-width="1" />
<rect x="695.97" y="173.48" width="8.89" height="6.67" fill="#22c55e" opacity="0.85" />
<line x1="716.58" y1="157.83" x2="716.58" y2="179.58" stroke="#ef4444" stroke-width="1" />
<rect x="712.13" y="168.19" width="8.89" height="7.95" fill="#ef4444" opacity="0.85" />
<line x1="732.74" y1="166.72" x2="732.74" y2="192.69" stroke="#22c55e" stroke-width="1" />
<rect x="728.29" y="169.75" width="8.89" height="8.80" fill="#22c55e" opacity="0.85" />
<line x1="748.90" y1="160.81" x2="748.90" y2="175.71" stroke="#22c55e" stroke-width="1" />
<rect x="744.46" y="163.93" width="8.89" height="9.13" fill="#22c55e" opacity="0.85" />
<line x1="765.07" y1="151.73" x2="765.07" y2="166.06" stroke="#22c55e" stroke-width="1" />
<rect x="760.62" y="151.96" width="8.89" height="7.24" fill="#22c55e" opacity="0.85" />
<line x1="781.23" y1="127.65" x2="781.23" y2="143.17" stroke="#22c55e" stroke-width="1" />
<rect x="776.79" y="132.57" width="8.89" height="9.18" fill="#22c55e" opacity="0.85" />
<line x1="797.40" y1="128.69" x2="797.40" y2="147.23" stroke="#22c55e" stroke-width="1" />
<rect x="792.95" y="136.45" width="8.89" height="1.18" fill="#22c55e" opacity="0.85" />
<line x1="813.56" y1="89.58" x2="813.56" y2="109.02" stroke="#22c55e" stroke-width="1" />
<rect x="809.12" y="98.71" width="8.89" height="9.98" fill="#22c55e" opacity="0.85" />
<line x1="829.73" y1="79.46" x2="829.73" y2="97.33" stroke="#22c55e" stroke-width="1" />
<rect x="825.28" y="80.45" width="8.89" height="14.09" fill="#22c55e" opacity="0.85" />
<line x1="845.89" y1="80.07" x2="845.89" y2="98.61" stroke="#22c55e" stroke-width="1" />
<rect x="841.45" y="91.85" width="8.89" height="2.32" fill="#22c55e" opacity="0.85" />
<line x1="862.05" y1="84.28" x2="862.05" y2="104.00" stroke="#ef4444" stroke-width="1" />
<rect x="857.61" y="88.87" width="8.89" height="11.45" fill="#ef4444" opacity="0.85" />
<line x1="878.22" y1="132.71" x2="878.22" y2="190.13" stroke="#ef4444" stroke-width="1" />
<rect x="873.77" y="135.98" width="8.89" height="51.32" fill="#ef4444" opacity="0.85" />
<line x1="894.38" y1="147.23" x2="894.38" y2="196.80" stroke="#ef4444" stroke-width="1" />
<rect x="889.94" y="151.21" width="8.89" height="19.06" fill="#ef4444" opacity="0.85" />
<line x1="910.55" y1="151.02" x2="910.55" y2="205.60" stroke="#22c55e" stroke-width="1" />
<rect x="906.10" y="156.83" width="8.89" height="42.71" fill="#22c55e" opacity="0.85" />
<line x1="926.71" y1="116.21" x2="926.71" y2="153.90" stroke="#ef4444" stroke-width="1" />
<rect x="922.27" y="116.96" width="8.89" height="11.92" fill="#ef4444" opacity="0.85" />
<line x1="942.88" y1="122.12" x2="942.88" y2="138.81" stroke="#ef4444" stroke-width="1" />
<rect x="938.43" y="123.63" width="8.89" height="11.40" fill="#ef4444" opacity="0.85" />
<line x1="959.04" y1="132.00" x2="959.04" y2="145.20" stroke="#22c55e" stroke-width="1" />
<rect x="954.60" y="134.46" width="8.89" height="8.37" fill="#22c55e" opacity="0.85" />
<line x1="975.21" y1="115.62" x2="975.21" y2="152.91" stroke="#ef4444" stroke-width="1" />
<rect x="970.76" y="116.62" width="8.89" height="26.27" fill="#ef4444" opacity="0.85" />
<line x1="991.37" y1="131.44" x2="991.37" y2="151.87" stroke="#22c55e" stroke-width="1" />
<rect x="986.92" y="133.48" width="8.89" height="12.49" fill="#22c55e" opacity="0.85" />
<line x1="1007.53" y1="115.05" x2="1007.53" y2="128.78" stroke="#ef4444" stroke-width="1" />
<rect x="1003.09" y="119.85" width="8.89" height="6.84" fill="#ef4444" opacity="0.85" />
<line x1="1023.70" y1="134.01" x2="1023.70" y2="173.96" stroke="#ef4444" stroke-width="1" />
<rect x="1019.25" y="137.19" width="8.89" height="27.32" fill="#ef4444" opacity="0.85" />
<line x1="1039.86" y1="147.64" x2="1039.86" y2="177.85" stroke="#22c55e" stroke-width="1" />
<rect x="1035.42" y="149.02" width="8.89" height="18.43" fill="#22c55e" opacity="0.85" />
<line x1="1056.03" y1="153.58" x2="1056.03" y2="186.69" stroke="#ef4444" stroke-width="1" />
<rect x="1051.58" y="154.67" width="8.89" height="29.03" fill="#ef4444" opacity="0.85" />
<line x1="1072.19" y1="162.04" x2="1072.19" y2="189.02" stroke="#22c55e" stroke-width="1" />
<rect x="1067.75" y="162.75" width="8.89" height="14.49" fill="#22c55e" opacity="0.85" />
<line x1="1088.36" y1="135.48" x2="1088.36" y2="165.79" stroke="#22c55e" stroke-width="1" />
<rect x="1083.91" y="144.22" width="8.89" height="20.76" fill="#22c55e" opacity="0.85" />
<line x1="1104.52" y1="127.45" x2="1104.52" y2="140.85" stroke="#22c55e" stroke-width="1" />
<rect x="1100.08" y="133.96" width="8.89" height="4.51" fill="#22c55e" opacity="0.85" />
<line x1="1120.68" y1="109.35" x2="1120.68" y2="129.26" stroke="#ef4444" stroke-width="1" />
<rect x="1116.24" y="116.29" width="8.89" height="9.55" fill="#ef4444" opacity="0.85" />
<line x1="1136.85" y1="99.95" x2="1136.85" y2="110.02" stroke="#22c55e" stroke-width="1" />
<rect x="1132.40" y="102.94" width="8.89" height="3.23" fill="#22c55e" opacity="0.85" />
<line x1="1153.01" y1="100.71" x2="1153.01" y2="120.42" stroke="#ef4444" stroke-width="1" />
<rect x="1148.57" y="110.87" width="8.89" height="7.60" fill="#ef4444" opacity="0.85" />
<line x1="1169.18" y1="106.50" x2="1169.18" y2="123.60" stroke="#22c55e" stroke-width="1" />
<rect x="1164.73" y="107.07" width="8.89" height="7.46" fill="#22c55e" opacity="0.85" />
<line x1="1185.34" y1="102.70" x2="1185.34" y2="133.20" stroke="#ef4444" stroke-width="1" />
<rect x="1180.90" y="103.94" width="8.89" height="11.69" fill="#ef4444" opacity="0.85" />
<line x1="1201.51" y1="99.00" x2="1201.51" y2="123.32" stroke="#22c55e" stroke-width="1" />
<rect x="1197.06" y="100.37" width="8.89" height="15.58" fill="#22c55e" opacity="0.85" />
<line x1="1217.67" y1="76.05" x2="1217.67" y2="116.81" stroke="#ef4444" stroke-width="1" />
<rect x="1213.23" y="88.31" width="8.89" height="25.13" fill="#ef4444" opacity="0.85" />
<line x1="1233.84" y1="90.06" x2="1233.84" y2="126.93" stroke="#22c55e" stroke-width="1" />
<rect x="1229.39" y="94.06" width="8.89" height="26.70" fill="#22c55e" opacity="0.85" />
<line x1="1250.00" y1="74.48" x2="1250.00" y2="92.39" stroke="#ef4444" stroke-width="1" />
<rect x="1245.55" y="77.48" width="8.89" height="2.66" fill="#ef4444" opacity="0.85" />
<polyline points="393.29,214.40 571.10,317.93 829.73,79.46 910.55,205.60 1007.53,115.05 1072.19,189.02" fill="none" stroke="#64748b" stroke-width="1.8" opacity="0.9" />
<circle cx="393.29" cy="214.40" r="5.50" fill="#f97316" stroke="#f8fafc" stroke-width="1.8" />
<circle cx="571.10" cy="317.93" r="5.50" fill="#38bdf8" stroke="#f8fafc" stroke-width="1.8" />
<circle cx="829.73" cy="79.46" r="5.50" fill="#f97316" stroke="#f8fafc" stroke-width="1.8" />
<circle cx="910.55" cy="205.60" r="5.50" fill="#38bdf8" stroke="#f8fafc" stroke-width="1.8" />
<circle cx="1007.53" cy="115.05" r="5.50" fill="#f97316" stroke="#f8fafc" stroke-width="1.8" />
<circle cx="1072.19" cy="189.02" r="3.30" fill="#38bdf8" stroke="#0f172a" stroke-width="1.1" />
<text x="70" y="516" fill="#cbd5e1" font-size="12" font-family="monospace">2020-03-31</text>
<text x="1140" y="516" fill="#cbd5e1" font-size="12" font-family="monospace">2020-07-15</text>
<text x="70" y="532" fill="#94a3b8" font-size="12" font-family="monospace">entry=2020-06-26 fwd10=2.1797528313420993</text>
</svg>