<svg xmlns="http://www.w3.org/2000/svg" width="1280" height="540" viewBox="0 0 1280 540">
<rect width="100%" height="100%" fill="#081018" />
<rect x="484.04" y="44" width="455.44" height="442" fill="#17324d" opacity="0.18" />
<line x1="1001.58" y1="44" x2="1001.58" y2="486" stroke="#fde047" stroke-width="2" stroke-dasharray="6 4" />
<text x="70" y="24" fill="#e5e7eb" font-size="16" font-family="monospace">Top Family Inspection Snippet</text>
<text x="70" y="42" fill="#93c5fd" font-size="12" font-family="monospace">LTH|MIXED_TRANSITION|LL_ONLY|DEEP_DOM</text>
<line x1="70.00" y1="208.06" x2="70.00" y2="256.84" stroke="#ef4444" stroke-width="1" />
<rect x="64.31" y="209.82" width="11.39" height="39.74" fill="#ef4444" opacity="0.85" />
<line x1="90.70" y1="222.54" x2="90.70" y2="248.07" stroke="#22c55e" stroke-width="1" />
<rect x="85.01" y="222.63" width="11.39" height="20.35" fill="#22c55e" opacity="0.85" />
<line x1="111.40" y1="168.59" x2="111.40" y2="219.38" stroke="#22c55e" stroke-width="1" />
<rect x="105.71" y="168.59" width="11.39" height="38.60" fill="#22c55e" opacity="0.85" />
<line x1="132.11" y1="139.90" x2="132.11" y2="182.97" stroke="#22c55e" stroke-width="1" />
<rect x="126.41" y="140.78" width="11.39" height="38.07" fill="#22c55e" opacity="0.85" />
<line x1="152.81" y1="120.25" x2="152.81" y2="150.52" stroke="#22c55e" stroke-width="1" />
<rect x="147.11" y="121.83" width="11.39" height="26.84" fill="#22c55e" opacity="0.85" />
<line x1="173.51" y1="113.85" x2="173.51" y2="151.04" stroke="#ef4444" stroke-width="1" />
<rect x="167.82" y="122.44" width="11.39" height="15.44" fill="#ef4444" opacity="0.85" />
<line x1="194.21" y1="108.50" x2="194.21" y2="134.73" stroke="#22c55e" stroke-width="1" />
<rect x="188.52" y="119.81" width="11.39" height="10.44" fill="#22c55e" opacity="0.85" />
<line x1="214.91" y1="122.44" x2="214.91" y2="152.71" stroke="#ef4444" stroke-width="1" />
<rect x="209.22" y="131.66" width="11.39" height="19.74" fill="#ef4444" opacity="0.85" />
<line x1="235.61" y1="130.30" x2="235.61" y2="158.16" stroke="#22c55e" stroke-width="1" />
<rect x="229.92" y="130.82" width="11.39" height="12.83" fill="#22c55e" opacity="0.85" />
<line x1="256.32" y1="123.97" x2="256.32" y2="143.13" stroke="#22c55e" stroke-width="1" />
<rect x="250.62" y="128.36" width="11.39" height="1.00" fill="#22c55e" opacity="0.85" />
<line x1="277.02" y1="127.57" x2="277.02" y2="155.52" stroke="#22c55e" stroke-width="1" />
<rect x="271.32" y="127.75" width="11.39" height="5.19" fill="#22c55e" opacity="0.85" />
<line x1="297.72" y1="74.48" x2="297.72" y2="112.89" stroke="#22c55e" stroke-width="1" />
<rect x="292.03" y="79.23" width="11.39" height="32.61" fill="#22c55e" opacity="0.85" />
<line x1="318.42" y1="78.97" x2="318.42" y2="124.06" stroke="#ef4444" stroke-width="1" />
<rect x="312.73" y="82.22" width="11.39" height="34.37" fill="#ef4444" opacity="0.85" />
<line x1="339.12" y1="103.84" x2="339.12" y2="136.89" stroke="#ef4444" stroke-width="1" />
<rect x="333.43" y="119.49" width="11.39" height="16.35" fill="#ef4444" opacity="0.85" />
<line x1="359.82" y1="114.30" x2="359.82" y2="138.12" stroke="#22c55e" stroke-width="1" />
<rect x="354.13" y="115.62" width="11.39" height="12.22" fill="#22c55e" opacity="0.85" />
<line x1="380.53" y1="108.06" x2="380.53" y2="130.47" stroke="#22c55e" stroke-width="1" />
<rect x="374.83" y="112.63" width="11.39" height="1.00" fill="#22c55e" opacity="0.85" />
<line x1="401.23" y1="99.18" x2="401.23" y2="160.09" stroke="#ef4444" stroke-width="1" />
<rect x="395.54" y="112.19" width="11.39" height="43.68" fill="#ef4444" opacity="0.85" />
<line x1="421.93" y1="166.34" x2="421.93" y2="193.76" stroke="#ef4444" stroke-width="1" />
<rect x="416.24" y="170.99" width="11.39" height="10.20" fill="#ef4444" opacity="0.85" />
<line x1="442.63" y1="171.35" x2="442.63" y2="211.34" stroke="#ef4444" stroke-width="1" />
<rect x="436.94" y="181.19" width="11.39" height="5.71" fill="#ef4444" opacity="0.85" />
<line x1="463.33" y1="179.43" x2="463.33" y2="204.13" stroke="#ef4444" stroke-width="1" />
<rect x="457.64" y="189.01" width="11.39" height="11.87" fill="#ef4444" opacity="0.85" />
<line x1="484.04" y1="188.75" x2="484.04" y2="218.37" stroke="#ef4444" stroke-width="1" />
<rect x="478.34" y="207.47" width="11.39" height="5.10" fill="#ef4444" opacity="0.85" />
<line x1="504.74" y1="167.39" x2="504.74" y2="213.62" stroke="#ef4444" stroke-width="1" />
<rect x="499.04" y="193.58" width="11.39" height="13.54" fill="#ef4444" opacity="0.85" />
<line x1="525.44" y1="169.41" x2="525.44" y2="203.16" stroke="#22c55e" stroke-width="1" />
<rect x="519.75" y="174.16" width="11.39" height="28.39" fill="#22c55e" opacity="0.85" />
<line x1="546.14" y1="161.33" x2="546.14" y2="192.09" stroke="#ef4444" stroke-width="1" />
<rect x="540.45" y="172.40" width="11.39" height="18.90" fill="#ef4444" opacity="0.85" />
<line x1="566.84" y1="189.36" x2="566.84" y2="212.66" stroke="#ef4444" stroke-width="1" />
<rect x="561.15" y="195.69" width="11.39" height="7.38" fill="#ef4444" opacity="0.85" />
<line x1="587.54" y1="162.47" x2="587.54" y2="202.46" stroke="#22c55e" stroke-width="1" />
<rect x="581.85" y="168.44" width="11.39" height="32.52" fill="#22c55e" opacity="0.85" />
<line x1="608.25" y1="148.14" x2="608.25" y2="165.81" stroke="#ef4444" stroke-width="1" />
<rect x="602.55" y="155.35" width="11.39" height="6.33" fill="#ef4444" opacity="0.85" />
<line x1="628.95" y1="139.97" x2="628.95" y2="208.35" stroke="#ef4444" stroke-width="1" />
<rect x="623.25" y="144.98" width="11.39" height="56.52" fill="#ef4444" opacity="0.85" />
<line x1="649.65" y1="205.27" x2="649.65" y2="249.93" stroke="#ef4444" stroke-width="1" />
<rect x="643.96" y="209.67" width="11.39" height="36.83" fill="#ef4444" opacity="0.85" />
<line x1="670.35" y1="233.93" x2="670.35" y2="277.00" stroke="#22c55e" stroke-width="1" />
<rect x="664.66" y="236.21" width="11.39" height="25.14" fill="#22c55e" opacity="0.85" />
<line x1="691.05" y1="246.23" x2="691.05" y2="292.20" stroke="#ef4444" stroke-width="1" />
<rect x="685.36" y="249.66" width="11.39" height="40.26" fill="#ef4444" opacity="0.85" />
<line x1="711.75" y1="271.99" x2="711.75" y2="302.93" stroke="#ef4444" stroke-width="1" />
<rect x="706.06" y="290.53" width="11.39" height="6.24" fill="#ef4444" opacity="0.85" />
<line x1="732.46" y1="257.75" x2="732.46" y2="316.55" stroke="#22c55e" stroke-width="1" />
<rect x="726.76" y="266.10" width="11.39" height="11.25" fill="#22c55e" opacity="0.85" />
<line x1="753.16" y1="254.85" x2="753.16" y2="318.31" stroke="#ef4444" stroke-width="1" />
<rect x="747.46" y="273.66" width="11.39" height="40.78" fill="#ef4444" opacity="0.85" />
<line x1="773.86" y1="289.22" x2="773.86" y2="337.03" stroke="#22c55e" stroke-width="1" />
<rect x="768.17" y="297.39" width="11.39" height="17.49" fill="#22c55e" opacity="0.85" />
<line x1="794.56" y1="274.36" x2="794.56" y2="308.03" stroke="#22c55e" stroke-width="1" />
<rect x="788.87" y="283.33" width="11.39" height="13.80" fill="#22c55e" opacity="0.85" />
<line x1="815.26" y1="235.51" x2="815.26" y2="307.94" stroke="#22c55e" stroke-width="1" />
<rect x="809.57" y="239.11" width="11.39" height="39.29" fill="#22c55e" opacity="0.85" />
<line x1="835.96" y1="256.34" x2="835.96" y2="328.24" stroke="#ef4444" stroke-width="1" />
<rect x="830.27" y="256.61" width="11.39" height="51.51" fill="#ef4444" opacity="0.85" />
<line x1="856.67" y1="310.31" x2="856.67" y2="353.12" stroke="#ef4444" stroke-width="1" />
<rect x="850.97" y="314.35" width="11.39" height="20.92" fill="#ef4444" opacity="0.85" />
<line x1="877.37" y1="334.66" x2="877.37" y2="409.81" stroke="#ef4444" stroke-width="1" />
<rect x="871.68" y="359.18" width="11.39" height="43.60" fill="#ef4444" opacity="0.85" />
<line x1="898.07" y1="367.53" x2="898.07" y2="435.30" stroke="#ef4444" stroke-width="1" />
<rect x="892.38" y="379.31" width="11.39" height="23.03" fill="#ef4444" opacity="0.85" />
<line x1="918.77" y1="373.86" x2="918.77" y2="443.21" stroke="#ef4444" stroke-width="1" />
<rect x="913.08" y="400.76" width="11.39" height="39.82" fill="#ef4444" opacity="0.85" />
<line x1="939.47" y1="407.70" x2="939.47" y2="455.52" stroke="#22c55e" stroke-width="1" />
<rect x="933.78" y="423.00" width="11.39" height="24.35" fill="#22c55e" opacity="0.85" />
<line x1="960.18" y1="363.14" x2="960.18" y2="401.81" stroke="#22c55e" stroke-width="1" />
<rect x="954.48" y="374.92" width="11.39" height="26.63" fill="#22c55e" opacity="0.85" />
<line x1="980.88" y1="362.87" x2="980.88" y2="391.88" stroke="#ef4444" stroke-width="1" />
<rect x="975.18" y="379.93" width="11.39" height="2.46" fill="#ef4444" opacity="0.85" />
<line x1="1001.58" y1="332.99" x2="1001.58" y2="366.83" stroke="#22c55e" stroke-width="1" />
<rect x="995.89" y="334.75" width="11.39" height="19.60" fill="#22c55e" opacity="0.85" />
<line x1="1022.28" y1="345.56" x2="1022.28" y2="401.02" stroke="#ef4444" stroke-width="1" />
<rect x="1016.59" y="353.82" width="11.39" height="37.18" fill="#ef4444" opacity="0.85" />
<line x1="1042.98" y1="368.41" x2="1042.98" y2="402.87" stroke="#22c55e" stroke-width="1" />
<rect x="1037.29" y="388.45" width="11.39" height="14.42" fill="#22c55e" opacity="0.85" />
<line x1="1063.68" y1="367.00" x2="1063.68" y2="430.11" stroke="#ef4444" stroke-width="1" />
<rect x="1057.99" y="371.14" width="11.39" height="21.27" fill="#ef4444" opacity="0.85" />
<line x1="1084.39" y1="367.09" x2="1084.39" y2="397.50" stroke="#22c55e" stroke-width="1" />
<rect x="1078.69" y="373.68" width="11.39" height="2.90" fill="#22c55e" opacity="0.85" />
<line x1="1105.09" y1="384.94" x2="1105.09" y2="425.37" stroke="#ef4444" stroke-width="1" />
<rect x="1099.39" y="388.10" width="11.39" height="8.79" fill="#ef4444" opacity="0.85" />
<line x1="1125.79" y1="359.88" x2="1125.79" y2="403.57" stroke="#22c55e" stroke-width="1" />
<rect x="1120.10" y="369.11" width="11.39" height="33.84" fill="#22c55e" opacity="0.85" />
<line x1="1146.49" y1="324.55" x2="1146.49" y2="360.59" stroke="#22c55e" stroke-width="1" />
<rect x="1140.80" y="334.04" width="11.39" height="25.23" fill="#22c55e" opacity="0.85" />
<line x1="1167.19" y1="290.71" x2="1167.19" y2="328.07" stroke="#22c55e" stroke-width="1" />
<rect x="1161.50" y="290.80" width="11.39" height="34.10" fill="#22c55e" opacity="0.85" />
<line x1="1187.89" y1="290.45" x2="1187.89" y2="322.00" stroke="#ef4444" stroke-width="1" />
<rect x="1182.20" y="297.21" width="11.39" height="14.06" fill="#ef4444" opacity="0.85" />
<line x1="1208.60" y1="296.95" x2="1208.60" y2="342.39" stroke="#ef4444" stroke-width="1" />
<rect x="1202.90" y="302.84" width="11.39" height="17.67" fill="#ef4444" opacity="0.85" />
<line x1="1229.30" y1="280.95" x2="1229.30" y2="321.30" stroke="#22c55e" stroke-width="1" />
<rect x="1223.61" y="280.95" width="11.39" height="36.65" fill="#22c55e" opacity="0.85" />
<line x1="1250.00" y1="287.99" x2="1250.00" y2="307.06" stroke="#ef4444" stroke-width="1" />
<rect x="1244.31" y="293.87" width="11.39" height="2.02" fill="#ef4444" opacity="0.85" />
<polyline points="70.00,256.84 297.72,74.48 484.04,218.37 628.95,139.97 773.86,337.03 815.26,235.51 939.47,455.52" fill="none" stroke="#64748b" stroke-width="1.8" opacity="0.9" />
<circle cx="70.00" cy="256.84" r="3.30" fill="#38bdf8" stroke="#0f172a" stroke-width="1.1" />
<circle cx="297.72" cy="74.48" r="3.30" fill="#f97316" stroke="#0f172a" stroke-width="1.1" />
<circle cx="484.04" cy="218.37" r="5.50" fill="#38bdf8" stroke="#f8fafc" stroke-width="1.8" />
<circle cx="628.95" cy="139.97" r="5.50" fill="#f97316" stroke="#f8fafc" stroke-width="1.8" />
<circle cx="773.86" cy="337.03" r="5.50" fill="#38bdf8" stroke="#f8fafc" stroke-width="1.8" />
<circle cx="815.26" cy="235.51" r="5.50" fill="#f97316" stroke="#f8fafc" stroke-width="1.8" />
<circle cx="939.47" cy="455.52" r="5.50" fill="#38bdf8" stroke="#f8fafc" stroke-width="1.8" />
<text x="70" y="516" fill="#cbd5e1" font-size="12" font-family="monospace">2022-03-14</text>
<text x="1140" y="516" fill="#cbd5e1" font-size="12" font-family="monospace">2022-06-03</text>
<text x="70" y="532" fill="#94a3b8" font-size="12" font-family="monospace">entry=2022-05-17 fwd10=0.28122317381601125</text>
</svg>