<svg xmlns="http://www.w3.org/2000/svg" width="1280" height="540" viewBox="0 0 1280 540">
<rect width="100%" height="100%" fill="#081018" />
<rect x="296.92" y="44" width="782.88" height="442" fill="#17324d" opacity="0.18" />
<line x1="1125.19" y1="44" x2="1125.19" y2="486" stroke="#fde047" stroke-width="2" stroke-dasharray="6 4" />
<text x="70" y="24" fill="#e5e7eb" font-size="16" font-family="monospace">Top Family Inspection Snippet</text>
<text x="70" y="42" fill="#93c5fd" font-size="12" font-family="monospace">HTL|CONTINUATION_DOWN|LL_ONLY|DEEP_DOM</text>
<line x1="70.00" y1="101.67" x2="70.00" y2="135.10" stroke="#ef4444" stroke-width="1" />
<rect x="66.88" y="107.78" width="6.24" height="18.60" fill="#ef4444" opacity="0.85" />
<line x1="81.35" y1="129.05" x2="81.35" y2="150.51" stroke="#22c55e" stroke-width="1" />
<rect x="78.23" y="132.95" width="6.24" height="5.27" fill="#22c55e" opacity="0.85" />
<line x1="92.69" y1="152.47" x2="92.69" y2="174.58" stroke="#ef4444" stroke-width="1" />
<rect x="89.57" y="155.07" width="6.24" height="9.63" fill="#ef4444" opacity="0.85" />
<line x1="104.04" y1="160.21" x2="104.04" y2="183.29" stroke="#22c55e" stroke-width="1" />
<rect x="100.92" y="161.96" width="6.24" height="17.89" fill="#22c55e" opacity="0.85" />
<line x1="115.38" y1="142.58" x2="115.38" y2="162.16" stroke="#22c55e" stroke-width="1" />
<rect x="112.26" y="145.90" width="6.24" height="3.51" fill="#22c55e" opacity="0.85" />
<line x1="126.73" y1="107.78" x2="126.73" y2="124.56" stroke="#ef4444" stroke-width="1" />
<rect x="123.61" y="108.69" width="6.24" height="9.11" fill="#ef4444" opacity="0.85" />
<line x1="138.08" y1="110.06" x2="138.08" y2="126.45" stroke="#22c55e" stroke-width="1" />
<rect x="134.96" y="114.87" width="6.24" height="2.21" fill="#22c55e" opacity="0.85" />
<line x1="149.42" y1="98.74" x2="149.42" y2="113.70" stroke="#ef4444" stroke-width="1" />
<rect x="146.30" y="99.00" width="6.24" height="9.56" fill="#ef4444" opacity="0.85" />
<line x1="160.77" y1="79.75" x2="160.77" y2="98.61" stroke="#22c55e" stroke-width="1" />
<rect x="157.65" y="80.40" width="6.24" height="14.76" fill="#22c55e" opacity="0.85" />
<line x1="172.12" y1="80.01" x2="172.12" y2="93.15" stroke="#ef4444" stroke-width="1" />
<rect x="169.00" y="83.26" width="6.24" height="6.89" fill="#ef4444" opacity="0.85" />
<line x1="183.46" y1="83.26" x2="183.46" y2="101.47" stroke="#22c55e" stroke-width="1" />
<rect x="180.34" y="83.39" width="6.24" height="15.61" fill="#22c55e" opacity="0.85" />
<line x1="194.81" y1="77.54" x2="194.81" y2="91.78" stroke="#ef4444" stroke-width="1" />
<rect x="191.69" y="86.71" width="6.24" height="1.00" fill="#ef4444" opacity="0.85" />
<line x1="206.15" y1="81.51" x2="206.15" y2="110.19" stroke="#ef4444" stroke-width="1" />
<rect x="203.03" y="100.43" width="6.24" height="1.37" fill="#ef4444" opacity="0.85" />
<line x1="217.50" y1="94.91" x2="217.50" y2="110.38" stroke="#22c55e" stroke-width="1" />
<rect x="214.38" y="100.17" width="6.24" height="1.00" fill="#22c55e" opacity="0.85" />
<line x1="228.85" y1="90.61" x2="228.85" y2="114.29" stroke="#ef4444" stroke-width="1" />
<rect x="225.73" y="100.63" width="6.24" height="2.93" fill="#ef4444" opacity="0.85" />
<line x1="240.19" y1="78.71" x2="240.19" y2="99.07" stroke="#22c55e" stroke-width="1" />
<rect x="237.07" y="88.60" width="6.24" height="1.00" fill="#22c55e" opacity="0.85" />
<line x1="251.54" y1="76.95" x2="251.54" y2="108.04" stroke="#ef4444" stroke-width="1" />
<rect x="248.42" y="87.17" width="6.24" height="14.76" fill="#ef4444" opacity="0.85" />
<line x1="262.88" y1="107.98" x2="262.88" y2="139.72" stroke="#22c55e" stroke-width="1" />
<rect x="259.76" y="119.17" width="6.24" height="15.09" fill="#22c55e" opacity="0.85" />
<line x1="274.23" y1="97.70" x2="274.23" y2="123.20" stroke="#22c55e" stroke-width="1" />
<rect x="271.11" y="99.00" width="6.24" height="21.66" fill="#22c55e" opacity="0.85" />
<line x1="285.58" y1="82.29" x2="285.58" y2="99.26" stroke="#22c55e" stroke-width="1" />
<rect x="282.46" y="82.94" width="6.24" height="8.72" fill="#22c55e" opacity="0.85" />
<line x1="296.92" y1="74.48" x2="296.92" y2="96.60" stroke="#ef4444" stroke-width="1" />
<rect x="293.80" y="75.72" width="6.24" height="12.10" fill="#ef4444" opacity="0.85" />
<line x1="308.27" y1="83.91" x2="308.27" y2="107.78" stroke="#ef4444" stroke-width="1" />
<rect x="305.15" y="86.52" width="6.24" height="18.54" fill="#ef4444" opacity="0.85" />
<line x1="319.62" y1="95.17" x2="319.62" y2="105.96" stroke="#ef4444" stroke-width="1" />
<rect x="316.50" y="96.14" width="6.24" height="2.28" fill="#ef4444" opacity="0.85" />
<line x1="330.96" y1="102.32" x2="330.96" y2="112.79" stroke="#22c55e" stroke-width="1" />
<rect x="327.84" y="107.00" width="6.24" height="4.23" fill="#22c55e" opacity="0.85" />
<line x1="342.31" y1="114.94" x2="342.31" y2="132.43" stroke="#22c55e" stroke-width="1" />
<rect x="339.19" y="120.53" width="6.24" height="8.85" fill="#22c55e" opacity="0.85" />
<line x1="353.65" y1="102.84" x2="353.65" y2="119.69" stroke="#22c55e" stroke-width="1" />
<rect x="350.53" y="104.14" width="6.24" height="7.15" fill="#22c55e" opacity="0.85" />
<line x1="365.00" y1="92.17" x2="365.00" y2="107.59" stroke="#ef4444" stroke-width="1" />
<rect x="361.88" y="96.79" width="6.24" height="8.46" fill="#ef4444" opacity="0.85" />
<line x1="376.35" y1="94.19" x2="376.35" y2="108.24" stroke="#22c55e" stroke-width="1" />
<rect x="373.23" y="97.18" width="6.24" height="6.89" fill="#22c55e" opacity="0.85" />
<line x1="387.69" y1="97.57" x2="387.69" y2="111.04" stroke="#22c55e" stroke-width="1" />
<rect x="384.57" y="102.25" width="6.24" height="6.63" fill="#22c55e" opacity="0.85" />
<line x1="399.04" y1="103.82" x2="399.04" y2="124.50" stroke="#ef4444" stroke-width="1" />
<rect x="395.92" y="104.99" width="6.24" height="11.38" fill="#ef4444" opacity="0.85" />
<line x1="410.38" y1="102.71" x2="410.38" y2="160.60" stroke="#ef4444" stroke-width="1" />
<rect x="407.26" y="105.05" width="6.24" height="53.33" fill="#ef4444" opacity="0.85" />
<line x1="421.73" y1="151.95" x2="421.73" y2="175.62" stroke="#ef4444" stroke-width="1" />
<rect x="418.61" y="151.95" width="6.24" height="16.65" fill="#ef4444" opacity="0.85" />
<line x1="433.08" y1="161.83" x2="433.08" y2="186.42" stroke="#ef4444" stroke-width="1" />
<rect x="429.96" y="167.68" width="6.24" height="6.24" fill="#ef4444" opacity="0.85" />
<line x1="444.42" y1="154.42" x2="444.42" y2="177.64" stroke="#ef4444" stroke-width="1" />
<rect x="441.30" y="169.70" width="6.24" height="2.47" fill="#ef4444" opacity="0.85" />
<line x1="455.77" y1="166.90" x2="455.77" y2="194.68" stroke="#ef4444" stroke-width="1" />
<rect x="452.65" y="172.43" width="6.24" height="21.14" fill="#ef4444" opacity="0.85" />
<line x1="467.12" y1="178.81" x2="467.12" y2="202.87" stroke="#22c55e" stroke-width="1" />
<rect x="464.00" y="178.87" width="6.24" height="19.58" fill="#22c55e" opacity="0.85" />
<line x1="478.46" y1="170.35" x2="478.46" y2="225.90" stroke="#ef4444" stroke-width="1" />
<rect x="475.34" y="173.99" width="6.24" height="43.06" fill="#ef4444" opacity="0.85" />
<line x1="489.81" y1="210.61" x2="489.81" y2="253.41" stroke="#22c55e" stroke-width="1" />
<rect x="486.69" y="232.40" width="6.24" height="3.19" fill="#22c55e" opacity="0.85" />
<line x1="501.15" y1="216.66" x2="501.15" y2="242.81" stroke="#22c55e" stroke-width="1" />
<rect x="498.03" y="219.07" width="6.24" height="13.14" fill="#22c55e" opacity="0.85" />
<line x1="512.50" y1="221.34" x2="512.50" y2="248.79" stroke="#ef4444" stroke-width="1" />
<rect x="509.38" y="236.56" width="6.24" height="3.25" fill="#ef4444" opacity="0.85" />
<line x1="523.85" y1="227.91" x2="523.85" y2="262.90" stroke="#22c55e" stroke-width="1" />
<rect x="520.73" y="235.46" width="6.24" height="6.37" fill="#22c55e" opacity="0.85" />
<line x1="535.19" y1="243.33" x2="535.19" y2="282.29" stroke="#ef4444" stroke-width="1" />
<rect x="532.07" y="251.78" width="6.24" height="17.37" fill="#ef4444" opacity="0.85" />
<line x1="546.54" y1="253.21" x2="546.54" y2="283.72" stroke="#ef4444" stroke-width="1" />
<rect x="543.42" y="266.87" width="6.24" height="2.41" fill="#ef4444" opacity="0.85" />
<line x1="557.88" y1="249.77" x2="557.88" y2="277.08" stroke="#ef4444" stroke-width="1" />
<rect x="554.76" y="254.32" width="6.24" height="12.68" fill="#ef4444" opacity="0.85" />
<line x1="569.23" y1="260.95" x2="569.23" y2="293.67" stroke="#ef4444" stroke-width="1" />
<rect x="566.11" y="265.90" width="6.24" height="20.62" fill="#ef4444" opacity="0.85" />
<line x1="580.58" y1="254.19" x2="580.58" y2="278.45" stroke="#22c55e" stroke-width="1" />
<rect x="577.46" y="255.36" width="6.24" height="17.24" fill="#22c55e" opacity="0.85" />
<line x1="591.92" y1="235.00" x2="591.92" y2="257.25" stroke="#22c55e" stroke-width="1" />
<rect x="588.80" y="238.71" width="6.24" height="17.82" fill="#22c55e" opacity="0.85" />
<line x1="603.27" y1="245.68" x2="603.27" y2="255.92" stroke="#ef4444" stroke-width="1" />
<rect x="600.15" y="246.14" width="6.24" height="4.17" fill="#ef4444" opacity="0.85" />
<line x1="614.62" y1="221.17" x2="614.62" y2="252.33" stroke="#22c55e" stroke-width="1" />
<rect x="611.50" y="229.71" width="6.24" height="19.69" fill="#22c55e" opacity="0.85" />
<line x1="625.96" y1="223.65" x2="625.96" y2="243.86" stroke="#22c55e" stroke-width="1" />
<rect x="622.84" y="238.25" width="6.24" height="4.82" fill="#22c55e" opacity="0.85" />
<line x1="637.31" y1="242.42" x2="637.31" y2="259.76" stroke="#22c55e" stroke-width="1" />
<rect x="634.19" y="246.53" width="6.24" height="6.97" fill="#22c55e" opacity="0.85" />
<line x1="648.65" y1="211.07" x2="648.65" y2="227.63" stroke="#22c55e" stroke-width="1" />
<rect x="645.53" y="213.48" width="6.24" height="12.39" fill="#22c55e" opacity="0.85" />
<line x1="660.00" y1="210.81" x2="660.00" y2="225.02" stroke="#ef4444" stroke-width="1" />
<rect x="656.88" y="214.59" width="6.24" height="6.45" fill="#ef4444" opacity="0.85" />
<line x1="671.35" y1="213.74" x2="671.35" y2="240.73" stroke="#ef4444" stroke-width="1" />
<rect x="668.23" y="219.35" width="6.24" height="15.45" fill="#ef4444" opacity="0.85" />
<line x1="682.69" y1="229.84" x2="682.69" y2="246.73" stroke="#ef4444" stroke-width="1" />
<rect x="679.57" y="236.49" width="6.24" height="4.69" fill="#ef4444" opacity="0.85" />
<line x1="694.04" y1="241.38" x2="694.04" y2="275.28" stroke="#ef4444" stroke-width="1" />
<rect x="690.92" y="241.64" width="6.24" height="26.66" fill="#ef4444" opacity="0.85" />
<line x1="705.38" y1="267.06" x2="705.38" y2="300.64" stroke="#22c55e" stroke-width="1" />
<rect x="702.26" y="274.56" width="6.24" height="13.10" fill="#22c55e" opacity="0.85" />
<line x1="716.73" y1="263.22" x2="716.73" y2="293.01" stroke="#22c55e" stroke-width="1" />
<rect x="713.61" y="274.43" width="6.24" height="3.39" fill="#22c55e" opacity="0.85" />
<line x1="728.08" y1="249.53" x2="728.08" y2="293.79" stroke="#22c55e" stroke-width="1" />
<rect x="724.96" y="253.90" width="6.24" height="38.33" fill="#22c55e" opacity="0.85" />
<line x1="739.42" y1="303.44" x2="739.42" y2="341.64" stroke="#ef4444" stroke-width="1" />
<rect x="736.30" y="316.15" width="6.24" height="22.55" fill="#ef4444" opacity="0.85" />
<line x1="750.77" y1="375.21" x2="750.77" y2="423.32" stroke="#ef4444" stroke-width="1" />
<rect x="747.65" y="384.59" width="6.24" height="9.26" fill="#ef4444" opacity="0.85" />
<line x1="762.12" y1="334.79" x2="762.12" y2="455.52" stroke="#22c55e" stroke-width="1" />
<rect x="759.00" y="404.54" width="6.24" height="34.09" fill="#22c55e" opacity="0.85" />
<line x1="773.46" y1="363.02" x2="773.46" y2="451.54" stroke="#ef4444" stroke-width="1" />
<rect x="770.34" y="364.52" width="6.24" height="70.86" fill="#ef4444" opacity="0.85" />
<line x1="784.81" y1="322.67" x2="784.81" y2="455.45" stroke="#22c55e" stroke-width="1" />
<rect x="781.69" y="338.51" width="6.24" height="110.56" fill="#22c55e" opacity="0.85" />
<line x1="796.15" y1="365.89" x2="796.15" y2="421.29" stroke="#ef4444" stroke-width="1" />
<rect x="793.03" y="372.14" width="6.24" height="18.32" fill="#ef4444" opacity="0.85" />
<line x1="807.50" y1="369.99" x2="807.50" y2="410.86" stroke="#22c55e" stroke-width="1" />
<rect x="804.38" y="373.19" width="6.24" height="20.99" fill="#22c55e" opacity="0.85" />
<line x1="818.85" y1="349.66" x2="818.85" y2="381.73" stroke="#ef4444" stroke-width="1" />
<rect x="815.73" y="350.70" width="6.24" height="8.34" fill="#ef4444" opacity="0.85" />
<line x1="830.19" y1="342.62" x2="830.19" y2="363.54" stroke="#22c55e" stroke-width="1" />
<rect x="827.07" y="357.54" width="6.24" height="2.74" fill="#22c55e" opacity="0.85" />
<line x1="841.54" y1="357.74" x2="841.54" y2="384.92" stroke="#ef4444" stroke-width="1" />
<rect x="838.42" y="364.45" width="6.24" height="4.76" fill="#ef4444" opacity="0.85" />
<line x1="852.88" y1="353.18" x2="852.88" y2="372.54" stroke="#22c55e" stroke-width="1" />
<rect x="849.76" y="359.37" width="6.24" height="9.71" fill="#22c55e" opacity="0.85" />
<line x1="864.23" y1="367.13" x2="864.23" y2="396.59" stroke="#ef4444" stroke-width="1" />
<rect x="861.11" y="369.02" width="6.24" height="14.73" fill="#ef4444" opacity="0.85" />
<line x1="875.58" y1="348.81" x2="875.58" y2="371.95" stroke="#22c55e" stroke-width="1" />
<rect x="872.46" y="352.91" width="6.24" height="15.12" fill="#22c55e" opacity="0.85" />
<line x1="886.92" y1="300.50" x2="886.92" y2="337.47" stroke="#ef4444" stroke-width="1" />
<rect x="883.80" y="317.39" width="6.24" height="17.40" fill="#ef4444" opacity="0.85" />
<line x1="898.27" y1="307.94" x2="898.27" y2="337.14" stroke="#22c55e" stroke-width="1" />
<rect x="895.15" y="309.96" width="6.24" height="21.51" fill="#22c55e" opacity="0.85" />
<line x1="909.62" y1="308.65" x2="909.62" y2="326.32" stroke="#22c55e" stroke-width="1" />
<rect x="906.50" y="309.57" width="6.24" height="9.13" fill="#22c55e" opacity="0.85" />
<line x1="920.96" y1="296.33" x2="920.96" y2="319.93" stroke="#22c55e" stroke-width="1" />
<rect x="917.84" y="304.22" width="6.24" height="2.87" fill="#22c55e" opacity="0.85" />
<line x1="932.31" y1="291.70" x2="932.31" y2="316.80" stroke="#22c55e" stroke-width="1" />
<rect x="929.19" y="296.72" width="6.24" height="10.56" fill="#22c55e" opacity="0.85" />
<line x1="943.65" y1="300.70" x2="943.65" y2="331.73" stroke="#22c55e" stroke-width="1" />
<rect x="940.53" y="304.74" width="6.24" height="11.21" fill="#22c55e" opacity="0.85" />
<line x1="955.00" y1="286.42" x2="955.00" y2="312.04" stroke="#22c55e" stroke-width="1" />
<rect x="951.88" y="296.85" width="6.24" height="2.35" fill="#22c55e" opacity="0.85" />
<line x1="966.35" y1="263.35" x2="966.35" y2="283.10" stroke="#22c55e" stroke-width="1" />
<rect x="963.23" y="268.11" width="6.24" height="14.01" fill="#22c55e" opacity="0.85" />
<line x1="977.69" y1="267.98" x2="977.69" y2="283.75" stroke="#22c55e" stroke-width="1" />
<rect x="974.57" y="278.15" width="6.24" height="2.41" fill="#22c55e" opacity="0.85" />
<line x1="989.04" y1="280.43" x2="989.04" y2="299.66" stroke="#22c55e" stroke-width="1" />
<rect x="985.92" y="292.29" width="6.24" height="1.17" fill="#22c55e" opacity="0.85" />
<line x1="1000.38" y1="280.62" x2="1000.38" y2="297.05" stroke="#ef4444" stroke-width="1" />
<rect x="997.26" y="283.62" width="6.24" height="4.43" fill="#ef4444" opacity="0.85" />
<line x1="1011.73" y1="253.38" x2="1011.73" y2="282.58" stroke="#22c55e" stroke-width="1" />
<rect x="1008.61" y="263.54" width="6.24" height="9.19" fill="#22c55e" opacity="0.85" />
<line x1="1023.08" y1="256.37" x2="1023.08" y2="271.50" stroke="#ef4444" stroke-width="1" />
<rect x="1019.96" y="261.20" width="6.24" height="4.76" fill="#ef4444" opacity="0.85" />
<line x1="1034.42" y1="207.81" x2="1034.42" y2="233.30" stroke="#ef4444" stroke-width="1" />
<rect x="1031.30" y="213.61" width="6.24" height="6.32" fill="#ef4444" opacity="0.85" />
<line x1="1045.77" y1="208.59" x2="1045.77" y2="219.35" stroke="#ef4444" stroke-width="1" />
<rect x="1042.65" y="213.03" width="6.24" height="1.96" fill="#ef4444" opacity="0.85" />
<line x1="1057.12" y1="215.57" x2="1057.12" y2="228.67" stroke="#ef4444" stroke-width="1" />
<rect x="1054.00" y="218.83" width="6.24" height="8.21" fill="#ef4444" opacity="0.85" />
<line x1="1068.46" y1="217.85" x2="1068.46" y2="236.10" stroke="#22c55e" stroke-width="1" />
<rect x="1065.34" y="218.24" width="6.24" height="10.10" fill="#22c55e" opacity="0.85" />
<line x1="1079.81" y1="205.20" x2="1079.81" y2="220.52" stroke="#22c55e" stroke-width="1" />
<rect x="1076.69" y="207.03" width="6.24" height="9.32" fill="#22c55e" opacity="0.85" />
<line x1="1091.15" y1="211.98" x2="1091.15" y2="230.43" stroke="#22c55e" stroke-width="1" />
<rect x="1088.03" y="212.76" width="6.24" height="14.15" fill="#22c55e" opacity="0.85" />
<line x1="1102.50" y1="207.62" x2="1102.50" y2="219.35" stroke="#22c55e" stroke-width="1" />
<rect x="1099.38" y="212.05" width="6.24" height="2.74" fill="#22c55e" opacity="0.85" />
<line x1="1113.85" y1="221.63" x2="1113.85" y2="252.72" stroke="#ef4444" stroke-width="1" />
<rect x="1110.73" y="228.02" width="6.24" height="22.29" fill="#ef4444" opacity="0.85" />
<line x1="1125.19" y1="242.75" x2="1125.19" y2="261.26" stroke="#22c55e" stroke-width="1" />
<rect x="1122.07" y="250.38" width="6.24" height="5.93" fill="#22c55e" opacity="0.85" />
<line x1="1136.54" y1="249.99" x2="1136.54" y2="273.52" stroke="#22c55e" stroke-width="1" />
<rect x="1133.42" y="254.55" width="6.24" height="18.12" fill="#22c55e" opacity="0.85" />
<line x1="1147.88" y1="220.72" x2="1147.88" y2="244.12" stroke="#22c55e" stroke-width="1" />
<rect x="1144.76" y="221.04" width="6.24" height="13.43" fill="#22c55e" opacity="0.85" />
<line x1="1159.23" y1="218.89" x2="1159.23" y2="237.34" stroke="#ef4444" stroke-width="1" />
<rect x="1156.11" y="220.98" width="6.24" height="14.34" fill="#ef4444" opacity="0.85" />
<line x1="1170.58" y1="225.22" x2="1170.58" y2="242.10" stroke="#ef4444" stroke-width="1" />
<rect x="1167.46" y="225.93" width="6.24" height="5.41" fill="#ef4444" opacity="0.85" />
<line x1="1181.92" y1="230.50" x2="1181.92" y2="248.16" stroke="#ef4444" stroke-width="1" />
<rect x="1178.80" y="237.73" width="6.24" height="1.00" fill="#ef4444" opacity="0.85" />
<line x1="1193.27" y1="233.17" x2="1193.27" y2="253.83" stroke="#22c55e" stroke-width="1" />
<rect x="1190.15" y="234.02" width="6.24" height="2.54" fill="#22c55e" opacity="0.85" />
<line x1="1204.62" y1="208.59" x2="1204.62" y2="235.06" stroke="#22c55e" stroke-width="1" />
<rect x="1201.50" y="212.37" width="6.24" height="16.75" fill="#22c55e" opacity="0.85" />
<line x1="1215.96" y1="205.99" x2="1215.96" y2="218.18" stroke="#ef4444" stroke-width="1" />
<rect x="1212.84" y="211.40" width="6.24" height="4.82" fill="#ef4444" opacity="0.85" />
<line x1="1227.31" y1="207.16" x2="1227.31" y2="225.61" stroke="#ef4444" stroke-width="1" />
<rect x="1224.19" y="214.52" width="6.24" height="1.11" fill="#ef4444" opacity="0.85" />
<line x1="1238.65" y1="192.17" x2="1238.65" y2="202.14" stroke="#22c55e" stroke-width="1" />
<rect x="1235.53" y="193.67" width="6.24" height="2.61" fill="#22c55e" opacity="0.85" />
<line x1="1250.00" y1="178.15" x2="1250.00" y2="189.43" stroke="#ef4444" stroke-width="1" />
<rect x="1246.88" y="180.82" width="6.24" height="3.32" fill="#ef4444" opacity="0.85" />
<polyline points="104.04,183.29 251.54,76.95 262.88,139.72 296.92,74.48 569.23,293.67 660.00,210.81 762.12,455.52 1079.81,205.20 1136.54,273.52" fill="none" stroke="#64748b" stroke-width="1.8" opacity="0.9" />
<circle cx="104.04" cy="183.29" r="3.30" fill="#38bdf8" stroke="#0f172a" stroke-width="1.1" />
<circle cx="251.54" cy="76.95" r="3.30" fill="#f97316" stroke="#0f172a" stroke-width="1.1" />
<circle cx="262.88" cy="139.72" r="3.30" fill="#38bdf8" stroke="#0f172a" stroke-width="1.1" />
<circle cx="296.92" cy="74.48" r="5.50" fill="#f97316" stroke="#f8fafc" stroke-width="1.8" />
<circle cx="569.23" cy="293.67" r="5.50" fill="#38bdf8" stroke="#f8fafc" stroke-width="1.8" />
<circle cx="660.00" cy="210.81" r="5.50" fill="#f97316" stroke="#f8fafc" stroke-width="1.8" />
<circle cx="762.12" cy="455.52" r="5.50" fill="#38bdf8" stroke="#f8fafc" stroke-width="1.8" />
<circle cx="1079.81" cy="205.20" r="5.50" fill="#f97316" stroke="#f8fafc" stroke-width="1.8" />
<circle cx="1136.54" cy="273.52" r="3.30" fill="#38bdf8" stroke="#0f172a" stroke-width="1.1" />
<text x="70" y="516" fill="#cbd5e1" font-size="12" font-family="monospace">2025-01-07</text>
<text x="1140" y="516" fill="#cbd5e1" font-size="12" font-family="monospace">2025-06-09</text>
<text x="70" y="532" fill="#94a3b8" font-size="12" font-family="monospace">entry=2025-05-22 fwd10=2.025801843264486</text>
</svg>